<svg width="74" height="74" viewBox="0 0 74 74" fill="none" xmlns="http://www.w3.org/2000/svg">
<path d="M38.7086 34.9215C40.3895 36.6023 42.2987 38.0377 44.3807 39.1856L10.908 72.6594C10.3534 73.1895 9.47939 73.1895 8.92479 72.6594L0.983535 64.7162C0.719602 64.4521 0.571533 64.0949 0.571533 63.7225C0.571533 63.3494 0.719602 62.9921 0.983535 62.7288L34.4617 29.2406C35.6017 31.3253 37.0318 33.2379 38.7086 34.9215ZM27.788 31.9439L25.8027 29.9572L23.8174 31.9432L25.8027 33.9299L27.788 31.9439ZM58.1943 19.4025C58.997 18.5988 59.237 17.3912 58.803 16.342C58.3684 15.292 57.3449 14.6076 56.209 14.6076C55.0737 14.6076 54.0502 15.292 53.6156 16.342C53.1809 17.3912 53.4209 18.5988 54.2236 19.4025C55.3349 20.4641 57.0837 20.4641 58.1943 19.4025ZM70.1068 31.3192C66.4235 35.0086 61.4218 37.0783 56.209 37.0693C48.2588 37.0742 41.0895 32.2854 38.0464 24.9388C35.0033 17.5914 36.6863 9.13383 42.3097 3.51257C42.4345 3.38776 42.5709 3.28215 42.697 3.16009L40.6939 1.15559C31.9211 9.93139 31.9211 24.1597 40.6939 32.9355C49.4667 41.7113 63.6902 41.7113 72.463 32.9355L70.4592 30.9317C70.3385 31.0593 70.2323 31.1957 70.1068 31.3192ZM39.7081 14.1379C41.2698 6.25772 48.1779 0.57748 56.209 0.571313C60.6773 0.563764 64.9639 2.33717 68.1215 5.49994C73.8026 11.1781 74.6828 20.0801 70.2241 26.7622C65.7653 33.4437 57.2098 36.0448 49.7882 32.9746C42.3666 29.9044 38.1465 22.0181 39.7081 14.1379ZM53.0884 22.086C55.3157 23.5755 58.2848 23.2833 60.1796 21.3885C61.236 20.3373 61.8283 18.9074 61.8249 17.4166C61.8256 14.7366 59.9335 12.429 57.3058 11.9057C54.6782 11.3825 52.0471 12.7883 51.0208 15.2646C49.9953 17.7402 50.8611 20.5965 53.0884 22.086Z" fill="white"/>
</svg>
