<svg width="92" height="50" viewBox="0 0 92 50" fill="none" xmlns="http://www.w3.org/2000/svg">
<path d="M78.2939 8.71681L78.392 8.51869C79.2284 6.83381 79.1387 4.87197 78.152 3.27109C77.1654 1.67021 75.4572 0.714355 73.5825 0.714355H58.375C56.3236 0.714355 54.4808 1.85977 53.5656 3.70356L51.1193 8.63246H39.9372C38.9588 8.63246 38.044 9.12019 37.4959 9.93446C37.082 10.5495 36.9186 11.29 37.0202 12.0085H35.9111C34.8805 12.0085 33.9747 12.5406 33.4481 13.345H29.1709C28.644 12.5404 27.7383 12.0085 26.7078 12.0085H24.3579C23.3273 12.0085 22.4216 12.5406 21.8949 13.345H17.6184C17.0917 12.5404 16.186 12.0085 15.1554 12.0085H12.8055C11.7189 12.0085 10.7722 12.6007 10.2611 13.4795C8.60745 13.739 7.07379 14.3664 5.74561 15.2753C4.55626 14.7187 3.10005 15.0112 2.22785 16.0758C1.54811 16.9056 0.992352 17.8267 0.576471 18.8138C0.103611 19.9355 0.373165 21.1854 1.16103 22.0134C0.979726 22.8114 0.880813 23.6405 0.880813 24.4929C0.880813 25.3519 0.98115 26.1871 1.1653 26.9908C0.377973 27.8202 0.110193 29.0711 0.585014 30.1926C1.00245 31.1786 1.56036 32.0989 2.24276 32.928C2.82571 33.6362 3.66755 34.0025 4.51615 34.0025C4.94071 34.0025 5.36667 33.9094 5.76318 33.7228C7.09262 34.6289 8.62661 35.2533 10.2803 35.5095C10.7919 36.3864 11.7376 36.9772 12.8225 36.9772H15.1724C16.203 36.9772 17.1088 36.4451 17.6354 35.6406H21.9125C22.4391 36.4452 23.3449 36.9772 24.3755 36.9772H26.7254C27.756 36.9772 28.6618 36.4451 29.1884 35.6406H33.4655C33.9923 36.4452 34.8981 36.9772 35.9285 36.9772H38.2784C39.309 36.9772 40.2148 36.4451 40.7414 35.6406H45.0184C45.4938 36.3666 46.2779 36.8691 47.1833 36.961C47.7214 37.479 48.446 37.7858 49.2222 37.7858H63.6322L67.2382 44.7979C66.3504 45.6841 66.0931 47.0786 66.6981 48.2549C67.2215 49.2732 68.2516 49.8572 69.3191 49.8572C69.7744 49.8572 70.2364 49.7509 70.669 49.5268L74.0997 47.7474C75.5458 46.9973 76.1128 45.2117 75.3658 43.7595C74.8052 42.6696 73.6643 42.077 72.5185 42.1661L70.2663 37.7863H76.7432C84.7461 37.7863 91.2571 31.2474 91.2571 23.2098C91.2567 15.698 85.57 9.49719 78.2939 8.71681ZM11.9807 29.7207V29.7209C9.11032 29.7209 6.77514 27.3756 6.77514 24.4929C6.77514 21.6102 9.11032 19.265 11.9807 19.265H39.828L44.0063 29.7207H11.9807ZM71.7497 8.63246H57.7054L58.6975 6.63389H72.7413L71.7497 8.63246ZM76.9156 29.618V16.8004C80.6725 16.8004 83.2969 19.6698 83.2969 23.2093C83.297 26.7486 80.6727 29.618 76.9156 29.618ZM16.1808 24.4924C16.1808 26.1566 14.8375 27.5056 13.1805 27.5056C11.5235 27.5056 10.1802 26.1566 10.1802 24.4924C10.1802 22.8282 11.5235 21.4791 13.1805 21.4791C14.8375 21.4791 16.1808 22.8282 16.1808 24.4924Z" fill="white"/>
</svg>
