<svg width="19" height="19" viewBox="0 0 19 19" fill="none" xmlns="http://www.w3.org/2000/svg">
<path d="M9.5 0C4.26171 0 0 4.26171 0 9.5C0 14.7383 4.26171 19 9.5 19C14.7383 19 19 14.7383 19 9.5C19 4.26171 14.7383 0 9.5 0ZM9.5 18.3666C4.61084 18.3666 0.633315 14.3892 0.633315 9.5C0.633315 4.61084 4.61084 0.633315 9.5 0.633315C14.3892 0.633315 18.3667 4.61084 18.3667 9.5C18.3667 14.3892 14.3892 18.3666 9.5 18.3666ZM10.7667 9.5C10.7667 10.1995 10.1995 10.7666 9.5 10.7666C8.91062 10.7666 8.41953 10.362 8.27819 9.81666H4.43334C4.25844 9.81666 4.11668 9.67484 4.11668 9.5C4.11668 9.32509 4.25844 9.18334 4.43334 9.18334H8.27819C8.39306 8.73967 8.73974 8.39306 9.18334 8.27819V2.21667C9.18334 2.04177 9.32516 1.90001 9.5 1.90001C9.67484 1.90001 9.81666 2.04177 9.81666 2.21667V8.27819C10.362 8.41946 10.7667 8.91055 10.7667 9.5Z" fill="white" fill-opacity="0.35"/>
</svg>
