<svg width="13" height="13" viewBox="0 0 13 13" fill="none" xmlns="http://www.w3.org/2000/svg">
<path d="M5.78182 6.50003L0.148744 0.866918C-0.0495815 0.668593 -0.0495815 0.347046 0.148744 0.148745C0.347068 -0.0495554 0.668614 -0.0495817 0.866915 0.148745L6.50001 5.78185L12.1331 0.148745C12.3314 -0.0495817 12.653 -0.0495817 12.8513 0.148745C13.0496 0.347071 13.0496 0.668617 12.8513 0.866918L7.21818 6.5L12.8513 12.1331C13.0496 12.3314 13.0496 12.653 12.8513 12.8513C12.7521 12.9504 12.6221 13 12.4922 13C12.3622 13 12.2322 12.9504 12.1331 12.8513L6.50001 7.2182L0.86694 12.8513C0.76779 12.9504 0.637816 13 0.507842 13C0.377868 13 0.247919 12.9504 0.148744 12.8513C-0.0495815 12.653 -0.0495815 12.3314 0.148744 12.1331L5.78182 6.50003Z" fill="black" fill-opacity="0.28"/>
</svg>
