<svg width="19" height="14" viewBox="0 0 19 14" fill="none" xmlns="http://www.w3.org/2000/svg">
<path d="M19 1.66705C19 1.46118 18.959 1.26617 18.8927 1.08398C18.892 1.08209 18.893 1.08002 18.8923 1.07812C18.8915 1.07605 18.89 1.07446 18.8892 1.07239C18.8332 0.921814 18.7559 0.784058 18.6623 0.658081C18.6513 0.643311 18.6398 0.630005 18.6284 0.615662C18.4399 0.378418 18.1921 0.197571 17.9054 0.0961304C17.8793 0.086792 17.8537 0.0789185 17.8271 0.0709839C17.6863 0.0293579 17.5406 0 17.3871 0H1.61462C1.46112 0 1.31549 0.0292969 1.17474 0.0708008C1.14771 0.0788574 1.12177 0.086853 1.09528 0.0963135C0.809753 0.197327 0.562744 0.376953 0.374451 0.612549C0.361633 0.62854 0.348694 0.643494 0.336487 0.660034C0.244263 0.784424 0.167664 0.920166 0.112061 1.06854C0.110901 1.07172 0.108459 1.07404 0.1073 1.07721C0.106201 1.08014 0.107788 1.08319 0.10675 1.08612C0.0408936 1.2677 0 1.46198 0 1.66705V12.3321C0 12.5372 0.0408325 12.7316 0.106689 12.9132C0.107788 12.9164 0.10614 12.9197 0.1073 12.9229C0.108582 12.9264 0.111206 12.929 0.112488 12.9324C0.167908 13.08 0.244202 13.2151 0.335876 13.3389C0.348694 13.3562 0.362183 13.3718 0.37561 13.3886C0.563721 13.6235 0.81012 13.8027 1.09503 13.9036C1.12164 13.9131 1.14777 13.9211 1.17493 13.9292C1.31567 13.9707 1.46118 14 1.61462 14H17.3871C17.5405 14 17.686 13.9706 17.8267 13.9291C17.8536 13.9211 17.8795 13.9131 17.9059 13.9036C18.1917 13.8023 18.4388 13.6221 18.627 13.3858C18.6391 13.3706 18.6514 13.3564 18.663 13.3408C18.756 13.2153 18.8329 13.0783 18.8888 12.9285C18.8896 12.9261 18.8915 12.9244 18.8923 12.922C18.8931 12.9198 18.892 12.9175 18.8927 12.9153C18.959 12.7331 19 12.538 19 12.3321V1.66705V1.66705ZM12.8859 7.00006L18.1316 2.16492V11.8353L12.8859 7.00006ZM17.3871 0.897522C17.4913 0.897522 17.5923 0.921204 17.6846 0.963745C17.6902 0.966248 17.694 0.971435 17.6995 0.974121C17.7841 1.01575 17.8618 1.0719 17.9261 1.14282C17.9276 1.14447 17.9283 1.14679 17.9297 1.14844L9.50122 8.91736L1.07043 1.14899C1.07245 1.14679 1.0733 1.14374 1.07532 1.14154C1.13696 1.07422 1.21155 1.02179 1.29175 0.980896C1.30084 0.976318 1.30737 0.967835 1.31671 0.963562C1.40918 0.921204 1.51025 0.897522 1.61462 0.897522H17.3871V0.897522ZM0.868347 2.16504L6.11542 6.99969L0.868347 11.8351V2.16504ZM1.61462 13.1025C1.51031 13.1025 1.40942 13.0789 1.31702 13.0366C1.30634 13.0317 1.29889 13.022 1.28851 13.0167C1.2099 12.9762 1.13641 12.925 1.07574 12.8588C1.07367 12.8565 1.07263 12.8533 1.07056 12.851L6.76758 7.60059L9.21252 9.85339C9.29474 9.92926 9.39783 9.96741 9.50122 9.96741C9.60474 9.96741 9.70776 9.92926 9.79041 9.85339L12.2336 7.60144L17.9296 12.8515C17.928 12.8533 17.9272 12.8558 17.9257 12.8575C17.8622 12.9274 17.7856 12.9824 17.7025 13.0237C17.6958 13.027 17.6912 13.0333 17.6844 13.0364C17.5922 13.0789 17.4912 13.1025 17.3871 13.1025H1.61462V13.1025Z" fill="white" fill-opacity="0.35"/>
</svg>
