<svg width="83" height="88" viewBox="0 0 83 88" fill="none" xmlns="http://www.w3.org/2000/svg">
<g filter="url(#filter0_d)">
<path d="M55.2886 21.6996C51.6056 18.0242 46.7087 16 41.5 16C36.2913 16 31.3944 18.0242 27.7114 21.6996C24.0283 25.3752 22 30.2619 22 35.4599C22 44.63 28.4241 52.547 37.3487 54.4762L41.5 60L45.6514 54.4762C54.5759 52.5469 61 44.63 61 35.4599C61 30.2619 58.9717 25.3752 55.2886 21.6996Z" fill="white"/>
<path d="M40.5463 52.0731L39.6508 50.8815L38.1938 50.5665C31.1042 49.0339 26 42.7405 26 35.4599C26 31.3255 27.6049 27.457 30.5369 24.5309C33.4691 21.6048 37.3495 20 41.5 20C45.6505 20 49.5308 21.6047 52.463 24.5309C55.3951 27.457 57 31.3255 57 35.4599C57 42.7405 51.8958 49.0338 44.8062 50.5665L43.3493 50.8814L42.4538 52.073L41.5 53.3421L40.5463 52.0731Z" stroke="#EB0000" stroke-width="8"/>
</g>
<defs>
<filter id="filter0_d" x="0" y="0" width="83" height="88" filterUnits="userSpaceOnUse" color-interpolation-filters="sRGB">
<feFlood flood-opacity="0" result="BackgroundImageFix"/>
<feColorMatrix in="SourceAlpha" type="matrix" values="0 0 0 0 0 0 0 0 0 0 0 0 0 0 0 0 0 0 127 0" result="hardAlpha"/>
<feOffset dy="6"/>
<feGaussianBlur stdDeviation="11"/>
<feComposite in2="hardAlpha" operator="out"/>
<feColorMatrix type="matrix" values="0 0 0 0 0.278431 0 0 0 0 0.278431 0 0 0 0 0.278431 0 0 0 0.42 0"/>
<feBlend mode="normal" in2="BackgroundImageFix" result="effect1_dropShadow"/>
<feBlend mode="normal" in="SourceGraphic" in2="effect1_dropShadow" result="shape"/>
</filter>
</defs>
</svg>
