<svg width="16" height="15" viewBox="0 0 16 15" fill="none" xmlns="http://www.w3.org/2000/svg">
<path d="M6.44243 4.27551C6.44243 2.51272 4.99739 1.0786 3.22117 1.0786C1.44501 1.0786 0 2.51272 0 4.27551C0 6.03827 1.44504 7.47238 3.22123 7.47238C4.99739 7.47238 6.44243 6.03827 6.44243 4.27551ZM5.35573 4.27554C5.35564 5.44358 4.39814 6.39384 3.22123 6.39384C2.04429 6.39384 1.08676 5.44355 1.08676 4.27551C1.08676 3.10744 2.04429 2.15715 3.22123 2.15715C4.3982 2.15715 5.35573 3.10744 5.35573 4.27551V4.27554ZM12.0286 0.783938L4.89688 14.7049C4.80361 14.8869 4.61773 15 4.41175 15C4.32616 15 4.2436 14.9802 4.16625 14.9412C3.89918 14.8064 3.79236 14.4812 3.92811 14.2161L11.0598 0.295162C11.1256 0.166726 11.2379 0.0714051 11.3759 0.0267963C11.4313 0.00885981 11.4881 0 11.5447 0C11.6292 0 11.713 0.0197642 11.7904 0.0588589C11.9198 0.124161 12.0159 0.235559 12.0609 0.372484C12.1058 0.509439 12.0944 0.655564 12.0286 0.783938ZM12.7788 7.52777C11.0026 7.52777 9.55747 8.96188 9.55747 10.7246C9.55747 12.4874 11.0026 13.9215 12.7788 13.9215C14.555 13.9215 16 12.4874 16 10.7246C16 8.96188 14.555 7.52777 12.7788 7.52777ZM12.7788 12.8429C11.6018 12.8429 10.6442 11.8926 10.6442 10.7246C10.6442 9.55654 11.6018 8.60625 12.7788 8.60625C13.9557 8.60625 14.9132 9.55654 14.9132 10.7246C14.9132 11.8926 13.9557 12.8429 12.7788 12.8429Z" fill="black"/>
</svg>
