<svg width="84" height="70" viewBox="0 0 84 70" fill="none" xmlns="http://www.w3.org/2000/svg">
<path d="M3.50946 51.9999H41.8V64.0399C41.8 66.8848 39.4574 69.1999 36.5786 69.1999H8.73089C5.85567 69.1999 3.50946 66.8848 3.50946 64.0399V51.9999V51.9999ZM83.5714 12.4399C83.5714 13.3894 82.7916 14.16 81.8309 14.16H68.9827L66.9464 18.1882C66.0553 19.946 64.2662 21.0399 62.275 21.0399H54.2653L48.379 22.9767C45.3576 23.9743 42.2107 24.48 39.0222 24.48H32.8505L32.5615 26.3134C32.8609 26.2136 33.1881 26.1689 33.5188 26.2515C34.4516 26.4819 35.019 27.4143 34.7858 28.3361L33.0453 35.2162C32.8505 36.0005 32.1404 36.5199 31.3605 36.5199C31.2352 36.5199 31.1099 36.5028 30.9812 36.4752L29.8012 44.0638L40.4145 48.5599H4.66863L10.5967 44.1636L13.6635 24.48H5.24999C2.37479 24.48 0.0285645 22.1649 0.0285645 19.32V5.5599C0.0285645 2.71497 2.37479 0.399902 5.24999 0.399902H39.0256C42.2141 0.399902 45.361 0.905584 48.3824 1.90324L54.2688 3.84001H62.2784C64.266 3.84001 66.0587 4.93393 66.9498 6.69187L68.9862 10.7201H81.8309C82.7916 10.7201 83.5714 11.4905 83.5714 12.4399ZM20.9143 15.88C20.9143 14.9306 20.1345 14.16 19.1737 14.16H8.73089C7.77015 14.16 6.99037 14.9304 6.99037 15.8799C6.99037 16.8293 7.77015 17.5999 8.73089 17.5999H19.1737C20.1345 17.5999 20.9143 16.8295 20.9143 15.88ZM20.9143 9C20.9143 8.05057 20.1345 7.27995 19.1737 7.27995H8.73089C7.77015 7.27995 6.99037 8.05057 6.99037 9C6.99037 9.94944 7.77015 10.7201 8.73089 10.7201H19.1737C20.1345 10.7201 20.9143 9.94944 20.9143 9ZM55.7237 9C55.7237 8.05057 54.9441 7.27995 53.9834 7.27995C53.0226 7.27995 52.2429 8.05057 52.2429 9V15.88C52.2429 16.8295 53.0225 17.6001 53.9832 17.6001C54.944 17.6001 55.7237 16.8295 55.7237 15.88V9Z" fill="white"/>
</svg>
