<svg aria-hidden="true" style="position:absolute;width:0;height:0;overflow:hidden" xmlns="http://www.w3.org/2000/svg">
  <defs>
    <symbol id="icon-angle-grinders" viewBox="0 0 32 32">
      <path fill="#fff" style="fill:var(--color1, #fff)" d="M16.739 15.101a10.909 10.909 0 0 0 2.453 1.844L4.717 31.42a.622.622 0 0 1-.858 0L.425 27.985a.609.609 0 0 1 0-.86l14.477-14.481a10.842 10.842 0 0 0 1.837 2.457zm-4.723-1.287-.858-.859-.858.859.858.859.858-.859zM25.165 8.39a1.215 1.215 0 1 0-1.717 0 1.243 1.243 0 0 0 1.717 0zm5.151 5.153a8.479 8.479 0 0 1-6.01 2.487 8.5 8.5 0 0 1-6.01-14.511c.054-.054.113-.1.167-.152L17.597.5c-3.794 3.795-3.794 9.948 0 13.743s9.944 3.795 13.738 0l-.866-.867c-.052.055-.098.114-.152.168zM17.171 6.114a7.281 7.281 0 0 1 12.287-3.736c2.457 2.455 2.837 6.305.909 9.194s-5.628 4.014-8.837 2.686-5.034-4.738-4.359-8.146zm5.786 3.437a2.427 2.427 0 0 0 3.777-2.02 2.43 2.43 0 1 0-3.778 2.019z"/>
    </symbol>
    <symbol id="icon-arrow-select" viewBox="0 0 45 32">
      <path fill="#eb0000" style="fill:var(--color2, #eb0000)" d="M24.148 25.605 44.084 5.668c.462-.461.716-1.077.716-1.733s-.254-1.272-.716-1.733L42.616.734a2.455 2.455 0 0 0-3.466 0L22.409 17.475 5.649.715C5.188.254 4.572-.001 3.916-.001S2.644.254 2.182.715L.715 2.183c-.461.461-.716 1.077-.716 1.733s.254 1.272.716 1.733l19.954 19.955a2.44 2.44 0 0 0 1.738.715 2.435 2.435 0 0 0 1.74-.715z"/>
    </symbol>
    <symbol id="icon-box" viewBox="0 0 31 32">
      <path fill="#eb0000" style="fill:var(--color2, #eb0000)" d="m30.814 8.317-.002-.031a.642.642 0 0 0-.012-.088l-.003-.017-.013-.048-.007-.022-.017-.045-.01-.023a.477.477 0 0 0-.034-.063l-.021-.034-.019-.026a.49.49 0 0 0-.048-.056.525.525 0 0 0-.042-.04l-.012-.011a.584.584 0 0 0-.064-.047l-.001-.001a.008.008 0 0 0-.005-.002c-.015-.009-.03-.019-.046-.027L15.703.069a.625.625 0 0 0-.574 0L.354 7.736c-.016.008-.031.018-.047.027l-.003.002-.001.001a.626.626 0 0 0-.066.049l-.001.001a.74.74 0 0 0-.057.055l-.005.005a.687.687 0 0 0-.175.5v14.957c0 .248.134.476.345.591l14.754 8a.613.613 0 0 0 .297.076l.01-.001.01.001a.62.62 0 0 0 .297-.076l14.755-8a.67.67 0 0 0 .345-.591v-15l-.001-.016zM14.756 30.233 1.285 22.929V9.411l13.471 7v13.822zm.651-14.973L2.078 8.334l13.34-6.922 13.319 6.922-13.33 6.926zm14.124 7.669L16.06 30.233V16.411l13.471-7v13.518z"/>
      <path style="fill:var(--color3, #000)" d="m23.814 26.029-1.303.691.005-15.044L9.088 4.697l1.413-.734 13.319 6.922-.006 15.144z"/>
    </symbol>
    <symbol id="icon-cards" viewBox="0 0 40 32">
      <path fill="#eb0000" style="fill:var(--color2, #eb0000)" d="M38.975 3.448a2.949 2.949 0 0 0-2.028-1.064L9.004.01a2.931 2.931 0 0 0-2.173.707A3.03 3.03 0 0 0 5.787 2.77l-.562 5.367H2.98C1.337 8.137 0 9.497 0 11.169v17.798c0 1.672 1.337 3.032 2.98 3.032h28.04c1.643 0 2.98-1.36 2.98-3.032V26.08l.995.085c.084.007.167.011.25.011 1.532 0 2.838-1.199 2.968-2.78L39.669 5.66a3.051 3.051 0 0 0-.695-2.211zm-6.524 25.52c0 .802-.642 1.455-1.43 1.455H2.981c-.789 0-1.43-.653-1.43-1.455v-9.75h30.901v9.75zm0-11.328H1.55v-3.272h30.901v3.272zm0-4.849H1.55v-1.622c0-.803.642-1.455 1.43-1.455h28.04c.789 0 1.43.653 1.43 1.455v1.622zm4.218 10.473c-.066.8-.759 1.396-1.544 1.329l-1.124-.096V11.169c0-1.672-1.337-3.032-2.98-3.032H6.784l.546-5.208.002-.018c.066-.8.758-1.396 1.544-1.329l27.943 2.374c.381.032.726.214.973.51s.365.674.333 1.061l-1.456 17.736z"/>
      <path style="fill:var(--color3, #000)" d="M29.208 21.562h-7.459a.782.782 0 0 0-.775.788v4.951c0 .436.347.789.775.789h7.459a.782.782 0 0 0 .775-.789V22.35a.782.782 0 0 0-.775-.788zm-.776 4.951h-5.909v-3.374h5.909v3.374z"/>
    </symbol>
    <symbol id="icon-chainsaw" viewBox="0 0 59 32">
      <path fill="#fff" style="fill:var(--color1, #fff)" d="m50.108 5.579.063-.127c.535-1.078.478-2.334-.154-3.358S48.292.458 47.093.458H37.36a3.419 3.419 0 0 0-3.078 1.913l-1.566 3.154h-7.157c-.626 0-1.212.312-1.562.833a1.9 1.9 0 0 0-.304 1.327h-.71c-.66 0-1.239.341-1.576.855H18.67a1.881 1.881 0 0 0-1.576-.855H15.59c-.66 0-1.239.341-1.576.855h-2.737a1.881 1.881 0 0 0-1.576-.855H8.197c-.695 0-1.301.379-1.628.941a7.057 7.057 0 0 0-2.89 1.149 1.88 1.88 0 0 0-2.251.512 7.144 7.144 0 0 0-1.057 1.752 1.9 1.9 0 0 0 .374 2.048 7.155 7.155 0 0 0 .003 3.186 1.9 1.9 0 0 0-.371 2.049c.267.631.624 1.22 1.061 1.751a1.88 1.88 0 0 0 2.253.509 7.03 7.03 0 0 0 2.891 1.143c.327.561.933.939 1.627.939h1.504c.66 0 1.239-.341 1.576-.855h2.737c.337.515.917.855 1.576.855h1.504c.66 0 1.239-.341 1.576-.855h2.737c.337.515.917.855 1.576.855h1.504c.66 0 1.239-.341 1.576-.855h2.737c.304.465.806.786 1.386.845.344.332.808.528 1.305.528h9.222l2.308 4.488a1.9 1.9 0 0 0-.346 2.212 1.883 1.883 0 0 0 2.541.814l2.196-1.139a1.898 1.898 0 0 0 .81-2.552 1.885 1.885 0 0 0-1.822-1.02l-1.441-2.803h4.145c5.122 0 9.289-4.185 9.289-9.329 0-4.808-3.64-8.776-8.296-9.275zM7.668 19.021c-1.837 0-3.332-1.501-3.332-3.346s1.495-3.346 3.332-3.346H25.49l2.674 6.692H7.668zM45.92 5.525h-8.988l.635-1.279h8.988l-.635 1.279zm3.306 13.431v-8.203c2.404 0 4.084 1.836 4.084 4.102s-1.679 4.102-4.084 4.102zm-38.87-3.281c0 1.065-.86 1.928-1.92 1.928s-1.92-.863-1.92-1.928.86-1.928 1.92-1.928 1.92.863 1.92 1.928z"/>
    </symbol>
    <symbol id="icon-check-mark" viewBox="0 0 43 32">
      <path fill="#6b6b6b" style="fill:var(--color4, #6b6b6b)" d="M39.233 0 13.551 25.249 3.433 15.302 0 18.677l13.551 13.322L42.667 3.374 39.234-.001z"/>
    </symbol>
    <symbol id="icon-clock" viewBox="0 0 32 32">
      <path fill="#fff" style="fill:var(--color1, #fff)" opacity=".35" d="M16 0C7.178 0 0 7.178 0 16s7.178 16 16 16 16-7.178 16-16S24.822 0 16 0zm0 30.933C7.766 30.933 1.067 24.234 1.067 16S7.766 1.067 16 1.067 30.933 7.766 30.933 16 24.234 30.933 16 30.933zM18.133 16a2.128 2.128 0 0 1-4.191.533H7.466a.533.533 0 1 1 0-1.066h6.476a2.123 2.123 0 0 1 1.524-1.524V3.734a.533.533 0 1 1 1.066 0v10.209a2.13 2.13 0 0 1 1.6 2.058z"/>
    </symbol>
    <symbol id="icon-cog" viewBox="0 0 33 32">
      <path fill="#e91d25" style="fill:var(--color5, #e91d25)" d="M29.876 7.857a.664.664 0 0 0-.892-.23.628.628 0 0 0-.3.386.612.612 0 0 0 .064.471 14.244 14.244 0 0 1 1.974 7.225c0 7.966-6.6 14.447-14.713 14.447-2.952 0-5.793-.852-8.216-2.464l-1.042-.693h2.876c.358 0 .649-.283.649-.63s-.291-.63-.649-.63h-4.48a.64.64 0 0 0-.649.63v4.398c0 .347.291.63.649.63s.649-.283.649-.63v-2.949l.603.447c2.78 2.061 6.104 3.15 9.61 3.15 4.278 0 8.299-1.635 11.323-4.603 3.023-2.966 4.687-6.91 4.687-11.104 0-2.754-.742-5.469-2.145-7.851z"/>
      <path fill="#fff" style="fill:var(--color1, #fff)" d="M19.209 15.707c0-1.727-1.435-3.132-3.198-3.132s-3.198 1.405-3.198 3.132 1.435 3.132 3.198 3.132 3.198-1.405 3.198-3.132zm-5.1 0c0-1.032.853-1.872 1.901-1.872s1.901.84 1.901 1.872-.853 1.872-1.901 1.872-1.901-.84-1.901-1.873z"/>
      <path fill="#fff" style="fill:var(--color1, #fff)" d="M14.098 23.844h3.825a.64.64 0 0 0 .648-.63v-1.431l.224-.1a6.704 6.704 0 0 0 1.105-.628l.196-.137 1.256.712c.148.084.329.108.497.064s.307-.149.394-.296l1.912-3.251a.62.62 0 0 0-.236-.856l-1.257-.712.024-.244a6.552 6.552 0 0 0 0-1.255l-.024-.244 1.258-.713a.632.632 0 0 0 .3-.383.615.615 0 0 0-.064-.474l-1.912-3.251a.656.656 0 0 0-.89-.232l-1.257.713-.196-.137a6.673 6.673 0 0 0-1.105-.628l-.224-.1V8.2a.64.64 0 0 0-.648-.63h-3.825a.64.64 0 0 0-.649.63v1.431l-.224.1a6.663 6.663 0 0 0-1.105.628l-.195.137-1.257-.712a.667.667 0 0 0-.497-.064.64.64 0 0 0-.394.296l-1.913 3.251c-.085.144-.107.313-.064.474s.151.298.301.383l1.257.712-.024.244a6.647 6.647 0 0 0 0 1.256l.024.244-1.257.712c-.149.085-.256.221-.3.382s-.021.329.064.474l1.912 3.251a.66.66 0 0 0 .89.232l1.257-.712.196.137c.346.243.717.454 1.104.628l.224.1v1.431c0 .347.291.63.649.63zM12.43 19.68a.66.66 0 0 0-.761-.075l-1.089.617-1.268-2.157 1.092-.619a.622.622 0 0 0 .309-.668 5.244 5.244 0 0 1 0-2.14.623.623 0 0 0-.309-.669l-1.092-.619 1.269-2.157 1.088.617c.244.139.55.108.761-.075a5.386 5.386 0 0 1 1.875-1.066.632.632 0 0 0 .442-.597V8.831h2.527v1.241a.63.63 0 0 0 .442.597 5.395 5.395 0 0 1 1.875 1.066c.21.183.516.213.761.075l1.089-.617 1.268 2.157-1.092.619a.623.623 0 0 0-.309.669 5.236 5.236 0 0 1 0 2.14.623.623 0 0 0 .309.669l1.092.619-1.269 2.157-1.088-.617a.663.663 0 0 0-.761.075 5.386 5.386 0 0 1-1.875 1.066.631.631 0 0 0-.442.597v1.241h-2.527v-1.241a.63.63 0 0 0-.441-.597 5.386 5.386 0 0 1-1.875-1.066z"/>
      <path fill="#e91d25" style="fill:var(--color5, #e91d25)" d="M3.272 22.932a14.244 14.244 0 0 1-1.974-7.225c0-7.966 6.6-14.447 14.713-14.447 2.952 0 5.794.852 8.217 2.463l1.042.693h-2.877c-.358 0-.649.283-.649.63s.291.63.649.63h4.48a.64.64 0 0 0 .648-.63V.649c0-.347-.291-.63-.648-.63s-.648.283-.648.63v2.946l-.603-.447C22.842 1.089 19.519 0 16.011 0 11.733 0 7.712 1.635 4.688 4.603 1.665 7.569.001 11.513.001 15.707c0 2.755.742 5.47 2.145 7.851.171.291.587.402.892.23a.626.626 0 0 0 .299-.386.605.605 0 0 0-.065-.47z"/>
    </symbol>
    <symbol id="icon-coupons" viewBox="0 0 37 32">
      <path fill="#e91d25" style="fill:var(--color5, #e91d25)" d="M32.11 16.321v-3.335c1.782-1.452 2.437-3.832 1.585-5.908a4.97 4.97 0 0 0-2.824-2.753 5.367 5.367 0 0 0-3.479-.144L26.058.929a1.5 1.5 0 0 0-1.955-.817l-21.8 8.945c-.369.152-.658.439-.813.809s-.156.777-.005 1.146l1.335 3.252C.468 15.532-.628 18.325.368 20.753c.122.298.275.584.456.855.11 2.525 2.143 4.584 4.726 4.857v3.516a1.5 1.5 0 0 0 1.498 1.498h23.564a1.5 1.5 0 0 0 1.498-1.498v-3.515c2.657-.28 4.731-2.448 4.731-5.073s-2.074-4.792-4.731-5.072zM3.826 15.187l.007-.003a.636.636 0 0 0 .387-.842l-1.564-3.811a.236.236 0 0 1 .127-.303l21.8-8.945a.235.235 0 0 1 .303.127l1.564 3.811a.636.636 0 0 0 .831.343l.035-.015.004-.002a4.135 4.135 0 0 1 3.09-.042 3.715 3.715 0 0 1 2.114 2.054c.584 1.424.214 3.046-.891 4.154l-.008-.008-.008-.007-.002-.002-.001-.001c-.001-.001 0 0 0 0l-.025-.023-.001-.001-.003-.002a1.74 1.74 0 0 0-.063-.051l-.002-.002-.001-.001-.024-.018-.012-.009-.001-.001-.001-.001-.001-.001c-.022-.016-.044-.03-.067-.045h-.001l-.046-.028-.003-.002-.001-.001-.001-.001-.002-.001-.002-.001-.059-.032-.001-.001a1.036 1.036 0 0 0-.058-.028s-.001 0-.001 0l-.061-.027-.001-.001h-.001c-.001 0 0 0 0 0l-.07-.026h-.001c-.019-.006-.037-.013-.056-.018l-.003-.001h-.002l-.003-.001-.073-.019h-.001l-.006-.002-.051-.012c-.028-.006-.058-.01-.087-.014l-.004-.001-.005-.001h-.001l-.043-.005h-.006a1.435 1.435 0 0 0-.145-.007H7.054a1.5 1.5 0 0 0-1.498 1.498v3.516a5.42 5.42 0 0 0-2.377.834h-.001a5.168 5.168 0 0 0-1.883 2.136c-.187-1.686.813-3.397 2.537-4.105zm27.702 10.044h-.008l-.036-.001a.63.63 0 0 0-.64.633v4.119a.235.235 0 0 1-.232.232H7.048a.235.235 0 0 1-.232-.232v-4.119a.634.634 0 0 0-.633-.633h-.007l-.036.001h-.005c-2.228 0-4.045-1.717-4.05-3.828v-.016c.003-1.268.666-2.451 1.775-3.166a4.21 4.21 0 0 1 2.275-.662H6.183a.634.634 0 0 0 .633-.633v-4.119c0-.126.106-.232.232-.232h23.564l.017.001.011.002h.002l.012.002.011.003.011.003.008.003h.001l.001.001.01.004.01.004.009.004.009.005h.001l.002.001.007.004.009.006.005.004.001.001.001.001.009.007.004.003c.001 0 0 0 0 0l.001.001.001.001.011.01.001.001a.226.226 0 0 1 .062.127l.003.032v4.119a.63.63 0 0 0 .64.633l.038-.001h.004c2.233 0 4.05 1.721 4.05 3.837s-1.817 3.837-4.047 3.837z"/>
      <path fill="#fff" style="fill:var(--color1, #fff)" d="M23.449 15.104a.633.633 0 0 0-.885.136l-8.489 11.558a.633.633 0 0 0 1.021.75l8.489-11.558a.633.633 0 0 0-.136-.885zM22.92 21.716c-1.613 0-2.926 1.372-2.926 3.058s1.312 3.058 2.926 3.058c1.613 0 2.926-1.372 2.926-3.058s-1.313-3.058-2.926-3.058zm0 4.849c-.915 0-1.66-.804-1.66-1.792s.745-1.792 1.66-1.792c.915 0 1.66.804 1.66 1.792s-.744 1.792-1.66 1.792zM17.665 18.014c0-1.686-1.313-3.058-2.926-3.058s-2.926 1.372-2.926 3.058c0 1.686 1.313 3.058 2.926 3.058s2.926-1.372 2.926-3.058zm-4.586 0c0-.988.745-1.792 1.66-1.792s1.66.804 1.66 1.792-.745 1.792-1.66 1.792-1.66-.804-1.66-1.792z"/>
    </symbol>
    <symbol id="icon-courier" viewBox="0 0 24 32">
      <path fill="#eb0000" style="fill:var(--color2, #eb0000)" d="m20.431 18.428-5.883-1.188v-1.237l.163-.079c2.198-1.057 3.617-3.324 3.617-5.774V6.441a6.315 6.315 0 0 1-1.036.504 6.294 6.294 0 0 1-1.469 2.639c-.015.016-.034.026-.05.042.289.004.577-.043.855-.144l.383-.138v.807c0 2.791-2.248 5.062-5.012 5.062s-5.012-2.271-5.012-5.062v-.806l.383.138c.121.044.245.074.369.098-.777-.778-1.329-1.838-1.556-2.937a4.955 4.955 0 0 1-.514-.165v3.672a6.435 6.435 0 0 0 3.617 5.774l.163.079v1.237l-5.883 1.188c-2.068.418-3.569 2.266-3.569 4.396v9.116h24v-9.116c0-2.13-1.501-3.978-3.569-4.396zm-9.663-.097v-1.902l.327.047c.6.087 1.209.087 1.809 0l.327-.047v1.902l1.781.36-.136.326c-.486 1.167-1.615 1.921-2.876 1.921s-2.39-.754-2.876-1.921l-.136-.326 1.781-.36zm-1.89 2.693.459.348c.773.587 1.694.897 2.663.897s1.89-.31 2.663-.897l.459-.348v3.732H8.878v-3.732zM3.781 30.61H1.318v-7.786c0-1.332.836-2.526 2.081-2.972l.382-.137v10.894zm15.121 0H5.097V19.476l2.463-.498v7.108h8.878v-7.108l2.463.498V30.61zm3.781 0H20.22V19.716l.382.137a3.157 3.157 0 0 1 2.081 2.972v7.786z"/>
      <path style="fill:var(--color3, #000)" d="M13.92 0h-3.842c-2.432 0-4.41 2.011-4.41 4.483v3.028c.106 1.532 1.309 1.893 1.309 1.893l.38.138a2.397 2.397 0 0 0 1.675-.013c1.001-.374 1.985-.563 2.923-.563l.043.002.043-.002c.939 0 1.922.189 2.923.563a2.391 2.391 0 0 0 1.675.013l.38-.138s1.203-.361 1.309-1.893V4.483C18.328 2.011 16.35 0 13.918 0zm3.101 7.104c0 .417-.192.793-.528 1.031a1.144 1.144 0 0 1-1.077.145c-1.146-.428-2.281-.644-3.374-.644l-.043.002-.043-.002c-1.093 0-2.228.217-3.374.644a1.163 1.163 0 0 1-.404.074c-.236 0-.469-.074-.673-.219a1.246 1.246 0 0 1-.528-1.031v-.36l.135-.085c.727-.454 2.653-1.511 4.844-1.511l.043.002.043-.002c2.19 0 4.117 1.056 4.844 1.511l.135.085v.36zm0-1.914-.411-.206c-1.058-.532-2.708-1.166-4.568-1.166-.015 0-.028.003-.043.003s-.028-.003-.043-.003c-1.86 0-3.511.634-4.568 1.166l-.411.206v-.707c0-1.738 1.391-3.153 3.101-3.153h3.842c1.71 0 3.101 1.414 3.101 3.153v.707z"/>
    </symbol>
    <symbol id="icon-diagram" viewBox="0 0 32 32">
      <path fill="#bebebe" style="fill:var(--color6, #bebebe)" d="M9.145 13.713v17.142C9.145 31.484 8.636 32 8 32H1.145A1.145 1.145 0 0 1 0 30.855V13.713a1.149 1.149 0 0 1 1.145-1.145H8c.629 0 1.145.509 1.145 1.145zM19.428 0h-6.855c-.629 0-1.145.509-1.145 1.138v29.717c0 .636.515 1.145 1.145 1.145h6.855c.636 0 1.145-.516 1.145-1.145V1.145C20.573.509 20.058 0 19.428 0zm11.427 9.14H24a1.14 1.14 0 0 0-1.145 1.145v20.57c0 .636.515 1.145 1.145 1.145h6.855c.636 0 1.145-.516 1.145-1.145v-20.57c0-.636-.515-1.145-1.145-1.145z"/>
    </symbol>
    <symbol id="icon-facebook" viewBox="0 0 18 32">
      <path fill="#3551b6" style="fill:var(--color7, #3551b6)" d="M13.242 5.329h4.536V.003h-7.486S3.96-.374 3.96 7.567v3.096H0v5.272h3.96v16.066H10V15.935h6.237l1.089-5.272H10V8.195c0-1.06.272-2.865 3.242-2.865z"/>
    </symbol>
    <symbol id="icon-heart" viewBox="0 0 38 32">
      <path fill="#bebebe" style="fill:var(--color6, #bebebe)" d="M27.773 0a9.2 9.2 0 0 0-5.592 1.853c-1.59 1.179-2.649 2.68-3.272 3.771-.623-1.092-1.682-2.593-3.272-3.771C13.979.624 12.097 0 10.045 0 4.318 0 0 4.49 0 10.443c0 6.432 5.388 10.833 13.544 17.495a470.245 470.245 0 0 1 4.587 3.781c.215.181.491.28.778.28s.563-.099.778-.28c1.632-1.368 3.202-2.65 4.588-3.782 8.156-6.662 13.543-11.062 13.543-17.494C37.818 4.489 33.499 0 27.773 0z"/>
    </symbol>
    <symbol id="icon-human" viewBox="0 0 27 32">
      <path fill="#bebebe" style="fill:var(--color6, #bebebe)" d="M5.6 8.308C5.6 3.737 9.079 0 13.335 0s7.735 3.737 7.735 8.308-3.479 8.308-7.735 8.308S5.6 12.879 5.6 8.308zm21.01 14.948a7.973 7.973 0 0 0-.777-1.524c-1.554-2.467-3.952-4.1-6.654-4.499-.338-.036-.709.036-.979.254-1.419 1.125-3.107 1.705-4.864 1.705s-3.445-.58-4.864-1.705c-.27-.218-.642-.327-.98-.254-2.702.399-5.134 2.032-6.654 4.499a9.193 9.193 0 0 0-.777 1.524c-.101.218-.068.472.034.689.27.508.608 1.016.912 1.451.473.689.98 1.306 1.554 1.887.473.508 1.013.98 1.554 1.451 2.668 2.141 5.877 3.265 9.187 3.265s6.519-1.125 9.187-3.265c.54-.435 1.081-.943 1.554-1.451.54-.581 1.081-1.197 1.554-1.887.338-.472.642-.943.912-1.451.169-.218.203-.472.101-.689z"/>
    </symbol>
    <symbol id="icon-info" viewBox="0 0 32 32">
      <path fill="#d6d6d6" style="fill:var(--color8, #d6d6d6)" d="M24.5 0h-17C3.364 0 0 3.365 0 7.5v17C0 28.636 3.365 32 7.5 32h17c4.136 0 7.5-3.364 7.5-7.5v-17C32 3.364 28.636 0 24.5 0zm5 24.5c0 2.757-2.243 5-5 5h-17c-2.757 0-5-2.243-5-5v-17c0-2.757 2.243-5 5-5h17c2.757 0 5 2.243 5 5v17zM17.25 13.688v9.563a1.25 1.25 0 0 1-2.5 0v-9.563a1.25 1.25 0 0 1 2.5 0zm.312-4.626a1.563 1.563 0 1 1-3.126 0 1.563 1.563 0 0 1 3.126 0z"/>
    </symbol>
    <symbol id="icon-instagram" viewBox="0 0 32 32">
      <path d="M31.904 9.403c-.078-1.703-.348-2.866-.744-3.884a7.842 7.842 0 0 0-1.846-2.834A7.842 7.842 0 0 0 26.48.839C25.462.444 24.299.173 22.596.096c-1.706-.078-2.251-.097-6.597-.097s-4.89.019-6.597.096C7.699.173 6.536.443 5.518.839a7.852 7.852 0 0 0-2.834 1.845A7.842 7.842 0 0 0 .838 5.518C.443 6.536.172 7.699.095 9.402c-.078 1.707-.097 2.251-.097 6.597s.019 4.891.097 6.597c.078 1.703.348 2.866.744 3.884a7.86 7.86 0 0 0 1.845 2.834 7.826 7.826 0 0 0 2.834 1.845c1.018.396 2.181.666 3.884.744 1.707.078 2.251.096 6.597.096s4.89-.018 6.597-.096c1.703-.078 2.866-.348 3.884-.744a8.18 8.18 0 0 0 4.679-4.679c.396-1.018.666-2.181.744-3.884.078-1.706.096-2.251.096-6.597s-.019-4.89-.096-6.597zm-2.88 13.063c-.071 1.56-.332 2.407-.551 2.971a5.3 5.3 0 0 1-3.037 3.037c-.564.219-1.411.48-2.971.551-1.687.077-2.193.093-6.465.093s-4.779-.016-6.466-.093c-1.56-.071-2.407-.332-2.971-.551a4.977 4.977 0 0 1-1.84-1.197 4.956 4.956 0 0 1-1.197-1.84c-.219-.564-.48-1.411-.551-2.971-.077-1.687-.093-2.193-.093-6.465s.016-4.778.093-6.466c.071-1.56.332-2.407.551-2.971a4.969 4.969 0 0 1 1.197-1.84 4.956 4.956 0 0 1 1.84-1.197c.564-.219 1.411-.48 2.971-.551 1.687-.077 2.193-.093 6.465-.093s4.778.016 6.466.094c1.56.071 2.407.332 2.971.551a4.969 4.969 0 0 1 1.84 1.197 4.944 4.944 0 0 1 1.197 1.84c.219.564.48 1.411.551 2.971.077 1.687.093 2.193.093 6.465s-.016 4.778-.093 6.466z"/>
      <path d="M16 7.783a8.216 8.216 0 1 0 0 16.432 8.216 8.216 0 0 0 0-16.432zm0 13.55a5.334 5.334 0 1 1 .001-10.667A5.334 5.334 0 0 1 16 21.333zM26.461 7.459a1.92 1.92 0 1 1-3.841-.001 1.92 1.92 0 0 1 3.841.001z"/>
    </symbol>
    <symbol id="icon-loupe" viewBox="0 0 32 32">
      <path fill="#eb0000" style="fill:var(--color2, #eb0000)" d="m31.805 29.919-9.296-9.296a12.603 12.603 0 0 0 2.824-7.957c0-6.984-5.682-12.667-12.667-12.667S-.001 5.681-.001 12.666c0 6.984 5.682 12.667 12.667 12.667 3.013 0 5.78-1.061 7.957-2.824l9.296 9.296c.261.26.682.26.943 0l.943-.943a.668.668 0 0 0 0-.943zm-19.138-7.252c-5.514 0-10-4.486-10-10s4.486-10 10-10 10 4.486 10 10-4.486 10-10 10z"/>
    </symbol>
    <symbol id="icon-loupe-plus" viewBox="0 0 32 32">
      <path fill="#fff" style="fill:var(--color1, #fff)" d="m31.768 30.636-6.635-6.633c5.061-5.649 4.879-14.364-.55-19.791-5.553-5.546-14.525-5.626-20.176-.18s-5.901 14.412-.561 20.163c5.34 5.751 14.302 6.169 20.154.941l6.635 6.633a.8.8 0 0 0 1.133-1.132zm-8.317-7.182c-4.994 4.993-13.121 4.993-18.114 0C.312 18.477.274 10.369 5.252 5.345S18.341.283 23.367 5.261l.084.084c4.994 4.993 4.994 13.116 0 18.109zm-3.454-9.057a.8.8 0 0 1-.8.8h-4.004V19.2a.8.8 0 1 1-1.601 0v-4.003H9.591a.8.8 0 1 1 0-1.6h4.001V9.598a.8.8 0 0 1 1.601 0v3.999h4.004a.8.8 0 0 1 .8.8z"/>
    </symbol>
    <symbol id="icon-mail" viewBox="0 0 43 32">
      <path fill="#fff" style="fill:var(--color1, #fff)" opacity=".35" d="M43.429 3.81c0-.471-.094-.916-.245-1.333-.002-.004.001-.009-.001-.013l-.007-.013a3.818 3.818 0 0 0-.519-.947c-.025-.034-.051-.064-.078-.097A3.678 3.678 0 0 0 40.747.162 3.535 3.535 0 0 0 39.741 0H3.69c-.351 0-.684.067-1.005.162A3.678 3.678 0 0 0 .855 1.4c-.029.037-.059.071-.087.109a3.8 3.8 0 0 0-.513.934l-.011.02c-.003.007.001.014-.001.02a3.869 3.869 0 0 0-.244 1.328v24.377c0 .469.093.913.244 1.328.003.007-.001.015.001.022s.009.014.012.022c.127.337.301.646.511.929.029.04.06.075.091.114a3.673 3.673 0 0 0 1.827 1.235c.322.095.654.162 1.005.162h36.051c.351 0 .683-.067 1.005-.162a3.673 3.673 0 0 0 1.829-1.242c.028-.035.056-.067.082-.103.213-.287.388-.6.516-.942.002-.006.006-.009.008-.015s-.001-.01.001-.015a3.87 3.87 0 0 0 .245-1.333V3.811zM29.453 16l11.99-11.052v22.104L29.453 16zM39.742 2.051c.238 0 .469.054.68.151.013.006.022.018.034.024.193.095.371.224.518.386l.008.013-19.265 17.758L2.447 2.627c.005-.005.007-.012.011-.017a1.71 1.71 0 0 1 .495-.367c.021-.01.036-.03.057-.04.211-.097.442-.151.681-.151h36.051zM1.985 4.949 13.978 16 1.985 27.052V4.949zm1.706 25c-.238 0-.469-.054-.68-.151-.024-.011-.041-.033-.065-.046a1.72 1.72 0 0 1-.486-.361c-.005-.005-.007-.013-.012-.018L15.47 17.372l5.588 5.149c.188.173.424.261.66.261s.472-.087.661-.261l5.584-5.147 13.019 12c-.004.004-.005.01-.009.014-.145.16-.32.285-.51.38-.015.008-.026.022-.041.029a1.627 1.627 0 0 1-.68.151H3.691z"/>
    </symbol>
    <symbol id="icon-mail-opened" viewBox="0 0 32 32">
      <path d="M31.934 31.778a.215.215 0 0 0 .014-.026l.007-.015a.203.203 0 0 0 .011-.026l.006-.017a.198.198 0 0 0 .008-.026l.005-.018.006-.025.003-.02.003-.025.001-.021.001-.018V12.334l-.001-.02-.001-.018-.001-.008-.002-.017-.003-.02-.002-.009a.325.325 0 0 0-.003-.014l-.005-.02a.069.069 0 0 0-.003-.008l-.005-.014-.007-.019-.003-.007-.007-.016a.13.13 0 0 0-.008-.017l-.003-.006a.174.174 0 0 0-.011-.018l-.009-.014-.003-.005-.014-.019-.008-.011-.001-.002-.003-.004-.016-.018-.016-.017L31.85 12l-.022-.019-.004-.003-4.163-3.186V3.656a.458.458 0 0 0-.457-.457h-6.862L16.282.093a.458.458 0 0 0-.555 0l-4.06 3.106H4.805a.458.458 0 0 0-.457.457v5.136L.184 11.978l-.003.003a.695.695 0 0 0-.03.026l-.008.008-.021.022-.012.014-.001.001-.001.001-.012.016-.014.019-.003.005-.003.005-.006.01a.24.24 0 0 0-.02.038l-.002.003-.008.017-.006.016-.004.012a.088.088 0 0 0-.005.015l-.006.021-.003.012-.002.01a.236.236 0 0 0-.004.028l-.002.012-.001.005a.536.536 0 0 0-.002.04V31.542c0 .253.205.457.458.457h31.085a.407.407 0 0 0 .05-.003l.012-.002a.506.506 0 0 0 .038-.007l.013-.003.035-.01.013-.005.033-.014.013-.006a.307.307 0 0 0 .031-.017l.011-.007a.371.371 0 0 0 .032-.023l.008-.006.037-.033.001-.001a.53.53 0 0 0 .032-.035l.002-.002.006-.009c.006-.008.013-.017.018-.026l.008-.013zM.915 13.304l10.81 8.801-10.81 8.496V13.304zm11.547 9.385A6.06 6.06 0 0 0 16 23.822a6.063 6.063 0 0 0 3.537-1.132l10.685 8.396H1.779l10.683-8.397zm7.812-.583 10.811-8.802v17.298l-10.811-8.496zm10.531-9.753-3.148 2.564V9.944l3.148 2.409zM16 1.032l2.833 2.167h-5.666L16 1.032zm10.743 3.082v4.793a.463.463 0 0 0 0 .203v6.551l-7.489 6.098a5.173 5.173 0 0 1-6.447.047.45.45 0 0 0-.131-.104l-7.418-6.041V4.113h21.485zm-22.4 10.803-3.148-2.564 3.148-2.409v4.973zm4.114-7.374c0-.252.205-.457.457-.457h14.171a.457.457 0 1 1 0 .914H8.914a.458.458 0 0 1-.457-.457zm0 3.542c0-.252.205-.457.457-.457h14.171a.457.457 0 1 1 0 .914H8.914a.458.458 0 0 1-.457-.457zm0 3.543c0-.252.205-.457.457-.457h14.171a.457.457 0 1 1 0 .914H8.914a.458.458 0 0 1-.457-.457z"/>
    </symbol>
    <symbol id="icon-map" viewBox="0 0 27 32">
      <path fill="#bebebe" style="fill:var(--color6, #bebebe)" d="M13.601 0C6.101 0 0 6.021 0 13.422c0 7.269 12.611 17.962 13.148 18.413a.698.698 0 0 0 .904 0c.537-.452 13.147-11.144 13.147-18.413C27.199 6.021 21.098 0 13.6 0zm0 30.397c-2.26-1.985-12.206-11.059-12.206-16.974 0-6.642 5.476-12.046 12.206-12.046s12.205 5.404 12.205 12.046c0 5.913-9.944 14.988-12.205 16.974zm0-23.168c-3.461 0-6.276 2.778-6.276 6.194s2.815 6.194 6.276 6.194 6.276-2.778 6.276-6.194-2.815-6.194-6.276-6.194zm0 11.01c-2.691 0-4.881-2.161-4.881-4.817s2.19-4.817 4.881-4.817c2.691 0 4.881 2.161 4.881 4.817s-2.19 4.817-4.881 4.817z"/>
    </symbol>
    <symbol id="icon-medal" viewBox="0 0 21 32">
      <path fill="#e91d25" style="fill:var(--color5, #e91d25)" d="m20.758 12.781-1.8-2.51a.442.442 0 0 1-.027-.47l1.5-2.699a1.511 1.511 0 0 0-1.074-2.223l-3.047-.502a.445.445 0 0 1-.352-.313l-.848-2.97a1.511 1.511 0 0 0-2.331-.812l-2.51 1.8a.442.442 0 0 1-.47.027L7.1.609a1.511 1.511 0 0 0-2.223 1.074L4.375 4.73a.442.442 0 0 1-.313.351l-2.97.848A1.511 1.511 0 0 0 .28 8.26l1.8 2.51a.442.442 0 0 1 .027.47l-1.5 2.699a1.508 1.508 0 0 0 1.073 2.222l2.318.382-2.683 9.486a.536.536 0 0 0 .699.647l2.971-1.093 1.766 3.725a.535.535 0 0 0 .483.306l.045-.002a.536.536 0 0 0 .47-.387l2.297-8.124 1.529 9.915a.534.534 0 0 0 .967.223l1.862-2.682 3.645 3.305a.536.536 0 0 0 .618.072.534.534 0 0 0 .267-.562L16.461 17.52l.199-1.208a.445.445 0 0 1 .313-.352l2.97-.848a1.511 1.511 0 0 0 .812-2.331zM7.109 27.563l-1.365-2.879a.535.535 0 0 0-.668-.273l-2.445.9 2.392-8.458a.388.388 0 0 1 .057.124l.848 2.97a1.516 1.516 0 0 0 .248.499 1.51 1.51 0 0 0 .624.481h.001c.08.033.163.059.248.078l.085.017.044.005c.067.009.135.015.202.015h.016c.031 0 .063-.002.094-.004h.004c.273-.021.537-.117.762-.279l.971-.696-2.121 7.501zm7.564-.207a.534.534 0 0 0-.798.091l-1.446 2.083-1.633-10.588a.441.441 0 0 1 .443-.01l2.699 1.5a1.512 1.512 0 0 0 1.895-.357l1.775 9.943-2.936-2.661zm5.274-13.551a.435.435 0 0 1-.295.278l-2.969.848c-.559.159-.98.633-1.075 1.206l-.502 3.047c-.024.143-.112.262-.243.325s-.278.059-.405-.012l-2.699-1.5a1.515 1.515 0 0 0-1.613.093l-1.239.888-1.27.911a.408.408 0 0 1-.221.082l-.028.001a.4.4 0 0 1-.077-.006l-.026-.005a.43.43 0 0 1-.255-.162.424.424 0 0 1-.072-.146l-.848-2.969a1.511 1.511 0 0 0-.795-.945 1.582 1.582 0 0 0-.197-.078l-.002-.001a1.365 1.365 0 0 0-.21-.05l-.133-.022h-.001l-.004-.001-2.908-.479a.438.438 0 0 1-.313-.648l1.5-2.699a1.515 1.515 0 0 0-.093-1.613l-1.8-2.51c-.085-.118-.106-.264-.058-.401s.155-.238.295-.278l2.97-.848a1.514 1.514 0 0 0 1.075-1.206l.502-3.047c.024-.143.112-.262.243-.325s.278-.059.405.012l2.699 1.5a1.515 1.515 0 0 0 1.613-.093l2.51-1.8c.118-.085.264-.106.401-.058s.238.155.278.295l.848 2.97c.159.558.633.98 1.206 1.075l3.047.502c.143.024.262.112.325.243s.059.278-.012.405l-1.5 2.699a1.515 1.515 0 0 0 .093 1.613l1.8 2.509a.432.432 0 0 1 .058.401z"/>
      <path fill="#fff" style="fill:var(--color1, #fff)" d="M10.667 15.351c-2.782 0-5.046-2.264-5.046-5.046s2.264-5.046 5.046-5.046 5.046 2.264 5.046 5.046a5.052 5.052 0 0 1-5.046 5.046zm0-9.029c-2.196 0-3.982 1.786-3.982 3.982s1.787 3.982 3.982 3.982 3.982-1.786 3.982-3.982a3.987 3.987 0 0 0-3.982-3.982z"/>
    </symbol>
    <symbol id="icon-menu" viewBox="0 0 47 32">
      <path d="M46.545 16c0 .982-.814 1.778-1.818 1.778H1.818C.814 17.778 0 16.982 0 16s.814-1.778 1.818-1.778h42.909c1.004 0 1.818.796 1.818 1.778zM1.818 3.556h42.909c1.004 0 1.818-.796 1.818-1.778S45.731 0 44.727 0H1.818C.814 0 0 .796 0 1.778s.814 1.778 1.818 1.778zm42.909 24.888H1.818C.814 28.444 0 29.24 0 30.222S.814 32 1.818 32h42.909c1.004 0 1.818-.796 1.818-1.778s-.814-1.778-1.818-1.778z"/>
    </symbol>
    <symbol id="icon-percent" viewBox="0 0 34 32">
      <path d="M13.744 9.121c0-3.761-3.083-6.82-6.872-6.82S0 5.36 0 9.121s3.083 6.82 6.872 6.82 6.872-3.059 6.872-6.82zm-2.318 0c0 2.492-2.043 4.519-4.554 4.519s-4.554-2.027-4.554-4.519 2.043-4.519 4.554-4.519 4.554 2.027 4.554 4.519zm14.235-7.449L10.447 31.37a1.158 1.158 0 0 1-1.559.505 1.147 1.147 0 0 1-.508-1.547L23.594.63A1.152 1.152 0 0 1 24.628 0c.18 0 .359.042.524.126a1.146 1.146 0 0 1 .508 1.547zm1.6 14.387c-3.789 0-6.872 3.059-6.872 6.82s3.083 6.82 6.872 6.82 6.872-3.059 6.872-6.82c0-3.76-3.083-6.82-6.872-6.82zm0 11.339c-2.511 0-4.554-2.027-4.554-4.519s2.043-4.519 4.554-4.519 4.553 2.027 4.553 4.519-2.043 4.519-4.553 4.519z"/>
    </symbol>
    <symbol id="icon-phone" viewBox="0 0 32 32">
      <path fill="#fff" style="fill:var(--color1, #fff)" opacity=".35" d="M30.912 21.703c-2.508-1.137-4.469-1.77-7.769-2.506a1.89 1.89 0 0 0-.401-.038c-.432 0-1.644.14-2.063.79l-1.623 2.558c-.249.399-1.204.353-1.897-.157a36.113 36.113 0 0 1-4.044-3.444 36.953 36.953 0 0 1-3.467-4.061c-.34-.467-.501-1.028-.415-1.461.028-.143.096-.336.269-.443l2.548-1.617c.737-.464.886-1.975.751-2.491-.714-2.695-1.7-5.524-2.48-7.69-.269-.736-1.524-1.144-2.29-1.144-.253 0-.482.039-.679.116a16.811 16.811 0 0 0-5.855 3.812C1.041 4.384.604 4.88.16 5.444l-.149.188-.006.24c-.152 6.367 2.721 12.978 7.984 18.241 5.012 5.012 11.455 7.886 17.677 7.886l.706-.011.187-.148c.54-.42 1.05-.87 1.524-1.338a16.88 16.88 0 0 0 3.805-5.849c.36-.917-.197-2.599-.976-2.951zm-.367 2.428a15.414 15.414 0 0 1-3.479 5.352c-.375.372-.78.732-1.205 1.075l-.196.003c-5.842 0-11.915-2.722-16.653-7.459l-.107-.107C4.086 18.176 1.374 12.049 1.44 6.147c.357-.443.711-.838 1.076-1.203a15.405 15.405 0 0 1 5.357-3.486c.001 0 .048-.018.157-.018.392 0 .865.173.936.195.771 2.135 1.742 4.926 2.44 7.557.037.195-.077.814-.127.916l-2.542 1.614c-.474.293-.8.784-.917 1.386-.164.838.079 1.781.667 2.585a38.156 38.156 0 0 0 3.611 4.23 37.62 37.62 0 0 0 4.213 3.589c1.378 1.009 3.279.876 3.966-.24l1.551-2.471c.108-.08.552-.186 1.001-.198 3.192.711 5.082 1.32 7.403 2.358.181.181.406.933.312 1.171z"/>
    </symbol>
    <symbol id="icon-receipt" viewBox="0 0 25 32">
      <path fill="#eb0000" style="fill:var(--color2, #eb0000)" d="M23.997.828a1.524 1.524 0 0 0-1.635.244l-2.119 1.841L17.36.382a1.547 1.547 0 0 0-2.035 0l-2.88 2.529L9.564.382a1.548 1.548 0 0 0-2.036 0L4.644 2.913 2.523 1.072a1.535 1.535 0 0 0-2.14.124A1.471 1.471 0 0 0 0 2.195v27.612c-.005.823.671 1.494 1.509 1.499a1.54 1.54 0 0 0 1.018-.376l2.119-1.841 2.883 2.531a1.547 1.547 0 0 0 2.035 0l2.881-2.529 2.881 2.529a1.548 1.548 0 0 0 2.036 0l2.884-2.531 2.121 1.841a1.536 1.536 0 0 0 2.14-.123c.249-.275.386-.631.383-.999V2.196A1.471 1.471 0 0 0 23.998.83zm-2.744 27.136a1.547 1.547 0 0 0-2.028.005L16.342 30.5l-2.88-2.529a1.547 1.547 0 0 0-2.035 0L8.546 30.5l-2.884-2.531a1.538 1.538 0 0 0-2.022-.005l-2.113 1.841v-3.994L1.519 2.194l2.117 1.841a1.547 1.547 0 0 0 2.028-.005l2.883-2.531 2.88 2.529a1.547 1.547 0 0 0 2.035 0l2.881-2.529 2.884 2.531a1.538 1.538 0 0 0 2.022.005l2.113-1.841v18.981l.008 8.631-2.117-1.841z"/>
      <path style="fill:var(--color3, #000)" d="M20.445 16a.756.756 0 0 1-.764.749H5.207c-.422 0-.763-.335-.763-.749s.342-.749.763-.749h14.474c.422 0 .764.336.764.749zM4.444 11.504c0-.414.342-.749.763-.749h7.603c.422 0 .764.335.764.749s-.342.749-.764.749H5.207a.755.755 0 0 1-.763-.749zM20.445 20.496a.756.756 0 0 1-.764.749H5.207c-.422 0-.763-.335-.763-.749s.342-.749.763-.749h14.474c.422 0 .764.336.764.749z"/>
    </symbol>
    <symbol id="icon-screwdriver" viewBox="0 0 38 32">
      <path fill="#fff" style="fill:var(--color1, #fff)" d="M1.604 23.771h17.504v5.504c0 1.301-1.071 2.359-2.387 2.359H3.991c-1.314 0-2.387-1.058-2.387-2.359v-5.504zm36.6-18.084a.79.79 0 0 1-.796.786h-5.873l-.931 1.841a2.378 2.378 0 0 1-2.136 1.304h-3.662l-2.691.885c-1.381.456-2.82.687-4.277.687h-2.821l-.132.838a.773.773 0 0 1 .438-.028.785.785 0 0 1 .579.953l-.796 3.145a.79.79 0 0 1-.943.576l-.539 3.469 4.852 2.055H2.135l2.71-2.01 1.402-8.998H2.401c-1.314 0-2.387-1.058-2.387-2.359v-6.29C.014 1.24 1.087.182 2.401.182h15.44c1.458 0 2.896.231 4.277.687l2.691.885h3.662c.909 0 1.728.5 2.136 1.304l.931 1.841h5.872c.439 0 .796.352.796.786zM9.561 7.259a.79.79 0 0 0-.796-.786H3.991c-.439 0-.796.352-.796.786s.356.786.796.786h4.774a.792.792 0 0 0 .796-.786zm0-3.145a.79.79 0 0 0-.796-.786H3.991c-.439 0-.796.352-.796.786s.356.786.796.786h4.774a.792.792 0 0 0 .796-.786zm15.913 0c0-.434-.356-.786-.796-.786s-.796.352-.796.786v3.145c0 .434.356.786.796.786s.796-.352.796-.786V4.114z"/>
    </symbol>
    <symbol id="icon-arrow" viewBox="0 0 18 32">
      <path d="M.38 15.122 15.796.362c.505-.483 1.323-.482 1.827.003s.503 1.27-.003 1.754L3.122 16.001l14.499 13.882c.505.484.506 1.269.003 1.754-.253.243-.584.365-.915.365s-.66-.121-.912-.362L.381 16.88c-.243-.232-.38-.549-.38-.878s.137-.645.38-.878z"/>
    </symbol>
    <symbol id="icon-stars" viewBox="0 0 197 32">
      <path fill="#ffd15b" style="fill:var(--color9, #ffd15b)" d="m70.723 12.849-7.352 7.26 1.736 10.251-9.088-4.84-9.088 4.84 1.736-10.251-7.352-7.26 10.16-1.496 4.544-9.327 4.544 9.327 10.16 1.496zm-51.475-1.496-4.544-9.327-4.544 9.327L0 12.849l7.352 7.26L5.616 30.36l9.088-4.84 9.088 4.84-1.736-10.251 7.352-7.26-10.16-1.496zm169.02 9.069L190.228 32l-10.263-5.466L169.702 32l1.96-11.578-8.303-8.2 11.475-1.689 5.132-10.534 5.132 10.534 11.475 1.689-8.304 8.2zm-.392 8.299-1.511-8.925 6.401-6.32-8.845-1.302-3.956-8.12-3.956 8.12-8.845 1.302 6.401 6.32-1.511 8.925 7.912-4.214 7.912 4.214zm-44.683-17.368-4.544-9.327-4.544 9.327-10.16 1.496 7.352 7.26-1.736 10.251 9.088-4.84 9.088 4.84-1.736-10.251 7.352-7.26-10.16-1.496zm-41.315 0-4.544-9.327-4.544 9.327-10.16 1.496 7.352 7.26-1.736 10.251 9.088-4.84 9.088 4.84-1.736-10.251 7.352-7.26-10.16-1.496z"/>
    </symbol>
    <symbol id="icon-telegram" viewBox="0 0 32 32">
      <path fill="#00b6ef" style="fill:var(--color10, #00b6ef)" d="M30.817.069.556 13.477c-.747.331-.74 1.545.009 1.867l7.373 3.161 2.854 10.542c.183.675.902.925 1.379.477l4.11-3.848a1.104 1.104 0 0 1 1.495-.048l7.413 6.182c.51.426 1.233.105 1.361-.603l5.43-30.002c.14-.774-.522-1.419-1.164-1.134zm-5.771 7.016L13.153 19.782a2.989 2.989 0 0 0-.764 1.694l-.405 3.448c-.054.461-.617.506-.727.06l-1.558-6.288c-.178-.717.082-1.483.634-1.875l14.41-10.194c.259-.183.526.22.303.457z"/>
    </symbol>
    <symbol id="icon-trolley" viewBox="0 0 33 32">
      <path fill="#bebebe" style="fill:var(--color6, #bebebe)" d="M13.705 19.474 11.288 5.028l21.743 3.946v10.835l-19.326-.335zm17.981 2.797H11.572L7.216 0H1.648C.737 0 0 .781 0 1.744s.738 1.742 1.648 1.742h2.885l4.356 22.271h22.797c.91 0 1.648-.781 1.648-1.743s-.738-1.743-1.648-1.743zM13.638 27.35c-1.213 0-2.196 1.042-2.196 2.326s.983 2.325 2.196 2.325c1.214 0 2.197-1.041 2.197-2.325s-.983-2.326-2.197-2.326zm13.399 0c-1.213 0-2.196 1.042-2.196 2.326s.983 2.325 2.196 2.325 2.198-1.041 2.198-2.325-.984-2.326-2.198-2.326z"/>
    </symbol>
    <symbol id="icon-truck" viewBox="0 0 67 32">
      <path fill="#e91d25" style="fill:var(--color5, #e91d25)" d="M55.382 5.181h-7.326V2.086C48.056.936 47.12 0 45.97 0H21.882c-1.15 0-2.086.936-2.086 2.086v21.55c0 1.15.936 2.086 2.086 2.086h2.827c.085 2.986 2.538 5.389 5.544 5.389s5.459-2.403 5.544-5.389h15.107c.085 2.986 2.538 5.389 5.544 5.389s5.46-2.403 5.544-5.389h1.922c1.15 0 2.086-.936 2.086-2.086v-7.835c0-5.855-4.764-10.619-10.619-10.619zM21.3 23.636V2.086c0-.321.261-.582.582-.582H45.97c.321 0 .582.261.582.582v22.132H35.636a5.476 5.476 0 0 0-.728-1.674l-.001-.001v-.001l-.008-.012-.002-.002-.001-.001a6.776 6.776 0 0 0-.12-.175l-.001-.001-.002-.003-.001-.001-.018-.025-.001-.001-.001-.002a5.25 5.25 0 0 0-.126-.168l-.026-.032-.001-.001-.001-.001a4.652 4.652 0 0 0-.126-.153l-.001-.002-.031-.036a3.695 3.695 0 0 0-.136-.151l-.001-.001-.037-.039a8.914 8.914 0 0 0-.136-.139s0 0-.001-.001l-.04-.038a5.84 5.84 0 0 0-.142-.132l-.001-.001-.038-.033h-.002a6.033 6.033 0 0 0-.147-.125l-.002-.002-.003-.002-.001-.001-.001-.001-.025-.02-.001-.001a5.454 5.454 0 0 0-.535-.381l-.007-.005-.038-.024h-.002a3.949 3.949 0 0 0-.11-.064l-.022-.013-.022-.013-.068-.039-.001-.001a3.212 3.212 0 0 0-.101-.053l-.021-.011h-.001l-.019-.01c-.029-.015-.059-.031-.089-.045h-.001a3.498 3.498 0 0 0-.107-.05l-.011-.005h-.001l-.117-.053h-.001c-.038-.017-.077-.032-.116-.048h-.001l-.126-.05-.115-.042h-.004l-.131-.044a16.59 16.59 0 0 0-.116-.036l-.139-.04-.114-.03-.146-.034-.008-.002-.105-.022h-.001l-.154-.028h-.001l-.024-.004-.085-.014a4.424 4.424 0 0 0-.166-.021l-.024-.003-.076-.009h-.001a6.01 6.01 0 0 0-.189-.015h-.001l-.018-.001-.061-.004h-.001c-.001 0 0 0 0 0a5.646 5.646 0 0 0-.552 0h-.001l-.061.004-.018.001c-.063.004-.127.008-.189.015h-.002l-.076.009-.025.003a4.424 4.424 0 0 0-.166.021 2.153 2.153 0 0 0-.085.014l-.024.004a7.024 7.024 0 0 0-.154.028l-.102.022-.011.002a6.152 6.152 0 0 0-.145.034l-.114.03h-.002l-.137.039h-.001a3.425 3.425 0 0 0-.248.081l-.117.042a6.454 6.454 0 0 0-.125.049l-.117.049h-.002l-.111.05-.006.003-.013.006-.105.05-.001.001-.001.001-.084.043-.021.011h-.001c-.001 0 0 0 0 0l-.021.011-.101.053a1.588 1.588 0 0 0-.07.04l-.022.013-.021.012a3.973 3.973 0 0 0-.11.065l-.043.027a6.74 6.74 0 0 0-.088.057l-.052.033-.08.055-.057.039a5.198 5.198 0 0 0-.262.199l-.027.021-.002.002c-.051.041-.1.084-.149.127l-.038.033a5.84 5.84 0 0 0-.142.132l-.041.04v.001a5.8 5.8 0 0 0-.135.137l-.037.039-.001.001-.001.001a5.738 5.738 0 0 0-.129.143h-.001l-.001.001-.034.04-.001.001a9.435 9.435 0 0 0-.127.154l-.027.035a6.635 6.635 0 0 0-.126.167l-.018.026-.001.001a4.11 4.11 0 0 0-.119.174l-.001.002-.002.003-.001.002v.001l-.008.012-.001.001a5.473 5.473 0 0 0-.729 1.675h-2.989a.583.583 0 0 1-.582-.582zm6.401-1.21zm2.553 7.181a4.05 4.05 0 0 1-4.013-4.547 4.004 4.004 0 0 1 .619-1.698v-.001l.006-.009c.029-.045.06-.09.091-.133v-.001l.001-.001.014-.02.092-.122.02-.026c.03-.038.061-.076.093-.113v-.001l.024-.027.001-.001.001-.001c.031-.036.063-.072.096-.106l.028-.029.099-.101.03-.029c.034-.032.068-.065.103-.096l.029-.025a4.95 4.95 0 0 1 .11-.094l.018-.015a4.646 4.646 0 0 1 .396-.281l.001-.001.029-.019.073-.043.024-.014.03-.017.036-.021.066-.035.023-.012.025-.013.053-.027h.002l.073-.034.014-.006.006-.003.079-.036.085-.035.092-.036.085-.031.096-.032.085-.026a2.917 2.917 0 0 1 .184-.05 3.35 3.35 0 0 1 .107-.025l.011-.002.071-.015.112-.02.028-.005.052-.009.12-.015.037-.004.037-.004c.046-.005.092-.008.139-.01l.06-.004a3.85 3.85 0 0 1 .402 0l.058.004h.002l.139.01h.001a.437.437 0 0 1 .038.005l.035.004c.041.005.081.009.121.015a.9.9 0 0 0 .051.008l.027.005.113.02.073.016.008.002.107.024.083.022.102.029.084.026.096.032h.002l.084.03.091.036h.001l.085.035c.029.012.057.026.085.039l.012.006.074.035.057.029.022.011.023.012.066.035h.001l.036.021.031.018.024.014.071.041.034.022a4.19 4.19 0 0 1 .395.281l.017.014.111.094.029.025c.035.031.069.064.103.096l.031.029.099.1.029.03c.033.035.065.07.096.106l.003.003.02.024.001.001.001.001.093.112.02.026.001.001c.032.04.063.081.093.123l.011.015.001.001.001.002a10.407 10.407 0 0 1 .097.142v.001l.072.117a3.973 3.973 0 0 1 .548 1.583 4.05 4.05 0 0 1-4.013 4.546zm26.195 0a4.05 4.05 0 0 1-4.013-4.545 3.998 3.998 0 0 1 .619-1.7l.001-.002.001-.002.002-.003.002-.003c.029-.045.06-.09.091-.133l.001-.001c.001 0 0 0 0 0l.014-.02.091-.122.021-.026c.03-.038.061-.076.093-.113s.001 0 .001-.001l.021-.024.003-.004c.031-.036.063-.072.096-.107l.027-.028.001-.001.001-.001c.032-.034.065-.068.099-.101l.03-.029.104-.097.029-.025c.036-.032.073-.064.111-.094l.019-.015a4.561 4.561 0 0 1 .391-.279l.035-.023.07-.041.026-.015.031-.018a2.149 2.149 0 0 1 .103-.055l.022-.011.018-.009.061-.031.072-.034.014-.006c.029-.013.057-.027.087-.039l.085-.035h.001l.091-.036.085-.031.096-.032h.001l.084-.026.102-.029.082-.021c.035-.009.071-.017.106-.024l.016-.004.066-.014.112-.02h.001l.026-.004.053-.009h.001c.04-.006.081-.011.121-.015h.001l.035-.004a.49.49 0 0 1 .038-.004h.001c.046-.005.092-.008.139-.011l.06-.004a3.85 3.85 0 0 1 .402 0l.06.004.139.01h.001a.437.437 0 0 1 .038.005l.035.004c.041.005.081.009.121.015a.9.9 0 0 0 .051.008l.028.005.113.02h.001l.073.015.008.002.107.024.083.022.101.029.084.026.096.032.085.031.091.036.085.035c.029.012.057.026.085.039h.002l.009.004.077.036.057.029.022.011h.001l.017.009.072.038.036.021.031.018.022.012.073.043.031.02.001.001.002.001c.136.085.268.179.393.28l.001.001.017.014c.038.03.074.062.11.094l.001.001.001.001.029.025a2.314 2.314 0 0 1 .104.098l.028.027.001.001c.034.033.067.067.099.101l.027.028c.033.035.065.071.097.108l.024.028c.032.037.063.075.094.114l.019.024.001.001c.032.04.062.081.093.123l.013.018v.001a6.334 6.334 0 0 1 .095.138l.003.005a4 4 0 0 1 .62 1.7 4.05 4.05 0 0 1-4.013 4.545zm8.049-5.971a.583.583 0 0 1-.582.582h-2.084a5.493 5.493 0 0 0-.724-1.668l-.001-.001-.003-.005-.001-.002-.007-.011v-.001c0-.001 0 0 0 0l-.001-.002-.001-.001a5.7 5.7 0 0 0-.123-.18l-.001-.001-.001-.001-.017-.024a5.25 5.25 0 0 0-.126-.168h-.001l-.026-.033-.001-.001a4.851 4.851 0 0 0-.129-.156l-.001-.001c-.001-.001 0 0 0 0l-.033-.039c-.043-.049-.086-.098-.131-.145l-.001-.001-.038-.04a8.914 8.914 0 0 0-.136-.139l-.001-.001-.032-.031-.009-.009-.001-.001a5.67 5.67 0 0 0-.14-.13l-.001-.001-.001-.001a.695.695 0 0 0-.03-.026l-.007-.006-.001-.001a6.059 6.059 0 0 0-.153-.131l-.002-.001-.023-.018a5.516 5.516 0 0 0-.532-.379l-.002-.001-.007-.004-.041-.026h-.002c-.037-.023-.074-.044-.111-.065l-.02-.011-.023-.013-.069-.039a3.602 3.602 0 0 0-.107-.056l-.035-.018c-.029-.015-.059-.031-.089-.045a5.53 5.53 0 0 0-.111-.052l-.007-.003a4.789 4.789 0 0 0-.362-.152h-.001a2.698 2.698 0 0 0-.116-.042l-.131-.044-.115-.036-.14-.04-.114-.03-.146-.034-.008-.002-.105-.022-.154-.028h-.001l-.024-.004-.085-.014a4.424 4.424 0 0 0-.166-.021h-.001l-.025-.003-.076-.009h-.001a6.2 6.2 0 0 0-.192-.015l-.018-.001a1.172 1.172 0 0 0-.061-.004h-.001a5.646 5.646 0 0 0-.552 0h-.001l-.061.004-.019.001h-.001c-.063.004-.126.008-.189.015h-.001l-.077.009-.024.003c-.056.007-.112.013-.167.021l-.086.014-.023.004-.154.028c-.033.006-.065.014-.097.021l-.015.003h-.001c-.001 0 0 0 0 0l-.146.034h-.001a2.395 2.395 0 0 0-.114.03h-.001l-.138.039h-.001a16.59 16.59 0 0 0-.116.036h-.001l-.13.044h-.001l-.116.042h-.001l-.127.05h-.001l-.116.048h-.001l-.118.053-.014.006-.105.049a4.055 4.055 0 0 0-.093.047l-.035.018-.102.054h-.001l-.069.039-.023.013h-.001l-.023.013c-.036.021-.072.041-.107.063h-.002l-.041.026-.005.003a5.676 5.676 0 0 0-.535.381l-.001.001-.026.02a4.663 4.663 0 0 0-.151.129l-.008.007-.032.028-.001.001a4.335 4.335 0 0 0-.14.131l-.001.001-.001.001-.041.039c-.045.044-.09.09-.133.136l-.002.003-.038.039-.001.001-.001.001a9.012 9.012 0 0 0-.131.145l-.001.002-.001.001-.033.038-.001.001c-.043.05-.085.101-.126.153l-.028.035a5.25 5.25 0 0 0-.126.168l-.019.026-.001.001-.001.001c-.042.059-.084.12-.124.181l-.001.002-.001.001-.009.015v.001l-.002.003a5.458 5.458 0 0 0-.724 1.668h-3.01V6.685h7.326c5.026 0 9.116 4.089 9.116 9.116v7.835z"/>
      <path fill="#fff" style="fill:var(--color1, #fff)" d="M16.759 23.769H.752a.752.752 0 0 0 0 1.504h16.007a.752.752 0 0 0 0-1.504zM16.759 17.714H4.754a.752.752 0 0 0 0 1.504h12.005a.752.752 0 0 0 0-1.504zM16.759 11.66H8.756a.752.752 0 0 0 0 1.504h8.003a.752.752 0 0 0 0-1.504z"/>
    </symbol>
    <symbol id="icon-truck-2" viewBox="0 0 45 32">
      <path fill="#eb0000" style="fill:var(--color2, #eb0000)" d="m43.651 14.402-3.15-1.385-2.655-5.249a3.935 3.935 0 0 0-3.57-2.204h-4.695V4.093C29.581 1.836 27.792 0 25.593 0H3.968C1.78 0 0 1.836 0 4.093v19.888c-.019 1.336 1.034 2.436 2.348 2.455h.746v.173c0 .065-.004.109-.007.145a.608.608 0 0 0-.003.061 5.193 5.193 0 0 0 .337 1.826 2.166 2.166 0 0 1 1.472-.964 3.455 3.455 0 0 1-.111-.831c0-.506.114-.983.307-1.416-.532-.369-.912-1.025-.973-1.695a5.012 5.012 0 0 0-.54.905l-.046.101H2.386c-.398 0-.698-.318-.698-.74v-5.48h26.205v6.22H12.825l-.046-.101a5.073 5.073 0 0 0-.317-.586c-.021.042-.022.084-.047.126-.262.447-.75.809-1.29.986.277.499.448 1.066.448 1.679 0 .556-.143 1.075-.374 1.54.545.451.788 1.178.732 1.89a5.15 5.15 0 0 0 1.319-3.421v-.051c0-.069 0-.095-.009-.189l-.019-.19h17.835v.379c-.001.145.029.284.04.427.285-.15.583-.276.92-.401.272-.101.521-.131.759-.13a3.481 3.481 0 0 1 .48-1.633 2.477 2.477 0 0 1-1.267-1.203 5.155 5.155 0 0 0-.441.777l-.046.1H29.58V14.502h10.146l3.266 1.461a.78.78 0 0 1 .419.715v7.323c0 .422-.3.74-.698.74h-1.914l-.046-.1c-.11-.239-.25-.451-.39-.664-.239.391-.574.72-1.004.903-.118.05-.239.067-.359.102.342.538.546 1.176.546 1.863 0 .119-.023.232-.035.348a2.477 2.477 0 0 1 1.457 1.169c.15-.483.254-.986.256-1.518v-.43h1.479c1.316 0 2.386-1.087 2.386-2.424v-7.357c.019-.946-.559-1.842-1.439-2.232zm-15.757 2.405H1.689V4.104c0-1.311 1.023-2.378 2.28-2.378h21.625c.62.005 1.2.256 1.635.705s.67 1.04.665 1.665v12.712zm1.688-4.019V7.29h4.694a2.294 2.294 0 0 1 2.078 1.257l2.157 4.241h-8.93z"/>
      <path style="fill:var(--color3, #000)" d="M8.169 21.66c-2.807 0-5.082 2.312-5.082 5.165s2.275 5.165 5.082 5.165 5.082-2.312 5.082-5.165c0-2.852-2.275-5.165-5.082-5.165zm0 8.625c-1.88 0-3.404-1.549-3.404-3.46s1.524-3.459 3.404-3.459 3.404 1.549 3.404 3.459c0 1.911-1.524 3.46-3.404 3.46zM36.152 21.66c-2.807 0-5.082 2.312-5.082 5.165s2.275 5.165 5.082 5.165 5.082-2.312 5.082-5.165-2.275-5.165-5.082-5.165zm0 8.625c-1.88 0-3.404-1.549-3.404-3.46s1.524-3.459 3.404-3.459 3.404 1.549 3.404 3.459-1.524 3.46-3.404 3.46z"/>
    </symbol>
    <symbol id="icon-viber" viewBox="0 0 29 32">
      <path fill="#6147fc" style="fill:var(--color11, #6147fc)" d="M17.396 13.398c-.265-.01-.409-.179-.438-.453-.021-.2-.037-.403-.081-.598-.087-.384-.276-.74-.574-.975a1.455 1.455 0 0 0-.468-.244c-.213-.066-.433-.048-.646-.104a.427.427 0 0 1-.322-.496.423.423 0 0 1 .439-.362c1.343.105 2.303.856 2.44 2.566.01.121.021.248-.004.364-.04.188-.164.285-.29.303.01 0 .008.001-.02.003-.164.003-.1 0-.037-.002zm1.973 4.417c-.419-.323-.84-.642-1.274-.939s-.95-.293-1.353.064c-.413.365-.603 1.063-1.192 1.138-.352.044-.658-.116-.963-.253-1.907-.858-3.069-2.451-3.758-4.5a.976.976 0 0 1 .056-.8c.076-.134.181-.234.292-.332.127-.113.25-.23.386-.33.559-.411.644-1.148.335-1.752-.502-.981-1.121-1.871-1.796-2.717-.312-.392-.733-.52-1.16-.298A4.354 4.354 0 0 0 7.497 8.27c-.419.537-.816 1.274-.546 1.986.296.782.586 1.569.931 2.326.726 1.597 1.586 3.105 2.684 4.442 1.931 2.35 4.369 3.883 7.017 5.071.256.115.531.179.82.273.251-.084.517-.125.74-.255.789-.458 1.335-1.176 1.711-2.038.205-.471.08-.926-.284-1.273-.379-.361-.788-.671-1.199-.987zM14.332 6.111c.194.007 3.318.1-.009 0-.067 0-.134-.004-.201 0a.445.445 0 0 0-.417.515c.055.333.379.349.627.377.391.044.787.064 1.174.139 2.569.495 4.627 2.804 4.986 5.595.068.529.093 1.064.128 1.597.018.269.143.521.421.517.269-.004.41-.259.391-.529-.046-.641-.083-1.286-.187-1.917-.609-3.7-3.45-6.185-6.911-6.294zm13.659 14.292-.009.037c-.691 3.019-3.805 6.26-6.664 6.934l-.032.007a34.457 34.457 0 0 1-6.97.715c-.685 0-1.371-.023-2.056-.064l-3.158 3.55c-.782.88-2.157.281-2.157-.939v-3.371c-2.753-.85-5.635-3.941-6.297-6.832l-.008-.037a31.847 31.847 0 0 1 0-12.71l.008-.037C1.34 4.637 4.454 1.397 7.313.722l.033-.007a34.307 34.307 0 0 1 13.94 0l.032.007c2.86.674 5.974 3.914 6.664 6.934l.009.037a31.847 31.847 0 0 1 0 12.71zM25.492 8.305c-.461-1.97-2.825-4.419-4.704-4.871a31.96 31.96 0 0 0-12.945 0c-1.879.453-4.242 2.902-4.704 4.871a28.886 28.886 0 0 0 0 11.487c.462 1.97 2.826 4.419 4.704 4.871h.001a.19.19 0 0 1 .145.188v5.584c0 .279.315.416.494.215l2.453-2.722 2.306-2.559a.167.167 0 0 1 .131-.057 31.993 31.993 0 0 0 7.415-.648c1.879-.452 4.243-2.901 4.704-4.871a28.886 28.886 0 0 0 0-11.487zm-6.72 5.127c0 .121.006.249.042.362.121.38.649.332.741-.044.025-.104.028-.213.034-.26-.014-.257-.022-.452-.036-.647-.006-.079-.023-.157-.034-.235-.24-1.735-1.061-3.034-2.498-3.857-.707-.405-1.475-.591-2.27-.639-.242-.015-.404.158-.415.398-.011.256.117.422.357.458.198.03.398.051.595.087a4.45 4.45 0 0 1 1.31.435 4.06 4.06 0 0 1 1.643 1.667c.37.69.53 1.483.531 2.277z"/>
    </symbol>
    <symbol id="icon-vk" viewBox="0 0 60 32">
      <path fill="#007aeb" style="fill:var(--color12, #007aeb)" d="M60.085 29.998c-3.105-3.562-6.4-6.623-9.531-10.166-1.631-1.846-1.068-2.047-.165-3.364 2.784-4.059 5.637-8.429 8.278-12.452 1.185-1.806.797-2.518-1.069-2.518h-8.276c-2.189 0-2.429-.329-3.909 2.349-2.683 4.855-5.899 11.115-10.283 11.484.026-4.434.054-8.55.08-12.984C35.217 1.156 34.994 0 32.788 0h-8.612c-2.499 0-3.859 1.169-3.783 1.887.15 1.395 2.833-.343 2.833 3.531v9.913c-3.245.475-7.489-6.96-10.541-12.008-.845-1.398-.794-1.826-3.57-1.826H1.661c-1.333 0-2.223.405-1.252 2.234 4.932 9.295 16.089 28.252 25.97 28.252h6.951c1.697 0 2.168-.77 2.168-1.836v-5.615c3.73.357 6.199 3.027 8.854 5.711 1.7 1.719 2.24 1.756 3.648 1.756 3.523 0 7.045-.005 10.567-.008 1.981-.002 2.22-1.189 1.518-1.994z"/>
    </symbol>
    <symbol id="icon-wallet" viewBox="0 0 38 32">
      <path fill="#e91d25" style="fill:var(--color5, #e91d25)" d="M36.076 0H1.744C.782 0 0 .782 0 1.744v28.433c0 .962.782 1.744 1.744 1.744h34.332c.962 0 1.744-.783 1.744-1.744V1.744C37.82.782 37.038 0 36.076 0zM26.07 20.39c-.39 0-.662-.237-.662-.449v-7.96c0-.212.272-.449.662-.449h10.414v8.859H26.07zm10.006 10.195H1.744a.414.414 0 0 1-.408-.408V1.744c0-.221.187-.408.408-.408h34.332c.221 0 .408.187.408.408v8.451H26.07c-1.102 0-1.999.801-1.999 1.786v7.96c0 .985.897 1.785 1.999 1.785h10.414v8.451a.414.414 0 0 1-.408.408z"/>
      <path fill="#fff" style="fill:var(--color1, #fff)" d="M30.945 13.062c-1.599 0-2.899 1.301-2.899 2.899s1.301 2.899 2.899 2.899c1.599 0 2.899-1.301 2.899-2.899s-1.301-2.899-2.899-2.899zm0 4.462c-.862 0-1.563-.701-1.563-1.563s.701-1.563 1.563-1.563 1.563.701 1.563 1.563-.701 1.563-1.563 1.563z"/>
    </symbol>
    <symbol id="icon-wallet-2" viewBox="0 0 36 32">
      <path fill="#eb0000" style="fill:var(--color2, #eb0000)" d="m32.934 4.521-.194-.054-.016-.198c-.188-2.394-2.246-4.27-4.684-4.27H4.7C2.108-.001 0 2.076 0 4.629v22.739c0 2.553 2.108 4.63 4.7 4.63h26.964c2.592 0 4.7-2.077 4.7-4.63V8.977c0-2.065-1.41-3.898-3.43-4.457zM1.753 4.63c0-1.601 1.322-2.903 2.947-2.903h23.34c1.37 0 2.58.957 2.877 2.275l.078.346H4.701a4.73 4.73 0 0 0-2.504.715l-.443.276v-.708zM34.61 21.495h-7.719c-1.818 0-3.298-1.458-3.298-3.249s1.479-3.249 3.298-3.249h7.719v6.498zm0-8.226h-7.719c-2.785 0-5.051 2.232-5.051 4.976s2.266 4.976 5.051 4.976h7.719v4.148c0 1.601-1.322 2.903-2.947 2.903H4.699c-1.625 0-2.947-1.302-2.947-2.903V8.978c0-1.601 1.322-2.903 2.947-2.903h26.964c1.625 0 2.947 1.302 2.947 2.903v4.291z"/>
      <path style="fill:var(--color3, #000)" d="M27.324 17.422c.51 0 .924.409.924.911s-.415.911-.924.911c-.51 0-.925-.409-.925-.911s.415-.911.925-.911z"/>
      <path style="fill:var(--color3, #000)" d="M30.28 23.223h6.083v-9.957H34.61v.005h-7.719c-2.785 0-5.051 2.232-5.051 4.976s2.266 4.977 5.051 4.977l3.389-.001zm-6.686-4.975c0-1.792 1.479-3.249 3.298-3.249h7.719v6.498h-7.719c-1.818 0-3.298-1.458-3.298-3.249z"/>
    </symbol>
    <symbol id="icon-whatsapp" viewBox="0 0 32 32">
      <path fill="#00c34e" style="fill:var(--color13, #00c34e)" d="M24.421 21.03c-.607.949-1.568 2.107-2.772 2.396-2.121.51-5.379.012-9.447-3.754-3.521-3.26-4.453-5.975-4.233-8.129.125-1.222 1.151-2.324 2.016-3.05a1.16 1.16 0 0 1 1.805.41l1.304 2.925c.171.385.117.831-.143 1.164l-.662.849a1.113 1.113 0 0 0-.089 1.241c.788 1.36 3.872 4.08 5.338 4.669.423.17.908.066 1.228-.257l.758-.766c.297-.3.735-.415 1.143-.299l3.099.883a1.144 1.144 0 0 1 .655 1.718zm7.571-4.652c-.271 8.634-7.532 15.493-16.241 15.361a16.034 16.034 0 0 1-6.875-1.656l-8.08 1.899a.621.621 0 0 1-.754-.726l1.699-8.179A15.69 15.69 0 0 1 0 15.919C-.026 7.458 6.698.42 15.218.018c9.364-.442 17.065 7.104 16.774 16.36zm-3.464-.508c0-3.319-1.303-6.44-3.669-8.787s-5.512-3.64-8.858-3.64a12.598 12.598 0 0 0-8.859 3.64 12.296 12.296 0 0 0-3.669 8.787 12.2 12.2 0 0 0 1.362 5.641l.554 1.077-1.043 5.021L9.3 26.445l1.125.556c1.74.86 3.617 1.296 5.576 1.296 3.346 0 6.492-1.292 8.859-3.64a12.398 12.398 0 0 0 3.669-8.787z"/>
    </symbol>
    <symbol id="icon-wrenches" viewBox="0 0 32 32">
      <path fill="#fff" style="fill:var(--color1, #fff)" d="M10.939 24.888a5.646 5.646 0 0 1-1.41 5.362 5.359 5.359 0 0 1-4.619 1.569c-.34-.05-.624-.291-.733-.623s-.024-.699.219-.947l1.283-1.308a1.874 1.874 0 0 0 0-2.616c-.686-.699-1.881-.699-2.567 0l-1.283 1.309a.898.898 0 0 1-.929.223.92.92 0 0 1-.611-.747 5.653 5.653 0 0 1 1.54-4.709 5.42 5.42 0 0 1 5.26-1.438l.001.001L20.507 7.289a5.646 5.646 0 0 1 1.41-5.362A5.397 5.397 0 0 1 26.536.358c.34.05.624.291.733.623s.024.699-.219.947l-1.283 1.308a1.874 1.874 0 0 0 0 2.616c.686.699 1.881.699 2.567 0l1.283-1.309a.896.896 0 0 1 .929-.223.92.92 0 0 1 .611.747 5.653 5.653 0 0 1-1.54 4.709 5.409 5.409 0 0 1-5.26 1.438l-.001-.001-13.417 13.675zm20.271 1.438c0 3.06-2.442 5.55-5.445 5.55s-5.445-2.489-5.445-5.55c0-.438.065-.889.202-1.419l-3.517-3.585 3.851-3.924 3.517 3.584c.519-.14.962-.206 1.391-.206 3.002 0 5.445 2.489 5.445 5.549zm-2.702-1.079-1.474-1.502a.888.888 0 0 0-.876-.239l-2.013.55a.92.92 0 0 0-.642.654l-.54 2.052a.935.935 0 0 0 .235.893l1.474 1.502a.891.891 0 0 0 .876.239l2.013-.55a.92.92 0 0 0 .642-.654l.54-2.052a.935.935 0 0 0-.235-.893zM1.827 9.725c-2.122-2.163-2.122-5.684 0-7.848 2.055-2.095 5.643-2.095 7.7 0a5.644 5.644 0 0 1 1.41 5.362l3.502 3.62-3.85 3.924-3.502-3.62a5.402 5.402 0 0 1-5.261-1.437zm1.192-2.688 1.474 1.502a.894.894 0 0 0 .876.239l2.013-.55a.92.92 0 0 0 .642-.654l.54-2.052a.935.935 0 0 0-.235-.893L6.855 3.127a.892.892 0 0 0-.876-.239l-2.013.55a.92.92 0 0 0-.642.654l-.54 2.052a.935.935 0 0 0 .235.893z"/>
    </symbol>
    <symbol id="icon-youtube" viewBox="0 0 48 32">
      <path fill="#eb0000" style="fill:var(--color2, #eb0000)" d="M38.031 0H9.969C4.463 0 0 4.205 0 9.392v13.216C0 27.795 4.463 32 9.969 32h28.062C43.537 32 48 27.795 48 22.608V9.392C48 4.205 43.537 0 38.031 0zm-6.742 16.643L18.163 22.54c-.35.158-.754-.083-.754-.448V9.928c0-.37.414-.61.765-.443L31.3 15.751a.485.485 0 0 1-.011.891z"/>
    </symbol>
  </defs>
</svg>
