<svg aria-hidden="true" style="position: absolute; width: 0; height: 0; overflow: hidden;" version="1.1" xmlns="http://www.w3.org/2000/svg" xmlns:xlink="http://www.w3.org/1999/xlink">
<defs>
<symbol id="icon-angle-grinders" viewBox="0 0 32 32">
<path fill="#fff" style="fill: var(--color1, #fff)" d="M16.739 15.101c0.727 0.727 1.552 1.348 2.453 1.844l-14.475 14.475c-0.24 0.229-0.618 0.229-0.858 0l-3.434-3.435c-0.114-0.114-0.178-0.269-0.178-0.43s0.064-0.316 0.178-0.43l14.477-14.481c0.493 0.902 1.111 1.729 1.837 2.457zM12.016 13.814l-0.858-0.859-0.858 0.859 0.858 0.859 0.858-0.859zM25.165 8.39c0.347-0.348 0.451-0.87 0.263-1.323s-0.631-0.75-1.122-0.75c-0.491 0-0.934 0.296-1.121 0.75s-0.084 0.976 0.263 1.323c0.481 0.459 1.237 0.459 1.717 0zM30.316 13.543c-1.593 1.595-3.756 2.49-6.010 2.487-3.438 0.002-6.538-2.069-7.854-5.246s-0.588-6.835 1.844-9.265c0.054-0.054 0.113-0.1 0.167-0.152l-0.866-0.867c-3.794 3.795-3.794 9.948 0 13.743s9.944 3.795 13.738 0l-0.866-0.867c-0.052 0.055-0.098 0.114-0.152 0.168zM17.171 6.114c0.675-3.408 3.663-5.864 7.136-5.867 1.932-0.003 3.786 0.764 5.151 2.131 2.457 2.455 2.837 6.305 0.909 9.194s-5.628 4.014-8.837 2.686-5.034-4.738-4.359-8.146zM22.957 9.551c0.963 0.644 2.247 0.518 3.066-0.302 0.457-0.455 0.713-1.073 0.711-1.718 0-1.159-0.818-2.157-1.954-2.383s-2.274 0.382-2.718 1.452c-0.443 1.071-0.069 2.306 0.894 2.95z"></path>
</symbol>
<symbol id="icon-arrow" viewBox="0 0 45 32">
<path fill="#eb0000" style="fill: var(--color2, #eb0000)" d="M24.148 25.605l19.936-19.937c0.462-0.461 0.716-1.077 0.716-1.733s-0.254-1.272-0.716-1.733l-1.468-1.468c-0.956-0.955-2.511-0.955-3.466 0l-16.741 16.741-16.76-16.76c-0.461-0.461-1.077-0.716-1.733-0.716s-1.272 0.255-1.734 0.716l-1.467 1.468c-0.461 0.461-0.716 1.077-0.716 1.733s0.254 1.272 0.716 1.733l19.954 19.955c0.463 0.462 1.081 0.716 1.738 0.715 0.66 0.001 1.277-0.252 1.74-0.715z"></path>
</symbol>
<symbol id="icon-box" viewBox="0 0 31 32">
<path fill="#eb0000" style="fill: var(--color2, #eb0000)" d="M30.814 8.317c-0-0.010-0.001-0.020-0.002-0.031-0.002-0.030-0.006-0.059-0.012-0.088-0.001-0.005-0.002-0.011-0.003-0.017-0.004-0.016-0.008-0.032-0.013-0.048-0.002-0.007-0.005-0.015-0.007-0.022-0.005-0.015-0.011-0.030-0.017-0.045-0.003-0.008-0.007-0.015-0.010-0.023-0.010-0.022-0.021-0.043-0.034-0.063-0.007-0.012-0.014-0.023-0.021-0.034-0.006-0.009-0.013-0.018-0.019-0.026-0.009-0.012-0.019-0.024-0.029-0.035-0.006-0.007-0.012-0.014-0.019-0.021-0.013-0.014-0.028-0.028-0.042-0.040-0.004-0.003-0.008-0.007-0.012-0.011-0.020-0.017-0.042-0.033-0.064-0.047-0-0-0.001-0-0.001-0.001-0.001-0.001-0.003-0.002-0.005-0.002-0.015-0.009-0.030-0.019-0.046-0.027l-14.755-7.667c-0.18-0.093-0.393-0.093-0.574 0l-14.775 7.667c-0.016 0.008-0.031 0.018-0.047 0.027-0.001 0.001-0.002 0.001-0.003 0.002l-0.001 0.001c-0.023 0.015-0.045 0.031-0.066 0.049l-0.001 0.001c-0.020 0.017-0.039 0.036-0.057 0.055-0.002 0.002-0.003 0.004-0.005 0.005-0.122 0.135-0.186 0.316-0.175 0.5v14.957c0 0.248 0.134 0.476 0.345 0.591l14.754 8c0.092 0.051 0.195 0.076 0.297 0.076 0.003 0 0.007-0.001 0.010-0.001s0.007 0.001 0.010 0.001c0.101 0 0.204-0.025 0.297-0.076l14.755-8c0.212-0.115 0.345-0.343 0.345-0.591v-15c0-0.005-0.001-0.010-0.001-0.016zM14.756 30.233l-13.471-7.304v-13.518l13.471 7v13.822zM15.407 15.26l-13.329-6.926 13.34-6.922 13.319 6.922-13.33 6.926zM29.531 22.929l-13.471 7.304v-13.822l13.471-7v13.518z"></path>
<path fill="#000" style="fill: var(--color3, #000)" d="M23.814 26.029l-1.303 0.691 0.005-15.044-13.428-6.979 1.413-0.734 13.319 6.922-0.006 15.144z"></path>
</symbol>
<symbol id="icon-cards" viewBox="0 0 40 32">
<path fill="#eb0000" style="fill: var(--color2, #eb0000)" d="M38.975 3.448c-0.514-0.618-1.234-0.996-2.028-1.064l-27.943-2.374c-0.793-0.067-1.565 0.184-2.173 0.707-0.605 0.521-0.976 1.25-1.044 2.053l-0.562 5.367h-2.245c-1.643 0-2.98 1.36-2.98 3.032v17.798c0 1.672 1.337 3.032 2.98 3.032h28.040c1.643 0 2.98-1.36 2.98-3.032v-2.887l0.995 0.085c0.084 0.007 0.167 0.011 0.25 0.011 1.532 0 2.838-1.199 2.968-2.78l1.456-17.736c0.066-0.807-0.181-1.592-0.695-2.211zM32.451 28.968c0 0.802-0.642 1.455-1.43 1.455h-28.040c-0.789 0-1.43-0.653-1.43-1.455v-9.75h30.901v9.75zM32.451 17.64h-30.901v-3.272h30.901v3.272zM32.451 12.791h-30.901v-1.622c0-0.803 0.642-1.455 1.43-1.455h28.040c0.789 0 1.43 0.653 1.43 1.455v1.622zM36.669 23.264c-0.066 0.8-0.759 1.396-1.544 1.329l-1.124-0.096v-13.328c0-1.672-1.337-3.032-2.98-3.032h-24.237l0.546-5.208c0.001-0.006 0.001-0.012 0.002-0.018 0.066-0.8 0.758-1.396 1.544-1.329l27.943 2.374c0.381 0.032 0.726 0.214 0.973 0.51s0.365 0.674 0.333 1.061l-1.456 17.736z"></path>
<path fill="#000" style="fill: var(--color3, #000)" d="M29.208 21.562h-7.459c-0.428 0-0.775 0.353-0.775 0.788v4.951c0 0.436 0.347 0.789 0.775 0.789h7.459c0.428 0 0.775-0.353 0.775-0.789v-4.951c0-0.435-0.347-0.788-0.775-0.788zM28.432 26.513h-5.909v-3.374h5.909v3.374z"></path>
</symbol>
<symbol id="icon-chainsaw" viewBox="0 0 59 32">
<path fill="#fff" style="fill: var(--color1, #fff)" d="M50.108 5.579l0.063-0.127c0.535-1.078 0.478-2.334-0.154-3.358s-1.725-1.636-2.924-1.636h-9.733c-1.313 0-2.492 0.733-3.078 1.913l-1.566 3.154h-7.157c-0.626 0-1.212 0.312-1.562 0.833-0.265 0.394-0.369 0.868-0.304 1.327h-0.71c-0.66 0-1.239 0.341-1.576 0.855h-2.737c-0.337-0.515-0.917-0.855-1.576-0.855h-1.504c-0.66 0-1.239 0.341-1.576 0.855h-2.737c-0.337-0.515-0.917-0.855-1.576-0.855h-1.504c-0.695 0-1.301 0.379-1.628 0.941-1.058 0.166-2.040 0.568-2.89 1.149-0.761-0.356-1.693-0.169-2.251 0.512-0.435 0.531-0.791 1.121-1.057 1.752-0.303 0.718-0.13 1.518 0.374 2.048-0.116 0.511-0.179 1.041-0.179 1.587 0 0.55 0.064 1.084 0.182 1.599-0.504 0.531-0.675 1.331-0.371 2.049 0.267 0.631 0.624 1.22 1.061 1.751 0.373 0.453 0.912 0.688 1.455 0.688 0.272 0 0.544-0.060 0.798-0.179 0.851 0.58 1.833 0.98 2.891 1.143 0.327 0.561 0.933 0.939 1.627 0.939h1.504c0.66 0 1.239-0.341 1.576-0.855h2.737c0.337 0.515 0.917 0.855 1.576 0.855h1.504c0.66 0 1.239-0.341 1.576-0.855h2.737c0.337 0.515 0.917 0.855 1.576 0.855h1.504c0.66 0 1.239-0.341 1.576-0.855h2.737c0.304 0.465 0.806 0.786 1.386 0.845 0.344 0.332 0.808 0.528 1.305 0.528h9.222l2.308 4.488c-0.568 0.567-0.733 1.46-0.346 2.212 0.335 0.652 0.994 1.025 1.677 1.025 0.291 0 0.587-0.068 0.864-0.211l2.196-1.139c0.925-0.48 1.288-1.623 0.81-2.552-0.359-0.698-1.089-1.077-1.822-1.020l-1.441-2.803h4.145c5.122 0 9.289-4.185 9.289-9.329-0-4.808-3.64-8.776-8.296-9.275zM7.668 19.021v0c-1.837 0-3.332-1.501-3.332-3.346s1.495-3.346 3.332-3.346h17.822l2.674 6.692h-20.496zM45.92 5.525h-8.988l0.635-1.279h8.988l-0.635 1.279zM49.226 18.956v-8.203c2.404 0 4.084 1.836 4.084 4.102s-1.679 4.102-4.084 4.102zM10.356 15.675c0 1.065-0.86 1.928-1.92 1.928s-1.92-0.863-1.92-1.928c0-1.065 0.86-1.928 1.92-1.928s1.92 0.863 1.92 1.928z"></path>
</symbol>
<symbol id="icon-check-mark" viewBox="0 0 43 32">
<path fill="#6b6b6b" style="fill: var(--color4, #6b6b6b)" d="M39.233 0l-25.682 25.249-10.118-9.947-3.433 3.375 13.551 13.322 29.116-28.625-3.433-3.375z"></path>
</symbol>
<symbol id="icon-clock" viewBox="0 0 32 32">
<path fill="#fff" style="fill: var(--color1, #fff)" opacity="0.35" d="M16 0c-8.822 0-16 7.178-16 16s7.178 16 16 16c8.822 0 16-7.178 16-16s-7.178-16-16-16zM16 30.933c-8.234 0-14.933-6.699-14.933-14.933s6.699-14.933 14.933-14.933c8.234 0 14.933 6.699 14.933 14.933s-6.699 14.933-14.933 14.933zM18.133 16c0 1.178-0.955 2.133-2.133 2.133-0.993 0-1.82-0.681-2.058-1.6h-6.476c-0.295 0-0.533-0.239-0.533-0.533s0.239-0.533 0.533-0.533h6.476c0.193-0.747 0.777-1.331 1.524-1.524v-10.209c0-0.295 0.239-0.533 0.533-0.533s0.533 0.239 0.533 0.533v10.209c0.918 0.238 1.6 1.065 1.6 2.058z"></path>
</symbol>
<symbol id="icon-cog" viewBox="0 0 33 32">
<path fill="#e91d25" style="fill: var(--color5, #e91d25)" d="M29.876 7.857c-0.087-0.146-0.227-0.251-0.395-0.295s-0.345-0.021-0.497 0.065c-0.15 0.085-0.256 0.222-0.3 0.386-0.043 0.16-0.020 0.328 0.064 0.471 1.291 2.191 1.974 4.689 1.974 7.225 0 7.966-6.6 14.447-14.713 14.447-2.952 0-5.793-0.852-8.216-2.464l-1.042-0.693h2.876c0.358 0 0.649-0.283 0.649-0.63s-0.291-0.63-0.649-0.63h-4.48c-0.358 0-0.649 0.283-0.649 0.63v4.398c0 0.347 0.291 0.63 0.649 0.63s0.649-0.283 0.649-0.63v-2.949l0.603 0.447c2.78 2.061 6.104 3.15 9.61 3.15 4.278 0 8.299-1.635 11.323-4.603 3.023-2.966 4.687-6.91 4.687-11.104 0-2.754-0.742-5.469-2.145-7.851z"></path>
<path fill="#fff" style="fill: var(--color1, #fff)" d="M19.209 15.707c0-1.727-1.435-3.132-3.198-3.132s-3.198 1.405-3.198 3.132c0 1.727 1.435 3.132 3.198 3.132s3.198-1.405 3.198-3.132zM14.109 15.707c0-1.032 0.853-1.872 1.901-1.872s1.901 0.84 1.901 1.872c0 1.032-0.853 1.872-1.901 1.872s-1.901-0.84-1.901-1.873z"></path>
<path fill="#fff" style="fill: var(--color1, #fff)" d="M14.098 23.844h3.825c0.358 0 0.648-0.283 0.648-0.63v-1.431l0.224-0.1c0.386-0.173 0.757-0.384 1.105-0.628l0.196-0.137 1.256 0.712c0.148 0.084 0.329 0.108 0.497 0.064s0.307-0.149 0.394-0.296l1.912-3.251c0.084-0.144 0.107-0.313 0.064-0.474-0.045-0.162-0.151-0.298-0.3-0.382l-1.257-0.712 0.024-0.244c0.020-0.207 0.030-0.418 0.030-0.628s-0.010-0.421-0.030-0.627l-0.024-0.244 1.258-0.713c0.148-0.084 0.255-0.22 0.3-0.383 0.043-0.161 0.021-0.329-0.064-0.474l-1.912-3.251c-0.086-0.146-0.226-0.251-0.394-0.296s-0.345-0.022-0.496 0.064l-1.257 0.713-0.196-0.137c-0.348-0.244-0.72-0.456-1.105-0.628l-0.224-0.1v-1.431c0-0.347-0.291-0.63-0.648-0.63h-3.825c-0.358 0-0.649 0.283-0.649 0.63v1.431l-0.224 0.1c-0.386 0.173-0.758 0.384-1.105 0.628l-0.195 0.137-1.257-0.712c-0.149-0.085-0.33-0.108-0.497-0.064-0.168 0.044-0.308 0.149-0.394 0.296l-1.913 3.251c-0.085 0.144-0.107 0.313-0.064 0.474s0.151 0.298 0.301 0.383l1.257 0.712-0.024 0.244c-0.020 0.21-0.030 0.421-0.030 0.628s0.010 0.418 0.030 0.628l0.024 0.244-1.257 0.712c-0.149 0.085-0.256 0.221-0.3 0.382s-0.021 0.329 0.064 0.474l1.912 3.251c0.086 0.147 0.226 0.252 0.394 0.296s0.346 0.022 0.496-0.064l1.257-0.712 0.196 0.137c0.346 0.243 0.717 0.454 1.104 0.628l0.224 0.1v1.431c0 0.347 0.291 0.63 0.649 0.63zM12.43 19.68c-0.21-0.184-0.516-0.214-0.761-0.075l-1.089 0.617-1.268-2.157 1.092-0.619c0.24-0.136 0.364-0.404 0.309-0.668-0.073-0.349-0.11-0.71-0.11-1.070s0.037-0.721 0.11-1.070c0.055-0.264-0.069-0.533-0.309-0.669l-1.092-0.619 1.269-2.157 1.088 0.617c0.244 0.139 0.55 0.108 0.761-0.075 0.552-0.481 1.183-0.84 1.875-1.066 0.264-0.087 0.442-0.326 0.442-0.597v-1.241h2.527v1.241c0 0.271 0.177 0.511 0.442 0.597 0.692 0.226 1.322 0.585 1.875 1.066 0.21 0.183 0.516 0.213 0.761 0.075l1.089-0.617 1.268 2.157-1.092 0.619c-0.24 0.136-0.364 0.404-0.309 0.669 0.073 0.349 0.11 0.709 0.11 1.070s-0.037 0.721-0.11 1.070c-0.055 0.264 0.069 0.533 0.309 0.669l1.092 0.619-1.269 2.157-1.088-0.617c-0.246-0.139-0.55-0.108-0.761 0.075-0.552 0.481-1.183 0.84-1.875 1.066-0.264 0.086-0.442 0.326-0.442 0.597v1.241h-2.527v-1.241c0-0.271-0.177-0.511-0.441-0.597-0.692-0.226-1.323-0.585-1.875-1.066z"></path>
<path fill="#e91d25" style="fill: var(--color5, #e91d25)" d="M3.272 22.932c-1.291-2.191-1.974-4.689-1.974-7.225 0-7.966 6.6-14.447 14.713-14.447 2.952 0 5.794 0.852 8.217 2.463l1.042 0.693h-2.877c-0.358 0-0.649 0.283-0.649 0.63s0.291 0.63 0.649 0.63h4.48c0.358 0 0.648-0.283 0.648-0.63v-4.397c0-0.347-0.291-0.63-0.648-0.63s-0.648 0.283-0.648 0.63v2.946l-0.603-0.447c-2.78-2.059-6.103-3.148-9.611-3.148-4.278 0-8.299 1.635-11.323 4.603-3.023 2.966-4.687 6.91-4.687 11.104 0 2.755 0.742 5.47 2.145 7.851 0.171 0.291 0.587 0.402 0.892 0.23 0.149-0.085 0.256-0.222 0.299-0.386 0.043-0.16 0.020-0.328-0.065-0.47v-0z"></path>
</symbol>
<symbol id="icon-coupons" viewBox="0 0 37 32">
<path fill="#e91d25" style="fill: var(--color5, #e91d25)" d="M32.11 16.321v-3.335c1.782-1.452 2.437-3.832 1.585-5.908-0.52-1.266-1.522-2.244-2.824-2.753-1.112-0.435-2.327-0.482-3.479-0.144l-1.334-3.252c-0.314-0.764-1.191-1.131-1.955-0.817l-21.8 8.945c-0.369 0.152-0.658 0.439-0.813 0.809s-0.156 0.777-0.005 1.146l1.335 3.252c-2.352 1.268-3.448 4.061-2.452 6.489 0.122 0.298 0.275 0.584 0.456 0.855 0.11 2.525 2.143 4.584 4.726 4.857v3.516c0 0.826 0.672 1.498 1.498 1.498h23.564c0.826 0 1.498-0.672 1.498-1.498v-3.515c2.657-0.28 4.731-2.448 4.731-5.073s-2.074-4.792-4.731-5.072zM3.826 15.187l0.007-0.003c0.012-0.004 0.024-0.009 0.036-0.014 0.157-0.063 0.282-0.186 0.348-0.341s0.067-0.331 0.003-0.487l-1.564-3.811c-0.031-0.076-0.012-0.144 0.002-0.177s0.049-0.094 0.125-0.126l21.8-8.945c0.116-0.048 0.255 0.010 0.303 0.127l1.564 3.811c0.064 0.156 0.188 0.28 0.344 0.345s0.331 0.064 0.487-0.002c0.012-0.005 0.024-0.010 0.035-0.015l0.004-0.002c1.006-0.413 2.103-0.428 3.090-0.042 0.976 0.382 1.727 1.111 2.114 2.054 0.584 1.424 0.214 3.046-0.891 4.154-0.003-0.003-0.005-0.005-0.008-0.008s-0.005-0.005-0.008-0.007c-0.001-0.001-0.001-0.001-0.002-0.002s-0-0-0.001-0.001 0 0-0-0c-0.008-0.008-0.017-0.015-0.025-0.023-0-0-0-0-0-0s-0-0-0-0-0.001-0.001-0.001-0.001-0.002-0.002-0.003-0.002c-0.020-0.017-0.041-0.034-0.063-0.051-0.001-0.001-0.001-0.001-0.002-0.002s-0.001-0.001-0.001-0.001l-0-0c-0-0-0-0-0-0s-0-0-0-0-0-0-0-0l-0-0c-0.008-0.006-0.016-0.012-0.024-0.018-0.004-0.003-0.008-0.006-0.012-0.009l-0-0c-0-0-0.001-0.001-0.001-0.001s-0.001-0.001-0.001-0.001l-0.001-0.001c-0.022-0.016-0.044-0.030-0.067-0.045l-0.001-0c-0.015-0.010-0.031-0.019-0.046-0.028-0.001-0.001-0.002-0.001-0.003-0.002s-0.001-0-0.001-0.001l-0-0c-0-0-0.001-0-0.001-0.001s-0.001-0.001-0.002-0.001-0.002-0.001-0.002-0.001c-0.020-0.011-0.039-0.022-0.059-0.032-0-0-0.001-0.001-0.001-0.001s-0-0-0-0l-0-0c0 0-0-0-0-0s-0-0-0-0c-0.019-0.010-0.038-0.019-0.058-0.028-0-0-0-0-0-0s-0.001-0-0.001-0l-0-0-0-0c0 0-0-0-0-0l-0-0c-0.020-0.009-0.041-0.018-0.061-0.027-0-0-0.001-0-0.001-0.001s-0-0-0.001-0-0-0-0-0-0-0-0-0c-0.023-0.009-0.046-0.018-0.070-0.026-0-0-0-0-0-0s-0.001-0-0.001-0-0-0-0-0-0-0-0-0c-0.019-0.006-0.037-0.013-0.056-0.018-0.001-0-0.002-0.001-0.003-0.001s-0.001-0-0.001-0-0.001-0-0.001-0-0.002-0-0.003-0.001c-0.024-0.007-0.049-0.013-0.073-0.019v0c-0-0-0.001-0-0.001-0l-0 0c-0.002-0.001-0.004-0.001-0.006-0.002-0.017-0.004-0.034-0.008-0.051-0.012 0 0-0-0-0-0l-0-0c-0.028-0.006-0.058-0.010-0.087-0.014-0.001-0-0.003-0.001-0.004-0.001s-0.003-0-0.005-0.001c-0 0-0.001-0-0.001-0s-0 0-0 0c-0.014-0.002-0.028-0.004-0.043-0.005-0.001-0-0.002-0-0.003-0s-0.001 0-0.001 0-0.001-0-0.001-0-0.001 0-0.001 0c-0.049-0.005-0.098-0.007-0.145-0.007h-23.564c-0.826 0-1.498 0.672-1.498 1.498v3.516c-0.85 0.089-1.662 0.373-2.377 0.834-0 0-0.001 0-0.001 0-0.836 0.539-1.481 1.283-1.883 2.136-0.187-1.686 0.813-3.397 2.537-4.105zM31.528 25.231l-0.008-0c-0.012-0-0.024-0.001-0.036-0.001-0.168-0.003-0.332 0.064-0.452 0.183s-0.188 0.281-0.188 0.45v4.119c0 0.126-0.106 0.232-0.232 0.232h-23.564c-0.126 0-0.232-0.106-0.232-0.232v-4.119c0-0.169-0.068-0.331-0.188-0.45-0.119-0.117-0.279-0.183-0.445-0.183-0.002 0-0.005 0-0.007 0-0.012 0-0.024 0-0.036 0.001l-0.005 0c-2.228 0-4.045-1.717-4.050-3.828l-0-0c0-0.003-0-0.007-0-0.010 0 0 0-0.001 0-0.001l-0-0.002c-0-0.001-0-0.002-0-0.003 0.003-1.268 0.666-2.451 1.775-3.166 0 0 0-0 0-0 0.126-0.081 0.256-0.155 0.389-0.222 0.578-0.289 1.222-0.44 1.886-0.44 0 0 0 0 0.001 0s0.001-0 0.001 0 0.001 0 0.001 0 0.001 0 0.002 0c0 0 0 0 0 0 0.006 0 0.012 0 0.018 0s0.012 0 0.018 0c0.002 0 0.005 0 0.007 0 0.167 0 0.326-0.066 0.445-0.183 0.12-0.119 0.188-0.281 0.188-0.45v-4.119c0-0.126 0.106-0.232 0.232-0.232h23.564c0.006 0 0.011 0.001 0.017 0.001l0.011 0.002c0 0 0 0 0.001 0s0 0 0.001 0l0.012 0.002 0.011 0.003v0l0.011 0.003 0.008 0.003c0 0 0 0 0.001 0s0.001 0 0.001 0.001l0.010 0.004 0.010 0.004c0 0 0 0 0 0l0.009 0.004 0.009 0.005c0 0 0.001 0 0.001 0s0.001 0.001 0.002 0.001l0.007 0.004c0.003 0.002 0.006 0.004 0.009 0.006l0.005 0.004 0 0 0.001 0.001c0 0 0 0 0 0s0.001 0.001 0.001 0.001l0.009 0.007c0.002 0.001 0.003 0.003 0.004 0.003s0 0 0 0l0.001 0.001c0 0 0 0 0 0s0 0 0 0 0 0 0.001 0.001l0 0c0.004 0.003 0.008 0.007 0.011 0.010 0 0 0 0.001 0.001 0.001l0 0c0.024 0.025 0.054 0.067 0.062 0.127v0c0 0 0 0 0 0 0.003 0.022 0.003 0.031 0.003 0.032v4.119c0 0.169 0.067 0.331 0.188 0.45s0.281 0.185 0.452 0.183c0.013-0 0.025-0 0.038-0.001l0.004-0c2.233 0 4.050 1.721 4.050 3.837s-1.817 3.837-4.047 3.837z"></path>
<path fill="#fff" style="fill: var(--color1, #fff)" d="M23.449 15.104c-0.282-0.207-0.678-0.146-0.885 0.136l-8.489 11.558c-0.207 0.282-0.146 0.678 0.136 0.885 0.113 0.083 0.244 0.123 0.374 0.123 0.195 0 0.387-0.090 0.511-0.258l8.489-11.558c0.207-0.282 0.146-0.678-0.136-0.885z"></path>
<path fill="#fff" style="fill: var(--color1, #fff)" d="M22.92 21.716c-1.613 0-2.926 1.372-2.926 3.058s1.312 3.058 2.926 3.058c1.613 0 2.926-1.372 2.926-3.058s-1.313-3.058-2.926-3.058zM22.92 26.565c-0.915 0-1.66-0.804-1.66-1.792s0.745-1.792 1.66-1.792c0.915 0 1.66 0.804 1.66 1.792s-0.744 1.792-1.66 1.792z"></path>
<path fill="#fff" style="fill: var(--color1, #fff)" d="M17.665 18.014c0-1.686-1.313-3.058-2.926-3.058s-2.926 1.372-2.926 3.058c0 1.686 1.313 3.058 2.926 3.058s2.926-1.372 2.926-3.058zM13.079 18.014c0-0.988 0.745-1.792 1.66-1.792s1.66 0.804 1.66 1.792c0 0.988-0.745 1.792-1.66 1.792s-1.66-0.804-1.66-1.792z"></path>
</symbol>
<symbol id="icon-courier" viewBox="0 0 24 32">
<path fill="#eb0000" style="fill: var(--color2, #eb0000)" d="M20.431 18.428l-5.883-1.188v-1.237l0.163-0.079c2.198-1.057 3.617-3.324 3.617-5.774v-3.709c-0.328 0.202-0.677 0.365-1.036 0.504-0.261 0.98-0.766 1.873-1.469 2.639-0.015 0.016-0.034 0.026-0.050 0.042 0.289 0.004 0.577-0.043 0.855-0.144l0.383-0.138v0.807c0 2.791-2.248 5.062-5.012 5.062s-5.012-2.271-5.012-5.062v-0.806l0.383 0.138c0.121 0.044 0.245 0.074 0.369 0.098-0.777-0.778-1.329-1.838-1.556-2.937-0.173-0.048-0.346-0.098-0.514-0.165v3.672c0 2.451 1.42 4.717 3.617 5.774l0.163 0.079v1.237l-5.883 1.188c-2.068 0.418-3.569 2.266-3.569 4.396v9.116h24v-9.116c0-2.13-1.501-3.978-3.569-4.396zM10.768 18.331v-1.902l0.327 0.047c0.6 0.087 1.209 0.087 1.809 0l0.327-0.047v1.902l1.781 0.36-0.136 0.326c-0.486 1.167-1.615 1.921-2.876 1.921s-2.39-0.754-2.876-1.921l-0.136-0.326 1.781-0.36zM8.878 21.024l0.459 0.348c0.773 0.587 1.694 0.897 2.663 0.897s1.89-0.31 2.663-0.897l0.459-0.348v3.732h-6.244v-3.732zM3.781 30.61h-2.463v-7.786c0-1.332 0.836-2.526 2.081-2.972l0.382-0.137v10.894zM18.902 30.61h-13.805v-11.134l2.463-0.498v7.108h8.878v-7.108l2.463 0.498v11.134zM22.683 30.61h-2.463v-10.894l0.382 0.137c1.245 0.445 2.081 1.64 2.081 2.972v7.786z"></path>
<path fill="#000" style="fill: var(--color3, #000)" d="M13.92 0h-3.842c-2.432 0-4.41 2.011-4.41 4.483v3.028c0.106 1.532 1.309 1.893 1.309 1.893l0.38 0.138c0.544 0.197 1.123 0.193 1.675-0.013 1.001-0.374 1.985-0.563 2.923-0.563 0.014 0 0.029 0.002 0.043 0.002s0.029-0.002 0.043-0.002c0.939 0 1.922 0.189 2.923 0.563 0.552 0.206 1.132 0.211 1.675 0.013l0.38-0.138c0 0 1.203-0.361 1.309-1.893v-3.028c0-2.472-1.978-4.483-4.41-4.483zM17.021 7.104c0 0.417-0.192 0.793-0.528 1.031-0.204 0.145-0.437 0.219-0.673 0.219-0.135 0-0.271-0.024-0.404-0.074-1.146-0.428-2.281-0.644-3.374-0.644-0.014 0-0.029 0.002-0.043 0.002s-0.029-0.002-0.043-0.002c-1.093 0-2.228 0.217-3.374 0.644-0.132 0.049-0.269 0.074-0.404 0.074-0.236 0-0.469-0.074-0.673-0.219-0.336-0.238-0.528-0.614-0.528-1.031v-0.36l0.135-0.085c0.727-0.454 2.653-1.511 4.844-1.511 0.015 0 0.028 0.002 0.043 0.002s0.028-0.002 0.043-0.002c2.19 0 4.117 1.056 4.844 1.511l0.135 0.085v0.36zM17.021 5.19l-0.411-0.206c-1.058-0.532-2.708-1.166-4.568-1.166-0.015 0-0.028 0.003-0.043 0.003s-0.028-0.003-0.043-0.003c-1.86 0-3.511 0.634-4.568 1.166l-0.411 0.206v-0.707c0-1.738 1.391-3.153 3.101-3.153h3.842c1.71 0 3.101 1.414 3.101 3.153v0.707z"></path>
</symbol>
<symbol id="icon-diagram" viewBox="0 0 32 32">
<path fill="#bebebe" style="fill: var(--color6, #bebebe)" d="M9.145 13.713v17.142c0 0.629-0.509 1.145-1.145 1.145h-6.855c-0.629 0-1.145-0.509-1.145-1.145v-17.142c0.007-0.636 0.515-1.145 1.145-1.145h6.855c0.629 0 1.145 0.509 1.145 1.145zM19.428 0h-6.855c-0.629 0-1.145 0.509-1.145 1.138v29.717c0 0.636 0.515 1.145 1.145 1.145h6.855c0.636 0 1.145-0.516 1.145-1.145v-29.71c0-0.636-0.515-1.145-1.145-1.145zM30.855 9.14h-6.855c-0.636 0-1.145 0.509-1.145 1.145v20.57c0 0.636 0.515 1.145 1.145 1.145h6.855c0.636 0 1.145-0.516 1.145-1.145v-20.57c0-0.636-0.515-1.145-1.145-1.145z"></path>
</symbol>
<symbol id="icon-facebook" viewBox="0 0 18 32">
<path fill="#3551b6" style="fill: var(--color7, #3551b6)" d="M13.242 5.329h4.536v-5.326h-7.486c0 0-6.332-0.377-6.332 7.564v3.096h-3.96v5.272h3.96v16.066h6.040v-16.066h6.237l1.089-5.272h-7.326v-2.468c0-1.060 0.272-2.865 3.242-2.865z"></path>
</symbol>
<symbol id="icon-heart" viewBox="0 0 38 32">
<path fill="#bebebe" style="fill: var(--color6, #bebebe)" d="M27.773 0c-2.052 0-3.934 0.623-5.592 1.853-1.59 1.179-2.649 2.68-3.272 3.771-0.623-1.092-1.682-2.593-3.272-3.771-1.658-1.229-3.54-1.853-5.592-1.853-5.727 0-10.045 4.49-10.045 10.443 0 6.432 5.388 10.833 13.544 17.495 1.385 1.131 2.955 2.414 4.587 3.781 0.215 0.181 0.491 0.28 0.778 0.28s0.563-0.099 0.778-0.28c1.632-1.368 3.202-2.65 4.588-3.782 8.156-6.662 13.543-11.062 13.543-17.494 0-5.954-4.319-10.443-10.045-10.443z"></path>
</symbol>
<symbol id="icon-human" viewBox="0 0 27 32">
<path fill="#bebebe" style="fill: var(--color6, #bebebe)" d="M5.6 8.308c0-4.571 3.479-8.308 7.735-8.308s7.735 3.737 7.735 8.308c0 4.571-3.479 8.308-7.735 8.308s-7.735-3.737-7.735-8.308zM26.61 23.256c-0.203-0.544-0.473-1.052-0.777-1.524-1.554-2.467-3.952-4.1-6.654-4.499-0.338-0.036-0.709 0.036-0.979 0.254-1.419 1.125-3.107 1.705-4.864 1.705s-3.445-0.58-4.864-1.705c-0.27-0.218-0.642-0.327-0.98-0.254-2.702 0.399-5.134 2.032-6.654 4.499-0.304 0.472-0.574 1.016-0.777 1.524-0.101 0.218-0.068 0.472 0.034 0.689 0.27 0.508 0.608 1.016 0.912 1.451 0.473 0.689 0.98 1.306 1.554 1.887 0.473 0.508 1.013 0.98 1.554 1.451 2.668 2.141 5.877 3.265 9.187 3.265s6.519-1.125 9.187-3.265c0.54-0.435 1.081-0.943 1.554-1.451 0.54-0.581 1.081-1.197 1.554-1.887 0.338-0.472 0.642-0.943 0.912-1.451 0.169-0.218 0.203-0.472 0.101-0.689z"></path>
</symbol>
<symbol id="icon-info" viewBox="0 0 32 32">
<path fill="#d6d6d6" style="fill: var(--color8, #d6d6d6)" d="M24.5 0h-17c-4.136 0-7.5 3.365-7.5 7.5v17c0 4.136 3.365 7.5 7.5 7.5h17c4.136 0 7.5-3.364 7.5-7.5v-17c0-4.136-3.364-7.5-7.5-7.5zM29.5 24.5c0 2.757-2.243 5-5 5h-17c-2.757 0-5-2.243-5-5v-17c0-2.757 2.243-5 5-5h17c2.757 0 5 2.243 5 5v17zM17.25 13.688v9.563c0 0.69-0.56 1.25-1.25 1.25s-1.25-0.56-1.25-1.25v-9.563c0-0.69 0.56-1.25 1.25-1.25s1.25 0.56 1.25 1.25zM17.562 9.062c0 0.863-0.7 1.563-1.562 1.563s-1.562-0.7-1.562-1.563c0-0.863 0.7-1.562 1.562-1.562s1.562 0.7 1.562 1.562z"></path>
</symbol>
<symbol id="icon-instagram" viewBox="0 0 32 32">
<path d="M31.904 9.403c-0.078-1.703-0.348-2.866-0.744-3.884-0.402-1.068-1.032-2.035-1.846-2.834-0.799-0.814-1.766-1.444-2.834-1.846-1.018-0.395-2.181-0.666-3.884-0.743-1.706-0.078-2.251-0.097-6.597-0.097s-4.89 0.019-6.597 0.096c-1.703 0.078-2.866 0.348-3.884 0.744-1.068 0.402-2.035 1.032-2.834 1.845-0.814 0.799-1.444 1.766-1.846 2.834-0.395 1.018-0.666 2.181-0.743 3.884-0.078 1.707-0.097 2.251-0.097 6.597s0.019 4.891 0.097 6.597c0.078 1.703 0.348 2.866 0.744 3.884 0.402 1.067 1.032 2.035 1.845 2.834 0.799 0.814 1.766 1.444 2.834 1.845 1.018 0.396 2.181 0.666 3.884 0.744 1.707 0.078 2.251 0.096 6.597 0.096s4.89-0.018 6.597-0.096c1.703-0.078 2.866-0.348 3.884-0.744 2.149-0.831 3.848-2.53 4.679-4.679 0.396-1.018 0.666-2.181 0.744-3.884 0.078-1.706 0.096-2.251 0.096-6.597s-0.019-4.89-0.096-6.597zM29.024 22.466c-0.071 1.56-0.332 2.407-0.551 2.971-0.538 1.395-1.641 2.498-3.037 3.037-0.564 0.219-1.411 0.48-2.971 0.551-1.687 0.077-2.193 0.093-6.465 0.093s-4.779-0.016-6.466-0.093c-1.56-0.071-2.407-0.332-2.971-0.551-0.695-0.257-1.323-0.666-1.84-1.197-0.532-0.516-0.94-1.145-1.197-1.84-0.219-0.564-0.48-1.411-0.551-2.971-0.077-1.687-0.093-2.193-0.093-6.465s0.016-4.778 0.093-6.466c0.071-1.56 0.332-2.407 0.551-2.971 0.257-0.695 0.666-1.324 1.197-1.84 0.516-0.532 1.145-0.94 1.84-1.197 0.564-0.219 1.411-0.48 2.971-0.551 1.687-0.077 2.193-0.093 6.465-0.093h-0c4.272 0 4.778 0.016 6.466 0.094 1.56 0.071 2.407 0.332 2.971 0.551 0.695 0.257 1.324 0.666 1.84 1.197 0.532 0.516 0.941 1.145 1.197 1.84 0.219 0.564 0.48 1.411 0.551 2.971 0.077 1.687 0.093 2.193 0.093 6.465s-0.016 4.778-0.093 6.466z"></path>
<path d="M16 7.783c-4.538 0-8.216 3.679-8.216 8.216s3.678 8.216 8.216 8.216c4.538 0 8.216-3.678 8.216-8.216s-3.678-8.216-8.216-8.216zM16 21.333c-2.945-0-5.333-2.388-5.333-5.334s2.388-5.333 5.333-5.333c2.946 0 5.333 2.388 5.333 5.333s-2.388 5.334-5.333 5.334z"></path>
<path d="M26.461 7.459c0 1.060-0.86 1.92-1.92 1.92s-1.92-0.86-1.92-1.92c0-1.061 0.86-1.92 1.92-1.92s1.92 0.86 1.92 1.92z"></path>
</symbol>
<symbol id="icon-loupe" viewBox="0 0 32 32">
<path fill="#eb0000" style="fill: var(--color2, #eb0000)" d="M31.805 29.919l-9.296-9.296c1.763-2.177 2.824-4.944 2.824-7.957 0-6.984-5.682-12.667-12.667-12.667s-12.667 5.682-12.667 12.667c0 6.984 5.682 12.667 12.667 12.667 3.013 0 5.78-1.061 7.957-2.824l9.296 9.296c0.261 0.26 0.682 0.26 0.943 0l0.943-0.943c0.26-0.26 0.26-0.682-0-0.943zM12.667 22.667c-5.514 0-10-4.486-10-10s4.486-10 10-10c5.514 0 10 4.486 10 10s-4.486 10-10 10z"></path>
</symbol>
<symbol id="icon-loupe-plus" viewBox="0 0 32 32">
<path fill="#fff" style="fill: var(--color1, #fff)" d="M31.768 30.636l-6.635-6.633c5.061-5.649 4.879-14.364-0.55-19.791-5.553-5.546-14.525-5.626-20.176-0.18s-5.901 14.412-0.561 20.163c5.34 5.751 14.302 6.169 20.154 0.941l6.635 6.633c0.313 0.31 0.818 0.309 1.13-0.003s0.313-0.816 0.003-1.129zM23.451 23.454c-4.994 4.993-13.121 4.993-18.114 0-5.025-4.977-5.063-13.085-0.085-18.109s13.089-5.062 18.115-0.084l0.084 0.084c4.994 4.993 4.994 13.116 0 18.109zM19.997 14.397c0 0.442-0.358 0.8-0.8 0.8h-4.004v4.003c0 0.442-0.358 0.8-0.801 0.8s-0.8-0.358-0.8-0.8v-4.003h-4.001c-0.442 0-0.8-0.358-0.8-0.8s0.359-0.8 0.8-0.8h4.001v-3.999c0-0.442 0.359-0.8 0.8-0.8s0.801 0.358 0.801 0.8v3.999h4.004c0.442 0 0.8 0.359 0.8 0.8z"></path>
</symbol>
<symbol id="icon-mail" viewBox="0 0 43 32">
<path fill="#fff" style="fill: var(--color1, #fff)" opacity="0.35" d="M43.429 3.81c0-0.471-0.094-0.916-0.245-1.333-0.002-0.004 0.001-0.009-0.001-0.013s-0.005-0.008-0.007-0.013c-0.128-0.344-0.305-0.659-0.519-0.947-0.025-0.034-0.051-0.064-0.078-0.097-0.431-0.542-0.997-0.956-1.653-1.188-0.060-0.021-0.118-0.039-0.179-0.057-0.322-0.095-0.655-0.162-1.006-0.162h-36.051c-0.351 0-0.684 0.067-1.005 0.162-0.062 0.018-0.121 0.037-0.182 0.058-0.653 0.231-1.217 0.641-1.648 1.18-0.029 0.037-0.059 0.071-0.087 0.109-0.211 0.284-0.386 0.595-0.513 0.934-0.003 0.007-0.008 0.013-0.011 0.020s0.001 0.014-0.001 0.020c-0.151 0.415-0.244 0.859-0.244 1.328v24.377c0 0.469 0.093 0.913 0.244 1.328 0.003 0.007-0.001 0.015 0.001 0.022s0.009 0.014 0.012 0.022c0.127 0.337 0.301 0.646 0.511 0.929 0.029 0.040 0.060 0.075 0.091 0.114 0.43 0.537 0.993 0.947 1.644 1.177 0.061 0.022 0.121 0.040 0.183 0.058 0.322 0.095 0.654 0.162 1.005 0.162h36.051c0.351 0 0.683-0.067 1.005-0.162 0.062-0.018 0.121-0.037 0.181-0.058 0.653-0.232 1.218-0.643 1.648-1.184 0.028-0.035 0.056-0.067 0.082-0.103 0.213-0.287 0.388-0.6 0.516-0.942 0.002-0.006 0.006-0.009 0.008-0.015s-0.001-0.010 0.001-0.015c0.152-0.416 0.245-0.862 0.245-1.333v-24.377zM29.453 16l11.99-11.052v22.104l-11.99-11.052zM39.742 2.051c0.238 0 0.469 0.054 0.68 0.151 0.013 0.006 0.022 0.018 0.034 0.024 0.193 0.095 0.371 0.224 0.518 0.386 0.003 0.004 0.005 0.009 0.008 0.013l-19.265 17.758-19.27-17.756c0.005-0.005 0.007-0.012 0.011-0.017 0.141-0.154 0.311-0.274 0.495-0.367 0.021-0.010 0.036-0.030 0.057-0.040 0.211-0.097 0.442-0.151 0.681-0.151h36.051zM1.985 4.949l11.993 11.051-11.993 11.052v-22.103zM3.691 29.949c-0.238 0-0.469-0.054-0.68-0.151-0.024-0.011-0.041-0.033-0.065-0.046-0.18-0.093-0.348-0.21-0.486-0.361-0.005-0.005-0.007-0.013-0.012-0.018l13.022-12.001 5.588 5.149c0.188 0.173 0.424 0.261 0.66 0.261s0.472-0.087 0.661-0.261l5.584-5.147 13.019 12c-0.004 0.004-0.005 0.010-0.009 0.014-0.145 0.16-0.32 0.285-0.51 0.38-0.015 0.008-0.026 0.022-0.041 0.029-0.211 0.097-0.442 0.151-0.68 0.151h-36.051z"></path>
</symbol>
<symbol id="icon-mail-opened" viewBox="0 0 32 32">
<path d="M31.934 31.778c0.005-0.008 0.010-0.017 0.014-0.026 0.003-0.005 0.005-0.010 0.007-0.015 0.004-0.008 0.008-0.017 0.011-0.026 0.002-0.005 0.004-0.011 0.006-0.017 0.003-0.008 0.006-0.017 0.008-0.026 0.002-0.006 0.003-0.012 0.005-0.018 0.002-0.008 0.004-0.017 0.006-0.025 0.001-0.007 0.002-0.013 0.003-0.020 0.001-0.008 0.002-0.016 0.003-0.025 0.001-0.007 0.001-0.014 0.001-0.021s0.001-0.012 0.001-0.018v-19.196c0-0.001 0-0.002 0-0.003v-0.001c0-0.002-0-0.003-0-0.004s-0-0.002-0-0.003c0-0.007-0-0.013-0.001-0.020s-0-0.012-0.001-0.018c-0-0.003-0.001-0.005-0.001-0.008-0.001-0.006-0.001-0.011-0.002-0.017-0.001-0.007-0.002-0.013-0.003-0.020-0.001-0.003-0.001-0.006-0.002-0.009-0.001-0.005-0.002-0.010-0.003-0.014-0.002-0.007-0.003-0.013-0.005-0.020-0.001-0.003-0.002-0.006-0.003-0.008-0.001-0.005-0.003-0.009-0.005-0.014-0.002-0.006-0.005-0.013-0.007-0.019-0.001-0.002-0.002-0.005-0.003-0.007-0.002-0.005-0.005-0.011-0.007-0.016s-0.005-0.012-0.008-0.017c-0.001-0.002-0.002-0.004-0.003-0.006-0.003-0.006-0.007-0.012-0.011-0.018-0.003-0.005-0.006-0.010-0.009-0.014-0.001-0.002-0.002-0.003-0.003-0.005-0.005-0.007-0.009-0.013-0.014-0.019-0.003-0.003-0.005-0.007-0.008-0.011-0-0.001-0.001-0.001-0.001-0.002s-0.002-0.003-0.003-0.004c-0.005-0.006-0.011-0.012-0.016-0.018s-0.011-0.011-0.016-0.017c-0.004-0.004-0.009-0.008-0.014-0.013-0.007-0.007-0.015-0.013-0.022-0.019-0.001-0.001-0.002-0.002-0.004-0.003l-4.163-3.186v-5.136c0-0.252-0.205-0.457-0.457-0.457h-6.862l-4.060-3.106c-0.164-0.125-0.391-0.125-0.555 0l-4.060 3.106h-6.862c-0.252 0-0.457 0.205-0.457 0.457v5.136l-4.164 3.186c-0.001 0.001-0.002 0.002-0.003 0.003-0.010 0.008-0.020 0.017-0.030 0.026-0.003 0.003-0.006 0.005-0.008 0.008-0.007 0.007-0.014 0.015-0.021 0.022-0.004 0.005-0.008 0.009-0.012 0.014-0 0-0.001 0.001-0.001 0.001s-0.001 0.001-0.001 0.001c-0.004 0.005-0.008 0.011-0.012 0.016s-0.009 0.012-0.014 0.019c-0.001 0.002-0.002 0.003-0.003 0.005s-0.002 0.004-0.003 0.005-0.004 0.007-0.006 0.010-0.007 0.012-0.010 0.018c-0.002 0.003-0.004 0.007-0.005 0.010s-0.003 0.007-0.005 0.010c-0.001 0.001-0.001 0.002-0.002 0.003-0.003 0.006-0.005 0.011-0.008 0.017s-0.004 0.010-0.006 0.016c-0.001 0.004-0.003 0.008-0.004 0.012-0.002 0.005-0.004 0.010-0.005 0.015-0.002 0.007-0.004 0.014-0.006 0.021-0.001 0.004-0.002 0.008-0.003 0.012s-0.002 0.007-0.002 0.010c-0.002 0.009-0.003 0.018-0.004 0.028-0.001 0.004-0.001 0.008-0.002 0.012-0 0.002-0 0.003-0.001 0.005-0.001 0.013-0.002 0.027-0.002 0.040 0 0 0 0 0 0-0 0.002-0 0.003-0 0.005 0 0 0 0.001 0 0.001v0c0 0.001 0 0.002 0 0.003v19.19c-0 0.002-0 0.004-0 0.006 0 0.253 0.205 0.457 0.458 0.457h31.085c0.017 0 0.034-0.001 0.050-0.003 0.004-0 0.008-0.001 0.012-0.002 0.013-0.002 0.025-0.004 0.038-0.007 0.004-0.001 0.008-0.002 0.013-0.003 0.012-0.003 0.024-0.006 0.035-0.010 0.004-0.001 0.008-0.003 0.013-0.005 0.011-0.004 0.022-0.009 0.033-0.014 0.004-0.002 0.008-0.004 0.013-0.006 0.011-0.005 0.021-0.011 0.031-0.017 0.004-0.002 0.008-0.005 0.011-0.007 0.011-0.007 0.022-0.015 0.032-0.023 0.002-0.002 0.005-0.004 0.008-0.006 0.013-0.011 0.025-0.021 0.037-0.033 0-0 0.001-0.001 0.001-0.001 0.011-0.011 0.022-0.023 0.032-0.035 0.001-0.001 0.001-0.002 0.002-0.002 0.002-0.003 0.004-0.006 0.006-0.009 0.006-0.008 0.013-0.017 0.018-0.026 0.003-0.004 0.005-0.009 0.008-0.013zM0.915 13.304l10.81 8.801-10.81 8.496v-17.297zM12.462 22.689c1.029 0.737 2.266 1.135 3.538 1.133 1.272 0.002 2.508-0.396 3.537-1.132l10.685 8.396h-28.443l10.683-8.397zM20.274 22.106l10.811-8.802v17.298l-10.811-8.496zM30.805 12.353l-3.148 2.564v-4.973l3.148 2.409zM16 1.032l2.833 2.167h-5.666l2.833-2.167zM26.743 4.114v4.793c-0.015 0.067-0.015 0.137 0 0.203v6.551l-7.489 6.098c-1.878 1.519-4.553 1.534-6.447 0.047-0.038-0.044-0.082-0.078-0.131-0.104l-7.418-6.041v-11.548h21.485zM4.343 14.917l-3.148-2.564 3.148-2.409v4.973zM8.457 7.543c0-0.252 0.205-0.457 0.457-0.457h14.171c0.253 0 0.457 0.205 0.457 0.457s-0.205 0.457-0.457 0.457h-14.171c-0.252 0-0.457-0.205-0.457-0.457zM8.457 11.085c0-0.252 0.205-0.457 0.457-0.457h14.171c0.253 0 0.457 0.205 0.457 0.457s-0.205 0.457-0.457 0.457h-14.171c-0.252 0-0.457-0.205-0.457-0.457zM8.457 14.628c0-0.252 0.205-0.457 0.457-0.457h14.171c0.253 0 0.457 0.205 0.457 0.457s-0.205 0.457-0.457 0.457h-14.171c-0.252 0-0.457-0.205-0.457-0.457z"></path>
</symbol>
<symbol id="icon-map" viewBox="0 0 27 32">
<path fill="#bebebe" style="fill: var(--color6, #bebebe)" d="M13.601 0c-7.5 0-13.601 6.021-13.601 13.422 0 7.269 12.611 17.962 13.148 18.413 0.13 0.11 0.291 0.165 0.452 0.165s0.322-0.055 0.452-0.165c0.537-0.452 13.147-11.144 13.147-18.413 0-7.401-6.101-13.422-13.599-13.422zM13.601 30.397c-2.26-1.985-12.206-11.059-12.206-16.974 0-6.642 5.476-12.046 12.206-12.046s12.205 5.404 12.205 12.046c0 5.913-9.944 14.988-12.205 16.974zM13.601 7.229c-3.461 0-6.276 2.778-6.276 6.194s2.815 6.194 6.276 6.194c3.461 0 6.276-2.778 6.276-6.194s-2.815-6.194-6.276-6.194zM13.601 18.239c-2.691 0-4.881-2.161-4.881-4.817s2.19-4.817 4.881-4.817c2.691 0 4.881 2.161 4.881 4.817s-2.19 4.817-4.881 4.817z"></path>
</symbol>
<symbol id="icon-medal" viewBox="0 0 21 32">
<path fill="#e91d25" style="fill: var(--color5, #e91d25)" d="M20.758 12.781l-1.8-2.51c-0.099-0.138-0.109-0.322-0.027-0.47l1.5-2.699c0.238-0.429 0.253-0.948 0.040-1.39s-0.63-0.753-1.114-0.833l-3.047-0.502c-0.167-0.028-0.305-0.151-0.352-0.313l-0.848-2.97c-0.135-0.472-0.491-0.849-0.955-1.011s-0.978-0.087-1.376 0.199l-2.51 1.8c-0.138 0.099-0.322 0.109-0.47 0.027l-2.699-1.5c-0.429-0.238-0.948-0.253-1.39-0.040s-0.753 0.63-0.833 1.114l-0.502 3.047c-0.028 0.167-0.151 0.305-0.313 0.351l-2.97 0.848c-0.472 0.135-0.849 0.491-1.011 0.955s-0.087 0.978 0.199 1.376l1.8 2.51c0.099 0.138 0.109 0.322 0.027 0.47l-1.5 2.699c-0.238 0.429-0.253 0.948-0.040 1.39s0.63 0.753 1.113 0.832l2.318 0.382-2.683 9.486c-0.055 0.193 0.004 0.401 0.151 0.538s0.359 0.179 0.548 0.109l2.971-1.093 1.766 3.725c0.089 0.188 0.278 0.306 0.483 0.306 0.015 0 0.030-0.001 0.045-0.002 0.222-0.019 0.409-0.173 0.47-0.387l2.297-8.124 1.529 9.915c0.033 0.216 0.195 0.39 0.408 0.439s0.435-0.036 0.559-0.216l1.862-2.682 3.645 3.305c0.101 0.091 0.229 0.139 0.359 0.139 0.089 0 0.178-0.022 0.259-0.067 0.2-0.111 0.308-0.337 0.267-0.562l-2.473-13.852 0.199-1.208c0.028-0.167 0.151-0.305 0.313-0.352l2.97-0.848c0.472-0.135 0.849-0.491 1.011-0.955s0.087-0.978-0.199-1.376zM7.109 27.563l-1.365-2.879c-0.118-0.25-0.408-0.368-0.668-0.273l-2.445 0.9 2.392-8.458c0.013 0.020 0.026 0.041 0.035 0.063 0.009 0.020 0.017 0.040 0.022 0.061l0.848 2.97c0.051 0.18 0.134 0.345 0.244 0.493 0.002 0.002 0.003 0.004 0.004 0.006 0 0 0 0 0 0l0 0c0.036 0.047 0.075 0.093 0.117 0.137l0 0c0.144 0.148 0.314 0.264 0.507 0.344 0 0 0.001 0 0.001 0 0.080 0.033 0.163 0.059 0.248 0.078 0 0 0 0 0 0l0 0c0.028 0.006 0.057 0.012 0.085 0.017 0.015 0.002 0.030 0.004 0.044 0.005 0.067 0.009 0.135 0.015 0.202 0.015 0.005 0 0.010 0 0.015-0 0 0 0.001 0 0.001 0 0.031-0 0.063-0.002 0.094-0.004 0.001-0 0.003-0 0.004-0 0 0 0-0 0-0s0 0 0 0 0 0 0 0c0.273-0.021 0.537-0.117 0.762-0.279l0.971-0.696-2.121 7.501zM14.673 27.356c-0.114-0.103-0.267-0.153-0.42-0.135s-0.291 0.1-0.378 0.226l-1.446 2.083-1.633-10.588c0.134-0.082 0.304-0.087 0.443-0.010l2.699 1.5c0.227 0.126 0.48 0.19 0.733 0.19 0.224 0 0.449-0.050 0.656-0.15 0.198-0.096 0.369-0.232 0.506-0.397l1.775 9.943-2.936-2.661zM19.947 13.805c-0.048 0.137-0.155 0.238-0.295 0.278l-2.969 0.848c-0.559 0.159-0.98 0.633-1.075 1.206l-0.502 3.047c-0.024 0.143-0.112 0.262-0.243 0.325s-0.278 0.059-0.405-0.012l-2.699-1.5c-0.508-0.282-1.141-0.246-1.613 0.093l-1.239 0.888c0 0-0 0-0 0l-1.27 0.911c-0.034 0.024-0.069 0.043-0.106 0.057s-0.075 0.022-0.115 0.025c-0 0-0 0-0 0h-0c-0.009 0.001-0.018 0.001-0.028 0.001-0.026 0.001-0.051-0.002-0.077-0.006h-0c-0.009-0.001-0.017-0.003-0.026-0.005-0.025-0.006-0.050-0.014-0.074-0.023h-0c-0.057-0.023-0.106-0.057-0.148-0.1-0.012-0.012-0.023-0.025-0.033-0.039l-0-0c-0.033-0.043-0.057-0.092-0.072-0.146l-0.848-2.969c-0.020-0.069-0.045-0.139-0.075-0.206 0 0-0-0-0-0l-0-0c-0.125-0.277-0.329-0.507-0.589-0.667-0.001-0.001-0.002-0.002-0.003-0.002-0.045-0.028-0.087-0.050-0.128-0.070l-0-0c-0.064-0.030-0.13-0.057-0.197-0.078-0-0-0.001-0-0.002-0.001l-0-0c0 0-0-0-0-0-0.068-0.022-0.139-0.039-0.21-0.050 0 0-0 0-0 0l-0-0-0.133-0.022c-0-0-0.001-0-0.001-0l-0.004-0.001c-0 0-0 0-0 0l-2.908-0.479c-0.143-0.024-0.261-0.112-0.325-0.243s-0.059-0.278 0.012-0.405l1.5-2.699c0.282-0.508 0.246-1.141-0.093-1.613l-1.8-2.51c-0.085-0.118-0.106-0.264-0.058-0.401s0.155-0.238 0.295-0.278l2.97-0.848c0.559-0.159 0.981-0.633 1.075-1.206l0.502-3.047c0.024-0.143 0.112-0.262 0.243-0.325s0.278-0.059 0.405 0.012l2.699 1.5c0.508 0.282 1.141 0.246 1.613-0.093l2.51-1.8c0.118-0.085 0.264-0.106 0.401-0.058s0.238 0.155 0.278 0.295l0.848 2.97c0.159 0.558 0.633 0.98 1.206 1.075l3.047 0.502c0.143 0.024 0.262 0.112 0.325 0.243s0.059 0.278-0.012 0.405l-1.5 2.699c-0.282 0.508-0.246 1.141 0.093 1.613l1.8 2.509c0.085 0.118 0.106 0.264 0.058 0.401z"></path>
<path fill="#fff" style="fill: var(--color1, #fff)" d="M10.667 15.351c-2.782 0-5.046-2.264-5.046-5.046s2.264-5.046 5.046-5.046 5.046 2.264 5.046 5.046c0 2.783-2.264 5.046-5.046 5.046zM10.667 6.322c-2.196 0-3.982 1.786-3.982 3.982s1.787 3.982 3.982 3.982 3.982-1.786 3.982-3.982c0-2.196-1.787-3.982-3.982-3.982z"></path>
</symbol>
<symbol id="icon-menu" viewBox="0 0 47 32">
<path d="M46.545 16c0 0.982-0.814 1.778-1.818 1.778h-42.909c-1.004 0-1.818-0.796-1.818-1.778s0.814-1.778 1.818-1.778h42.909c1.004 0 1.818 0.796 1.818 1.778zM1.818 3.556h42.909c1.004 0 1.818-0.796 1.818-1.778s-0.814-1.778-1.818-1.778h-42.909c-1.004 0-1.818 0.796-1.818 1.778s0.814 1.778 1.818 1.778zM44.727 28.444h-42.909c-1.004 0-1.818 0.796-1.818 1.778s0.814 1.778 1.818 1.778h42.909c1.004 0 1.818-0.796 1.818-1.778s-0.814-1.778-1.818-1.778z"></path>
</symbol>
<symbol id="icon-percent" viewBox="0 0 34 32">
<path d="M13.744 9.121c0-3.761-3.083-6.82-6.872-6.82s-6.872 3.059-6.872 6.82c0 3.761 3.083 6.82 6.872 6.82s6.872-3.059 6.872-6.82zM11.426 9.121c-0 2.492-2.043 4.519-4.554 4.519s-4.554-2.027-4.554-4.519c0-2.492 2.043-4.519 4.554-4.519s4.554 2.027 4.554 4.519v0zM25.661 1.672l-15.214 29.698c-0.199 0.388-0.596 0.63-1.035 0.63-0.183 0-0.359-0.042-0.524-0.125-0.57-0.288-0.798-0.981-0.508-1.547l15.214-29.698c0.14-0.274 0.38-0.477 0.674-0.573 0.118-0.038 0.239-0.057 0.36-0.057 0.18 0 0.359 0.042 0.524 0.126 0.276 0.139 0.481 0.377 0.577 0.669s0.071 0.604-0.069 0.878zM27.261 16.059c-3.789 0-6.872 3.059-6.872 6.82s3.083 6.82 6.872 6.82 6.872-3.059 6.872-6.82c0-3.76-3.083-6.82-6.872-6.82zM27.261 27.398c-2.511 0-4.554-2.027-4.554-4.519s2.043-4.519 4.554-4.519c2.511 0 4.553 2.027 4.553 4.519s-2.043 4.519-4.553 4.519z"></path>
</symbol>
<symbol id="icon-phone" viewBox="0 0 32 32">
<path fill="#fff" style="fill: var(--color1, #fff)" opacity="0.35" d="M30.912 21.703c-2.508-1.137-4.469-1.77-7.769-2.506-0.115-0.025-0.247-0.038-0.401-0.038-0.432 0-1.644 0.14-2.063 0.79l-1.623 2.558c-0.249 0.399-1.204 0.353-1.897-0.157-1.369-0.995-2.733-2.156-4.044-3.444-1.292-1.315-2.458-2.681-3.467-4.061-0.34-0.467-0.501-1.028-0.415-1.461 0.028-0.143 0.096-0.336 0.269-0.443l2.548-1.617c0.737-0.464 0.886-1.975 0.751-2.491-0.714-2.695-1.7-5.524-2.48-7.69-0.269-0.736-1.524-1.144-2.29-1.144-0.253 0-0.482 0.039-0.679 0.116-2.21 0.855-4.179 2.137-5.855 3.812-0.456 0.457-0.893 0.953-1.337 1.517l-0.149 0.188-0.006 0.24c-0.152 6.367 2.721 12.978 7.984 18.241 5.012 5.012 11.455 7.886 17.677 7.886l0.706-0.011 0.187-0.148c0.54-0.42 1.050-0.87 1.524-1.338 1.67-1.676 2.951-3.645 3.805-5.849 0.36-0.917-0.197-2.599-0.976-2.951zM30.545 24.131c-0.782 2.020-1.953 3.822-3.479 5.352-0.375 0.372-0.78 0.732-1.205 1.075l-0.196 0.003c-5.842 0-11.915-2.722-16.653-7.459l-0.107-0.107c-4.819-4.819-7.531-10.946-7.465-16.848 0.357-0.443 0.711-0.838 1.076-1.203 1.531-1.529 3.334-2.703 5.357-3.486 0.001 0 0.048-0.018 0.157-0.018 0.392 0 0.865 0.173 0.936 0.195 0.771 2.135 1.742 4.926 2.44 7.557 0.037 0.195-0.077 0.814-0.127 0.916l-2.542 1.614c-0.474 0.293-0.8 0.784-0.917 1.386-0.164 0.838 0.079 1.781 0.667 2.585 1.049 1.437 2.261 2.857 3.611 4.23 1.37 1.345 2.788 2.554 4.213 3.589 1.378 1.009 3.279 0.876 3.966-0.24l1.551-2.471c0.108-0.080 0.552-0.186 1.001-0.198 3.192 0.711 5.082 1.32 7.403 2.358 0.181 0.181 0.406 0.933 0.312 1.171z"></path>
</symbol>
<symbol id="icon-receipt" viewBox="0 0 25 32">
<path fill="#eb0000" style="fill: var(--color2, #eb0000)" d="M23.997 0.828c-0.546-0.247-1.189-0.151-1.635 0.244l-2.119 1.841-2.883-2.531c-0.579-0.509-1.456-0.509-2.035 0l-2.88 2.529-2.881-2.529c-0.579-0.509-1.456-0.509-2.036 0l-2.884 2.531-2.121-1.841c-0.626-0.546-1.584-0.491-2.14 0.124-0.249 0.275-0.386 0.631-0.383 0.999v27.612c-0.005 0.823 0.671 1.494 1.509 1.499 0.375 0.002 0.737-0.132 1.018-0.376l2.119-1.841 2.883 2.531c0.579 0.509 1.456 0.509 2.035 0l2.881-2.529 2.881 2.529c0.579 0.509 1.456 0.509 2.036 0l2.884-2.531 2.121 1.841c0.626 0.546 1.584 0.491 2.14-0.123 0.249-0.275 0.386-0.631 0.383-0.999v-27.612c0.008-0.59-0.343-1.127-0.892-1.366zM21.253 27.964c-0.579-0.504-1.451-0.501-2.028 0.005l-2.883 2.531-2.88-2.529c-0.579-0.509-1.456-0.509-2.035 0l-2.881 2.529-2.884-2.531c-0.574-0.507-1.445-0.509-2.022-0.005l-2.113 1.841v-3.994l-0.008-23.617 2.117 1.841c0.579 0.504 1.451 0.501 2.028-0.005l2.883-2.531 2.88 2.529c0.579 0.509 1.456 0.509 2.035 0l2.881-2.529 2.884 2.531c0.574 0.507 1.445 0.509 2.022 0.005l2.113-1.841v18.981l0.008 8.631-2.117-1.841z"></path>
<path fill="#000" style="fill: var(--color3, #000)" d="M20.445 16c0 0.414-0.342 0.749-0.764 0.749h-14.474c-0.422 0-0.763-0.335-0.763-0.749s0.342-0.749 0.763-0.749h14.474c0.422 0 0.764 0.336 0.764 0.749z"></path>
<path fill="#000" style="fill: var(--color3, #000)" d="M4.444 11.504c0-0.414 0.342-0.749 0.763-0.749h7.603c0.422 0 0.764 0.335 0.764 0.749s-0.342 0.749-0.764 0.749h-7.603c-0.422 0-0.763-0.335-0.763-0.749z"></path>
<path fill="#000" style="fill: var(--color3, #000)" d="M20.445 20.496c0 0.414-0.342 0.749-0.764 0.749h-14.474c-0.422 0-0.763-0.335-0.763-0.749s0.342-0.749 0.763-0.749h14.474c0.422 0 0.764 0.336 0.764 0.749z"></path>
</symbol>
<symbol id="icon-screwdriver" viewBox="0 0 38 32">
<path fill="#fff" style="fill: var(--color1, #fff)" d="M1.604 23.771h17.504v5.504c0 1.301-1.071 2.359-2.387 2.359h-12.73c-1.314 0-2.387-1.058-2.387-2.359v-5.504zM38.204 5.687c0 0.434-0.356 0.786-0.796 0.786h-5.873l-0.931 1.841c-0.407 0.804-1.225 1.304-2.136 1.304h-3.662l-2.691 0.885c-1.381 0.456-2.82 0.687-4.277 0.687h-2.821l-0.132 0.838c0.137-0.046 0.286-0.066 0.438-0.028 0.426 0.105 0.686 0.532 0.579 0.953l-0.796 3.145c-0.089 0.359-0.414 0.596-0.77 0.596-0.057 0-0.115-0.008-0.173-0.020l-0.539 3.469 4.852 2.055h-16.341l2.71-2.010 1.402-8.998h-3.846c-1.314 0-2.387-1.058-2.387-2.359v-6.29c0-1.301 1.073-2.359 2.387-2.359h15.44c1.458 0 2.896 0.231 4.277 0.687l2.691 0.885h3.662c0.909 0 1.728 0.5 2.136 1.304l0.931 1.841h5.872c0.439 0 0.796 0.352 0.796 0.786zM9.561 7.259c0-0.434-0.356-0.786-0.796-0.786h-4.774c-0.439 0-0.796 0.352-0.796 0.786s0.356 0.786 0.796 0.786h4.774c0.439 0 0.796-0.352 0.796-0.786zM9.561 4.114c0-0.434-0.356-0.786-0.796-0.786h-4.774c-0.439 0-0.796 0.352-0.796 0.786s0.356 0.786 0.796 0.786h4.774c0.439 0 0.796-0.352 0.796-0.786zM25.474 4.114c0-0.434-0.356-0.786-0.796-0.786s-0.796 0.352-0.796 0.786v3.145c0 0.434 0.356 0.786 0.796 0.786s0.796-0.352 0.796-0.786v-3.145z"></path>
</symbol>
<symbol id="icon-slider-arrow" viewBox="0 0 18 32">
<path d="M0.38 15.122l15.416-14.76c0.505-0.483 1.323-0.482 1.827 0.003s0.503 1.27-0.003 1.754l-14.498 13.882 14.499 13.882c0.505 0.484 0.506 1.269 0.003 1.754-0.253 0.243-0.584 0.365-0.915 0.365s-0.66-0.121-0.912-0.362l-15.416-14.76c-0.243-0.232-0.38-0.549-0.38-0.878s0.137-0.645 0.38-0.878z"></path>
</symbol>
<symbol id="icon-stars" viewBox="0 0 197 32">
<path fill="#ffd15b" style="fill: var(--color9, #ffd15b)" d="M70.723 12.849l-7.352 7.26 1.736 10.251-9.088-4.84-9.088 4.84 1.736-10.251-7.352-7.26 10.16-1.496 4.544-9.327 4.544 9.327 10.16 1.496zM19.248 11.353l-4.544-9.327-4.544 9.327-10.16 1.496 7.352 7.26-1.736 10.251 9.088-4.84 9.088 4.84-1.736-10.251 7.352-7.26-10.16-1.496zM188.268 20.422l1.96 11.578-10.263-5.466-10.263 5.466 1.96-11.578-8.303-8.2 11.475-1.689 5.132-10.534 5.132 10.534 11.475 1.689-8.304 8.2zM187.876 28.721l-1.511-8.925 6.401-6.32-8.845-1.302-3.956-8.12-3.956 8.12-8.845 1.302 6.401 6.32-1.511 8.925 7.912-4.214 7.912 4.214zM143.193 11.353l-4.544-9.327-4.544 9.327-10.16 1.496 7.352 7.26-1.736 10.251 9.088-4.84 9.088 4.84-1.736-10.251 7.352-7.26-10.16-1.496zM101.878 11.353l-4.544-9.327-4.544 9.327-10.16 1.496 7.352 7.26-1.736 10.251 9.088-4.84 9.088 4.84-1.736-10.251 7.352-7.26-10.16-1.496z"></path>
</symbol>
<symbol id="icon-telegram" viewBox="0 0 32 32">
<path fill="#00b6ef" style="fill: var(--color10, #00b6ef)" d="M30.817 0.069l-30.261 13.408c-0.747 0.331-0.74 1.545 0.009 1.867l7.373 3.161 2.854 10.542c0.183 0.675 0.902 0.925 1.379 0.477l4.11-3.848c0.431-0.403 1.044-0.423 1.495-0.048l7.413 6.182c0.51 0.426 1.233 0.105 1.361-0.603l5.43-30.002c0.14-0.774-0.522-1.419-1.164-1.134zM25.046 7.085l-11.893 12.697c-0.418 0.447-0.688 1.045-0.764 1.694l-0.405 3.448c-0.054 0.461-0.617 0.506-0.727 0.060l-1.558-6.288c-0.178-0.717 0.082-1.483 0.634-1.875l14.41-10.194c0.259-0.183 0.526 0.22 0.303 0.457z"></path>
</symbol>
<symbol id="icon-trolley" viewBox="0 0 33 32">
<path fill="#bebebe" style="fill: var(--color6, #bebebe)" d="M13.705 19.474l-2.417-14.446 21.743 3.946v10.835l-19.326-0.335zM31.686 22.271h-20.114l-4.356-22.271h-5.568c-0.911 0-1.648 0.781-1.648 1.744s0.738 1.742 1.648 1.742h2.885l4.356 22.271h22.797c0.91 0 1.648-0.781 1.648-1.743s-0.738-1.743-1.648-1.743zM13.638 27.35c-1.213 0-2.196 1.042-2.196 2.326s0.983 2.325 2.196 2.325c1.214 0 2.197-1.041 2.197-2.325s-0.983-2.326-2.197-2.326zM27.037 27.35c-1.213 0-2.196 1.042-2.196 2.326s0.983 2.325 2.196 2.325c1.213 0 2.198-1.041 2.198-2.325s-0.984-2.326-2.198-2.326z"></path>
</symbol>
<symbol id="icon-truck" viewBox="0 0 67 32">
<path fill="#e91d25" style="fill: var(--color5, #e91d25)" d="M55.382 5.181h-7.326v-3.095c0-1.15-0.936-2.086-2.086-2.086h-24.088c-1.15 0-2.086 0.936-2.086 2.086v21.55c0 1.15 0.936 2.086 2.086 2.086h2.827c0.085 2.986 2.538 5.389 5.544 5.389s5.459-2.403 5.544-5.389h15.107c0.085 2.986 2.538 5.389 5.544 5.389s5.46-2.403 5.544-5.389h1.922c1.15 0 2.086-0.936 2.086-2.086v-7.835c0-5.855-4.764-10.619-10.619-10.619zM21.3 23.636v-21.55c0-0.321 0.261-0.582 0.582-0.582h24.088c0.321 0 0.582 0.261 0.582 0.582v22.132h-10.916c-0.147-0.593-0.39-1.154-0.728-1.674l-0-0c-0-0-0.001-0.001-0.001-0.001l-0-0.001c-0.003-0.004-0.006-0.009-0.008-0.012l-0-0c0 0-0-0-0-0s-0.001-0.002-0.002-0.002c-0-0-0.001-0.001-0.001-0.001-0.039-0.059-0.079-0.117-0.12-0.175-0-0-0-0.001-0.001-0.001l-0.002-0.003c-0-0-0-0.001-0.001-0.001l-0-0-0.018-0.025c-0-0-0-0-0.001-0.001s-0.001-0.001-0.001-0.002c-0.041-0.057-0.083-0.113-0.126-0.168l-0-0-0.026-0.032c-0-0-0.001-0.001-0.001-0.001s-0-0.001-0.001-0.001c-0.041-0.052-0.083-0.103-0.126-0.153-0.001-0-0.001-0.001-0.001-0.002l-0.031-0.036-0 0c-0.001-0.002-0.002-0.003-0.004-0.005-0.043-0.050-0.087-0.099-0.132-0.146l-0.001-0.001-0.037-0.039-0-0c0-0 0-0-0-0-0.045-0.047-0.090-0.093-0.136-0.139-0-0-0-0-0-0s-0-0-0.001-0.001l-0.040-0.038c-0-0-0-0-0-0l-0-0c-0.047-0.045-0.094-0.089-0.142-0.132l-0.001-0.001-0.038-0.033c0 0-0-0-0.001-0s-0-0-0.001-0c-0.048-0.042-0.097-0.084-0.147-0.125-0.001-0.001-0.002-0.002-0.002-0.002s-0.002-0.002-0.003-0.002c0 0-0.001-0.001-0.001-0.001s-0.001-0-0.001-0.001c-0.008-0.006-0.016-0.013-0.025-0.020-0-0-0.001-0-0.001-0.001-0.17-0.137-0.349-0.265-0.535-0.381-0-0-0-0-0-0l-0.007-0.005c-0.012-0.008-0.025-0.016-0.038-0.024-0-0-0.001-0-0.001-0s-0-0-0.001-0c-0.036-0.022-0.073-0.043-0.11-0.064l-0.022-0.013c-0 0-0-0-0-0l-0.022-0.013c-0.023-0.013-0.045-0.026-0.068-0.039 0 0-0.001-0-0.001-0.001-0.033-0.018-0.067-0.036-0.101-0.053l-0.021-0.011c0 0-0-0-0.001-0l-0.019-0.010c-0.029-0.015-0.059-0.031-0.089-0.045-0-0-0.001-0-0.001-0l-0-0c-0.035-0.017-0.071-0.034-0.107-0.050l-0.011-0.005-0.001-0-0-0c-0.039-0.018-0.078-0.036-0.117-0.053 0 0-0-0-0-0s-0-0-0.001-0c-0.038-0.017-0.077-0.032-0.116-0.048 0 0-0.001-0-0.001-0-0.042-0.017-0.084-0.034-0.126-0.050-0 0-0-0-0-0-0.038-0.014-0.077-0.028-0.115-0.042 0 0-0-0-0.001-0s-0.001-0-0.001-0-0.001-0-0.001-0-0-0-0.001-0c-0.044-0.015-0.087-0.030-0.131-0.044-0-0-0-0-0-0-0.038-0.012-0.077-0.024-0.116-0.036 0 0 0 0-0 0s-0-0-0-0c-0.046-0.014-0.093-0.027-0.139-0.040 0 0-0 0-0-0-0.038-0.010-0.076-0.020-0.114-0.030 0 0-0-0-0-0-0.048-0.012-0.097-0.023-0.146-0.034l-0-0-0.008-0.002c-0.035-0.008-0.070-0.015-0.105-0.022l-0.001-0c-0.051-0.010-0.103-0.019-0.154-0.028l-0.001-0h-0l-0.024-0.004c-0.028-0.005-0.056-0.010-0.085-0.014h-0c-0.055-0.008-0.11-0.015-0.166-0.021-0 0-0 0-0 0l-0.024-0.003c-0.025-0.003-0.051-0.006-0.076-0.009l-0.001-0c-0.063-0.006-0.126-0.011-0.189-0.015-0 0-0 0-0.001-0l-0.018-0.001c-0.020-0.002-0.041-0.003-0.061-0.004-0 0-0 0-0.001 0s-0 0-0 0c-0.19-0.009-0.361-0.009-0.552 0h-0c-0 0-0 0-0.001 0-0.020 0.001-0.041 0.003-0.061 0.004l-0.018 0.001c-0.063 0.004-0.127 0.008-0.189 0.015-0 0-0.001 0-0.001 0s-0.001 0-0.001 0-0 0-0 0h-0c-0.025 0.003-0.051 0.006-0.076 0.009l-0.025 0.003c-0.056 0.006-0.111 0.013-0.166 0.021h-0c-0.029 0.004-0.057 0.009-0.085 0.014l-0.024 0.004h-0c0 0-0 0-0 0-0.052 0.009-0.103 0.018-0.154 0.028 0 0-0 0-0 0-0.034 0.007-0.068 0.014-0.102 0.022l-0.011 0.002-0 0c0 0-0 0-0 0-0.049 0.011-0.097 0.022-0.145 0.034-0.038 0.009-0.076 0.020-0.114 0.030-0 0-0.001 0-0.001 0l-0.001 0c-0.046 0.013-0.092 0.026-0.137 0.039l-0.001 0c-0.039 0.012-0.078 0.024-0.116 0.036l-0 0c-0.044 0.014-0.088 0.029-0.132 0.045-0 0-0 0-0 0-0.039 0.014-0.078 0.028-0.117 0.042l-0 0c-0.042 0.016-0.083 0.032-0.125 0.049-0 0-0 0-0 0l-0 0c-0.039 0.016-0.078 0.032-0.117 0.049 0 0-0 0-0.001 0l-0.001 0c-0.037 0.016-0.074 0.033-0.111 0.050l0 0c-0.002 0.001-0.004 0.002-0.006 0.003l-0.013 0.006c-0.035 0.016-0.070 0.033-0.105 0.050 0 0-0 0-0 0l-0 0c-0 0-0.001 0-0.001 0.001s-0.001 0-0.001 0.001c-0.028 0.014-0.056 0.028-0.084 0.043l-0.021 0.011c-0 0-0 0-0.001 0s-0 0-0 0l-0.021 0.011c-0.034 0.017-0.067 0.035-0.101 0.053-0 0-0 0-0 0-0.024 0.013-0.047 0.026-0.070 0.040l-0.022 0.013h-0l-0.021 0.012c-0.037 0.021-0.074 0.043-0.11 0.065-0 0-0 0-0 0s-0 0-0 0-0 0-0 0-0 0-0 0c-0.013 0.008-0.025 0.016-0.043 0.027-0.030 0.019-0.059 0.038-0.088 0.057-0.017 0.011-0.035 0.022-0.052 0.033-0.027 0.018-0.054 0.037-0.080 0.055-0.019 0.013-0.038 0.026-0.057 0.039-0.076 0.054-0.15 0.11-0.223 0.168-0.013 0.010-0.026 0.020-0.039 0.031-0 0-0 0-0 0-0.009 0.007-0.018 0.014-0.027 0.021-0.001 0-0.001 0.001-0.002 0.002-0.051 0.041-0.1 0.084-0.149 0.127 0 0-0 0-0 0s-0 0-0 0l-0.038 0.033c-0 0-0 0-0 0s-0 0-0 0c-0.048 0.043-0.095 0.087-0.142 0.132 0 0-0 0-0 0l-0.041 0.040c0 0-0 0-0 0.001-0.046 0.045-0.091 0.091-0.135 0.137l-0 0-0.037 0.039c-0 0-0.001 0.001-0.001 0.001s-0.001 0.001-0.001 0.001c-0.044 0.047-0.087 0.095-0.129 0.143 0 0-0 0-0.001 0l-0.001 0.001c0 0-0 0-0 0l-0 0-0.034 0.040c-0 0-0.001 0.001-0.001 0.001-0.043 0.051-0.085 0.102-0.127 0.154l-0 0c-0 0-0 0-0 0l-0.027 0.035-0 0c-0.043 0.055-0.085 0.111-0.126 0.167 0 0-0 0-0 0l-0 0-0.018 0.026-0 0c-0 0-0 0-0 0l-0.001 0.001c0 0-0 0-0 0-0.041 0.057-0.081 0.115-0.119 0.174-0 0-0.001 0.001-0.001 0.002s-0.002 0.002-0.002 0.003c-0 0.001-0.001 0.001-0.001 0.002s-0 0-0 0.001c-0.003 0.004-0.006 0.009-0.008 0.012l-0 0c0 0-0 0.001-0.001 0.001-0.338 0.52-0.582 1.081-0.729 1.675h-2.989c-0.321 0-0.582-0.261-0.582-0.582zM27.701 22.426v0zM30.254 29.607c-2.23 0-4.045-1.815-4.045-4.045 0-0.162 0.011-0.326 0.032-0.502v-0c0.070-0.563 0.254-1.092 0.545-1.577 0.024-0.041 0.048-0.081 0.074-0.121 0 0 0-0.001 0-0.001 0.002-0.003 0.004-0.006 0.006-0.009l0-0c0.029-0.045 0.060-0.090 0.091-0.133 0-0 0-0.001 0-0.001s0.001-0.001 0.001-0.001l0.014-0.020c0.030-0.041 0.061-0.082 0.092-0.122l0-0 0.020-0.026c0.030-0.038 0.061-0.076 0.093-0.113v0c0 0 0-0 0-0.001l0.024-0.027 0.001-0.001c0-0 0-0 0.001-0.001 0.031-0.036 0.063-0.072 0.096-0.106l0.028-0.029 0-0c0 0 0-0 0-0 0.033-0.034 0.066-0.068 0.099-0.101l0-0 0.030-0.029 0-0c0.034-0.032 0.068-0.065 0.103-0.096h0l0.029-0.025c0 0 0-0 0-0 0.036-0.032 0.073-0.063 0.11-0.094l0.018-0.015 0-0c0-0 0-0 0-0 0.063-0.050 0.127-0.099 0.193-0.146s0.134-0.092 0.203-0.135c0-0 0.001-0 0.001-0.001l0.029-0.019c0-0 0-0 0-0s0-0 0-0c0.024-0.015 0.049-0.029 0.073-0.043l0.024-0.014 0.030-0.017c0.012-0.007 0.024-0.014 0.036-0.021l0-0c0.022-0.012 0.044-0.023 0.066-0.035l0.023-0.012c0 0 0 0 0 0l0.025-0.013c0.017-0.009 0.035-0.018 0.053-0.027 0-0 0-0 0.001-0s0.001-0 0.001-0c0.024-0.012 0.048-0.023 0.073-0.034l0.014-0.006c0.002-0.001 0.004-0.002 0.006-0.003l0 0c0.026-0.012 0.052-0.024 0.079-0.036l0-0c0 0 0-0 0-0 0.028-0.012 0.057-0.024 0.085-0.035 0.030-0.012 0.061-0.024 0.092-0.036l0-0c0.028-0.011 0.056-0.021 0.085-0.031 0 0 0-0 0-0 0.032-0.011 0.064-0.022 0.096-0.032 0.028-0.009 0.057-0.018 0.085-0.026 0 0 0-0 0-0 0.033-0.010 0.066-0.019 0.1-0.028 0.028-0.008 0.056-0.015 0.084-0.022 0.035-0.009 0.071-0.017 0.107-0.025l0-0 0.011-0.002c0.023-0.005 0.047-0.010 0.071-0.015v-0c0 0 0 0 0 0 0.037-0.007 0.075-0.014 0.112-0.020l0.028-0.005c0.017-0.003 0.034-0.006 0.052-0.009 0.040-0.006 0.080-0.011 0.12-0.015l0.037-0.004c0.012-0.002 0.025-0.003 0.037-0.004 0 0 0-0 0-0s0 0 0 0c0.046-0.005 0.092-0.008 0.139-0.010l0.060-0.004c0.138-0.007 0.264-0.007 0.402 0v0l0.058 0.004c0 0 0.001 0 0.001 0s0 0 0.001 0c0.047 0.003 0.093 0.006 0.139 0.010h0.001c0.013 0.001 0.026 0.003 0.038 0.005l0.035 0.004c0.041 0.005 0.081 0.009 0.121 0.015v0l0 0c0.017 0.003 0.034 0.006 0.051 0.008l0.027 0.005c0 0 0 0 0 0 0.038 0.006 0.076 0.013 0.113 0.020l0 0c0.024 0.005 0.049 0.010 0.073 0.016l0.008 0.002 0 0c0.036 0.008 0.071 0.016 0.107 0.024l0 0c0.028 0.007 0.055 0.014 0.083 0.022 0 0 0 0 0 0 0.034 0.009 0.068 0.019 0.102 0.029h0c0.028 0.008 0.056 0.017 0.084 0.026 0 0 0 0 0 0 0.032 0.010 0.064 0.021 0.096 0.032 0 0 0.001 0 0.001 0l0.001 0c0.028 0.010 0.056 0.020 0.084 0.030 0 0 0 0 0 0 0.031 0.012 0.061 0.024 0.091 0.036 0 0 0 0 0.001 0 0.029 0.012 0.057 0.023 0.085 0.035l0 0c0 0 0 0 0 0 0.029 0.012 0.057 0.026 0.085 0.039l0 0c0 0 0 0 0 0l0.012 0.006c0.025 0.011 0.050 0.023 0.074 0.035l0 0c0.019 0.009 0.038 0.019 0.057 0.029l0.022 0.011c0 0 0 0 0 0l0.023 0.012c0.022 0.011 0.044 0.023 0.066 0.035l0.001 0c0.012 0.007 0.024 0.014 0.036 0.021l0.031 0.018v0l0.024 0.014c0.024 0.014 0.048 0.027 0.071 0.041l0.034 0.022c0 0 0 0 0 0 0.136 0.085 0.269 0.18 0.394 0.28 0 0 0.001 0 0.001 0.001l0.017 0.014c0.038 0.031 0.074 0.062 0.111 0.094 0 0 0 0 0 0l0.029 0.025c0 0 0 0 0 0 0.035 0.031 0.069 0.064 0.103 0.096l0.031 0.029c0.034 0.033 0.066 0.066 0.099 0.1h0l0.029 0.030c0.033 0.035 0.065 0.070 0.096 0.106 0.001 0.001 0.002 0.002 0.003 0.003l-0 0 0.020 0.024c0 0 0.001 0.001 0.001 0.001s0 0 0.001 0.001c0.032 0.037 0.062 0.074 0.093 0.112l0.020 0.026 0 0 0.001 0.001c0.032 0.040 0.063 0.081 0.093 0.123l0 0 0.011 0.015c0 0 0.001 0.001 0.001 0.001s0.001 0.001 0.001 0.002c0.031 0.044 0.061 0.088 0.091 0.132 0.002 0.003 0.004 0.006 0.006 0.010 0 0 0 0.001 0 0.001 0.025 0.039 0.048 0.078 0.072 0.117 0.252 0.418 0.425 0.869 0.512 1.348 0.014 0.078 0.026 0.156 0.036 0.235v0c0.022 0.175 0.032 0.339 0.032 0.501 0 2.23-1.815 4.045-4.045 4.045zM56.449 29.607c-2.23 0-4.045-1.815-4.045-4.045 0-0.161 0.011-0.325 0.032-0.5v-0c0.075-0.611 0.284-1.183 0.619-1.7 0.001-0.001 0.001-0.001 0.001-0.002s0.001-0.001 0.001-0.002l-0-0c0.001-0.001 0.001-0.002 0.002-0.003s0.002-0.002 0.002-0.003c0.029-0.045 0.060-0.090 0.091-0.133 0-0 0-0.001 0.001-0.001s0-0 0-0l0.014-0.020c0.030-0.041 0.060-0.082 0.091-0.122v0c0 0 0-0 0-0l0.021-0.026 0-0c0.030-0.038 0.061-0.076 0.093-0.113 0 0 0-0 0-0s0.001-0 0.001-0.001l0.021-0.024c0 0 0.003-0.004 0.003-0.004s0-0 0-0 0-0 0-0c0.031-0.036 0.063-0.072 0.096-0.107l0.027-0.028c0 0 0.001-0.001 0.001-0.001s0.001-0.001 0.001-0.001c0.032-0.034 0.065-0.068 0.099-0.101l0.030-0.029c0.034-0.033 0.069-0.065 0.104-0.097v-0c0 0 0-0 0-0l0.029-0.025c0.036-0.032 0.073-0.064 0.111-0.094l0.019-0.015c0.062-0.050 0.126-0.098 0.191-0.145s0.132-0.091 0.2-0.134l0.035-0.023c0.023-0.014 0.047-0.027 0.070-0.041l0.026-0.015c0-0 0-0 0-0l0.031-0.018c0.012-0.007 0.024-0.014 0.036-0.020 0 0 0-0 0-0s0-0 0-0c0.022-0.012 0.045-0.024 0.067-0.035l0.022-0.011c0 0 0-0 0-0s0-0 0-0l0.018-0.009c0.020-0.010 0.040-0.021 0.061-0.031 0.024-0.012 0.048-0.023 0.072-0.034l0.014-0.006 0-0c0.029-0.013 0.057-0.027 0.087-0.039 0.028-0.012 0.056-0.024 0.085-0.035 0-0 0.001-0 0.001-0 0.030-0.012 0.060-0.024 0.091-0.036 0 0 0-0 0-0h0c0.028-0.011 0.056-0.021 0.085-0.031 0 0 0-0 0-0s0-0 0-0c0.032-0.011 0.063-0.022 0.096-0.032l0-0c0-0 0.001-0 0.001-0 0.028-0.009 0.056-0.018 0.084-0.026l0-0c0.034-0.010 0.068-0.020 0.102-0.029l0-0c0.027-0.007 0.055-0.015 0.082-0.021 0 0 0-0 0-0s0 0 0 0c0.035-0.009 0.071-0.017 0.106-0.024l0.016-0.004c0.022-0.005 0.044-0.010 0.066-0.014l0-0c0.037-0.007 0.075-0.014 0.112-0.020l0.001-0 0.026-0.004c0.017-0.003 0.035-0.006 0.053-0.009l0.001-0c0.040-0.006 0.081-0.011 0.121-0.015 0 0 0 0 0.001-0l0.035-0.004c0.013-0.002 0.025-0.003 0.038-0.004 0 0 0-0 0.001-0h0c0.046-0.005 0.092-0.008 0.139-0.011h0l0.060-0.004c0.139-0.007 0.264-0.007 0.402 0v0l0.060 0.004c0 0 0 0 0 0 0.047 0.003 0.093 0.006 0.139 0.010h0.001c0.013 0.001 0.026 0.003 0.038 0.005l0.035 0.004c0 0 0 0 0 0 0.041 0.005 0.081 0.009 0.121 0.015v0l0 0c0.017 0.003 0.034 0.006 0.051 0.008l0.028 0.005 0 0c0.038 0.006 0.075 0.013 0.113 0.020 0 0 0 0 0.001 0 0.025 0.005 0.049 0.010 0.073 0.015l0.008 0.002c0 0 0 0 0 0l0 0c0.036 0.008 0.072 0.016 0.107 0.024 0.028 0.007 0.056 0.014 0.083 0.022l0 0c0.034 0.009 0.068 0.019 0.101 0.029 0.028 0.009 0.056 0.017 0.084 0.026 0.032 0.010 0.064 0.021 0.096 0.032l0 0c0 0 0 0 0 0 0.028 0.010 0.057 0.020 0.085 0.031l0 0c0.031 0.012 0.061 0.024 0.091 0.036 0 0 0 0 0 0 0.029 0.012 0.057 0.023 0.085 0.035l0 0c0 0 0 0 0 0 0.029 0.012 0.057 0.026 0.085 0.039 0 0 0.001 0 0.001 0s0 0 0.001 0l0.009 0.004c0.026 0.012 0.051 0.024 0.077 0.036 0.019 0.009 0.038 0.019 0.057 0.029l0.022 0.011 0.001 0 0.017 0.009c0.024 0.012 0.048 0.025 0.072 0.038 0.012 0.007 0.024 0.014 0.036 0.021l0.031 0.018c0 0 0 0 0 0l0.022 0.012c0.025 0.014 0.049 0.028 0.073 0.043l0.031 0.020c0 0 0.001 0 0.001 0.001s0.001 0.001 0.002 0.001c0.136 0.085 0.268 0.179 0.393 0.28 0 0 0.001 0.001 0.001 0.001l0.017 0.014c0.038 0.030 0.074 0.062 0.11 0.094 0 0 0.001 0.001 0.001 0.001s0 0 0.001 0.001l0.029 0.025c0.035 0.031 0.069 0.063 0.102 0.096 0 0 0.001 0 0.001 0.001s0.001 0.001 0.001 0.001l0.028 0.027c0 0 0 0 0.001 0.001 0.034 0.033 0.067 0.067 0.099 0.101l0 0c0 0 0 0 0 0l0.027 0.028c0 0 0 0 0 0 0.033 0.035 0.065 0.071 0.097 0.108v0c0 0 0 0 0 0l0.024 0.028 0 0c0.032 0.037 0.063 0.075 0.094 0.114 0 0 0 0 0 0l0.019 0.024c0 0 0 0 0.001 0.001 0.032 0.040 0.062 0.081 0.093 0.123v0l0 0 0.013 0.018c0 0 0 0 0 0.001 0.031 0.044 0.062 0.089 0.092 0.134 0 0 0 0.001 0.001 0.001s0.002 0.002 0.002 0.003c0.001 0.002 0.002 0.003 0.003 0.005 0.336 0.517 0.544 1.089 0.62 1.7 0 0 0 0 0 0 0.022 0.175 0.032 0.339 0.032 0.5 0 2.23-1.815 4.045-4.045 4.045zM64.498 23.636c0 0.321-0.261 0.582-0.582 0.582h-2.084c-0.146-0.591-0.389-1.149-0.724-1.668-0-0-0-0.001-0.001-0.001l-0.003-0.005c-0.001-0.001-0.001-0.001-0.001-0.002l-0-0-0.007-0.011c-0-0-0-0-0-0.001s-0-0-0-0l-0.001-0.002c-0-0-0.001-0.001-0.001-0.001-0.040-0.061-0.081-0.121-0.123-0.18-0-0-0.001-0.001-0.001-0.001s-0-0.001-0.001-0.001l-0.017-0.024-0-0c-0.041-0.057-0.083-0.113-0.126-0.168-0-0-0.001-0-0.001-0l-0.026-0.033-0.001-0.001c-0.042-0.053-0.085-0.105-0.129-0.156-0-0-0-0-0.001-0.001s0-0-0-0l-0.033-0.039c0 0-0-0-0-0-0.043-0.049-0.086-0.098-0.131-0.145 0 0-0-0-0.001-0.001l-0.038-0.040c0 0-0-0-0-0-0.045-0.047-0.090-0.093-0.136-0.139-0-0-0.001-0-0.001-0.001-0.011-0.010-0.021-0.021-0.032-0.031l-0.009-0.009c0 0-0.001-0-0.001-0.001-0.046-0.044-0.093-0.088-0.14-0.13-0-0-0-0-0.001-0.001l-0.001-0.001c-0.010-0.009-0.020-0.018-0.030-0.026l-0.007-0.006c-0-0-0-0-0-0l-0.001-0.001-0-0c-0.050-0.044-0.1-0.087-0.151-0.129-0.001-0-0.002-0.001-0.002-0.002s-0.001-0.001-0.002-0.001l-0.023-0.018c-0 0-0-0-0-0-0.169-0.136-0.348-0.264-0.532-0.379-0.001-0-0.001-0.001-0.002-0.001l-0.007-0.004c-0.014-0.009-0.027-0.018-0.041-0.026 0 0-0-0-0-0s-0 0-0-0-0.001-0-0.001-0-0.001-0-0.001-0c-0.037-0.023-0.074-0.044-0.111-0.065l-0.020-0.011c-0-0-0-0-0-0l-0.023-0.013c-0.023-0.013-0.046-0.026-0.069-0.039 0 0-0 0-0-0l-0-0c-0.035-0.019-0.071-0.038-0.107-0.056l-0.035-0.018c-0.029-0.015-0.059-0.031-0.089-0.045l-0-0c0 0-0 0-0 0-0.037-0.018-0.074-0.035-0.111-0.052l-0.007-0.003c0 0-0-0-0-0-0.039-0.018-0.078-0.036-0.118-0.053 0 0-0-0-0-0s-0-0-0-0l-0-0c-0.039-0.017-0.078-0.033-0.117-0.049-0-0-0-0-0-0-0.042-0.017-0.084-0.034-0.127-0.050 0 0-0-0-0.001-0-0.039-0.015-0.077-0.029-0.116-0.042 0 0-0-0-0-0-0.044-0.015-0.087-0.030-0.131-0.044h-0c-0 0-0-0-0-0-0.038-0.012-0.077-0.024-0.115-0.036-0 0-0 0-0 0s-0-0-0-0c-0.046-0.014-0.093-0.027-0.14-0.040 0 0-0 0-0-0-0.038-0.010-0.076-0.020-0.114-0.030-0.048-0.012-0.097-0.023-0.146-0.034l-0-0-0.008-0.002c-0.035-0.008-0.070-0.015-0.105-0.022l-0-0c-0.051-0.010-0.103-0.019-0.154-0.028l-0.001-0c0 0-0 0-0 0l-0.024-0.004c-0.028-0.005-0.056-0.010-0.085-0.014h-0c-0.055-0.008-0.11-0.015-0.166-0.021l-0.001-0-0.025-0.003c-0.025-0.003-0.050-0.006-0.076-0.009 0 0-0.001-0-0.001-0-0.064-0.006-0.128-0.011-0.192-0.015h-0l-0.018-0.001c-0.020-0.002-0.040-0.003-0.061-0.004-0 0-0.001 0-0.001 0h-0c-0.189-0.009-0.363-0.009-0.552 0-0 0-0 0-0 0s-0.001 0-0.001 0c-0.020 0.001-0.041 0.003-0.061 0.004l-0.019 0.001h-0.001c-0.063 0.004-0.126 0.008-0.189 0.015-0.001 0-0.001 0-0.001 0-0.026 0.003-0.052 0.006-0.077 0.009l-0.024 0.003c-0 0-0 0-0 0-0.056 0.007-0.112 0.013-0.167 0.021-0 0-0 0-0 0-0.029 0.004-0.057 0.009-0.086 0.014l-0.023 0.004h-0c-0.051 0.009-0.103 0.018-0.154 0.028-0 0-0 0-0 0-0.033 0.006-0.065 0.014-0.097 0.021l-0.015 0.003c-0 0-0 0-0.001 0s-0 0-0 0c-0.049 0.011-0.098 0.022-0.146 0.034l-0.001 0c-0.038 0.009-0.076 0.019-0.114 0.030-0 0-0 0-0 0l-0.001 0c-0.046 0.013-0.093 0.026-0.138 0.039l-0.001 0c-0.039 0.012-0.078 0.024-0.116 0.036-0 0-0.001 0-0.001 0-0.044 0.014-0.087 0.029-0.13 0.044l-0.001 0c-0.039 0.014-0.078 0.028-0.116 0.042l-0.001 0c-0.043 0.016-0.085 0.033-0.127 0.050-0 0-0.001 0-0.001 0-0.039 0.016-0.078 0.032-0.116 0.048 0 0-0 0-0 0s-0 0-0.001 0c-0.040 0.017-0.079 0.035-0.118 0.053-0 0-0 0-0 0l-0 0-0.014 0.006c-0.035 0.016-0.070 0.032-0.105 0.049 0 0-0 0-0 0h-0c-0.031 0.015-0.062 0.031-0.093 0.047l-0.035 0.018c-0.034 0.018-0.068 0.035-0.102 0.054-0 0-0 0-0 0s-0 0-0 0-0 0-0.001 0l-0 0c-0.023 0.013-0.046 0.026-0.069 0.039l-0.023 0.013-0 0c0 0-0 0-0.001 0l-0.023 0.013c-0.036 0.021-0.072 0.041-0.107 0.063l-0.001 0c-0 0-0.001 0-0.001 0l-0 0c-0.014 0.009-0.027 0.017-0.041 0.026l-0.005 0.003-0 0c-0.14 0.087-0.276 0.182-0.408 0.281-0.015 0.011-0.030 0.023-0.044 0.035-0.028 0.021-0.056 0.043-0.083 0.065-0 0-0.001 0-0.001 0.001-0.009 0.007-0.017 0.014-0.026 0.020-0 0-0 0-0 0-0.051 0.042-0.102 0.085-0.151 0.129-0 0-0 0-0 0l-0.008 0.007c-0.011 0.009-0.022 0.018-0.032 0.028l-0.001 0.001-0 0c-0 0-0 0-0 0-0.048 0.043-0.094 0.086-0.14 0.131-0 0-0.001 0.001-0.001 0.001s-0.001 0-0.001 0.001l-0.041 0.039c-0.045 0.044-0.090 0.090-0.133 0.136l-0.002 0.003-0 0-0.038 0.039c0 0-0 0-0.001 0.001s-0.001 0.001-0.001 0.001c-0.044 0.048-0.088 0.096-0.131 0.145-0.001 0-0.001 0.001-0.001 0.002s-0.001 0.001-0.001 0.001l-0.033 0.038c-0 0-0.001 0.001-0.001 0.001-0.043 0.050-0.085 0.101-0.126 0.153-0 0-0 0-0 0l-0.028 0.035c-0.043 0.055-0.085 0.111-0.126 0.168-0 0-0 0-0 0s-0 0-0 0l-0.019 0.026c0 0-0 0-0 0s-0 0-0.001 0.001l-0.001 0.001-0 0c-0.042 0.059-0.084 0.12-0.124 0.181-0 0-0.001 0.001-0.001 0.002s-0.001 0.001-0.001 0.001l-0.009 0.015c-0 0-0 0.001-0 0.001-0.001 0.001-0.001 0.002-0.002 0.003-0.336 0.518-0.578 1.077-0.724 1.668h-3.010v-17.534h7.326c5.026 0 9.116 4.089 9.116 9.116v7.835z"></path>
<path fill="#fff" style="fill: var(--color1, #fff)" d="M16.759 23.769h-16.007c-0.415 0-0.752 0.337-0.752 0.752s0.337 0.752 0.752 0.752h16.007c0.415 0 0.752-0.337 0.752-0.752s-0.337-0.752-0.752-0.752z"></path>
<path fill="#fff" style="fill: var(--color1, #fff)" d="M16.759 17.714h-12.005c-0.415 0-0.752 0.337-0.752 0.752s0.337 0.752 0.752 0.752h12.005c0.415 0 0.752-0.337 0.752-0.752s-0.337-0.752-0.752-0.752z"></path>
<path fill="#fff" style="fill: var(--color1, #fff)" d="M16.759 11.66h-8.003c-0.415 0-0.752 0.337-0.752 0.752s0.337 0.752 0.752 0.752h8.003c0.415 0 0.752-0.337 0.752-0.752s-0.337-0.752-0.752-0.752z"></path>
</symbol>
<symbol id="icon-truck-2" viewBox="0 0 45 32">
<path fill="#eb0000" style="fill: var(--color2, #eb0000)" d="M43.651 14.402l-3.15-1.385-2.655-5.249c-0.684-1.37-2.049-2.216-3.57-2.204h-4.695v-1.471c0-2.257-1.789-4.093-3.988-4.093h-21.625c-2.188 0-3.968 1.836-3.968 4.093v19.888c-0.019 1.336 1.034 2.436 2.348 2.455h0.746v0.173c0 0.065-0.004 0.109-0.007 0.145-0.002 0.021-0.003 0.039-0.003 0.061-0.002 0.645 0.126 1.256 0.337 1.826 0.321-0.496 0.838-0.858 1.472-0.964-0.066-0.268-0.111-0.543-0.111-0.831 0-0.506 0.114-0.983 0.307-1.416-0.532-0.369-0.912-1.025-0.973-1.695-0.206 0.282-0.394 0.579-0.54 0.905l-0.046 0.101h-1.144c-0.398 0-0.698-0.318-0.698-0.74v-5.48h26.205v6.22h-15.068l-0.046-0.101c-0.092-0.205-0.201-0.398-0.317-0.586-0.021 0.042-0.022 0.084-0.047 0.126-0.262 0.447-0.75 0.809-1.29 0.986 0.277 0.499 0.448 1.066 0.448 1.679 0 0.556-0.143 1.075-0.374 1.54 0.545 0.451 0.788 1.178 0.732 1.89 0.838-0.944 1.315-2.14 1.319-3.421v-0.051c0-0.069 0-0.095-0.009-0.189l-0.019-0.19h17.835v0.379c-0.001 0.145 0.029 0.284 0.040 0.427 0.285-0.15 0.583-0.276 0.92-0.401 0.272-0.101 0.521-0.131 0.759-0.13 0.027-0.595 0.193-1.152 0.48-1.633-0.553-0.227-1.028-0.689-1.267-1.203-0.168 0.244-0.316 0.504-0.441 0.777l-0.046 0.1h-1.922v-10.238h10.146l3.266 1.461c0.262 0.133 0.43 0.42 0.419 0.715v7.323c0 0.422-0.3 0.74-0.698 0.74h-1.914l-0.046-0.1c-0.11-0.239-0.25-0.451-0.39-0.664-0.239 0.391-0.574 0.72-1.004 0.903-0.118 0.050-0.239 0.067-0.359 0.102 0.342 0.538 0.546 1.176 0.546 1.863 0 0.119-0.023 0.232-0.035 0.348 0.616 0.174 1.149 0.617 1.457 1.169 0.15-0.483 0.254-0.986 0.256-1.518v-0.43h1.479c1.316 0 2.386-1.087 2.386-2.424v-7.357c0.019-0.946-0.559-1.842-1.439-2.232zM27.894 16.807h-26.205v-12.703c0-1.311 1.023-2.378 2.28-2.378h21.625c0.62 0.005 1.2 0.256 1.635 0.705s0.67 1.040 0.665 1.665v12.712zM29.582 12.788v-5.498h4.694c0.877-0.011 1.675 0.471 2.078 1.257l2.157 4.241h-8.93z"></path>
<path fill="#000" style="fill: var(--color3, #000)" d="M8.169 21.66c-2.807 0-5.082 2.312-5.082 5.165s2.275 5.165 5.082 5.165 5.082-2.312 5.082-5.165c0-2.852-2.275-5.165-5.082-5.165zM8.169 30.285c-1.88 0-3.404-1.549-3.404-3.46s1.524-3.459 3.404-3.459 3.404 1.549 3.404 3.459c0 1.911-1.524 3.46-3.404 3.46z"></path>
<path fill="#000" style="fill: var(--color3, #000)" d="M36.152 21.66c-2.807 0-5.082 2.312-5.082 5.165s2.275 5.165 5.082 5.165c2.807 0 5.082-2.312 5.082-5.165s-2.275-5.165-5.082-5.165zM36.152 30.285c-1.88 0-3.404-1.549-3.404-3.46s1.524-3.459 3.404-3.459c1.88 0 3.404 1.549 3.404 3.459s-1.524 3.46-3.404 3.46z"></path>
</symbol>
<symbol id="icon-viber" viewBox="0 0 29 32">
<path fill="#6147fc" style="fill: var(--color11, #6147fc)" d="M17.396 13.398c-0.265-0.010-0.409-0.179-0.438-0.453-0.021-0.2-0.037-0.403-0.081-0.598-0.087-0.384-0.276-0.74-0.574-0.975-0.141-0.111-0.301-0.192-0.468-0.244-0.213-0.066-0.433-0.048-0.646-0.104-0.23-0.061-0.358-0.263-0.322-0.496 0.033-0.213 0.224-0.379 0.439-0.362 1.343 0.105 2.303 0.856 2.44 2.566 0.010 0.121 0.021 0.248-0.004 0.364-0.040 0.188-0.164 0.285-0.29 0.303 0.010 0 0.008 0.001-0.020 0.003-0.164 0.003-0.1-0-0.037-0.002zM19.369 17.815c-0.419-0.323-0.84-0.642-1.274-0.939s-0.95-0.293-1.353 0.064c-0.413 0.365-0.603 1.063-1.192 1.138-0.352 0.044-0.658-0.116-0.963-0.253-1.907-0.858-3.069-2.451-3.758-4.5-0.090-0.266-0.083-0.555 0.056-0.8 0.076-0.134 0.181-0.234 0.292-0.332 0.127-0.113 0.25-0.23 0.386-0.33 0.559-0.411 0.644-1.148 0.335-1.752-0.502-0.981-1.121-1.871-1.796-2.717-0.312-0.392-0.733-0.52-1.16-0.298-0.547 0.284-1.053 0.67-1.445 1.174-0.419 0.537-0.816 1.274-0.546 1.986 0.296 0.782 0.586 1.569 0.931 2.326 0.726 1.597 1.586 3.105 2.684 4.442 1.931 2.35 4.369 3.883 7.017 5.071 0.256 0.115 0.531 0.179 0.82 0.273 0.251-0.084 0.517-0.125 0.74-0.255 0.789-0.458 1.335-1.176 1.711-2.038 0.205-0.471 0.080-0.926-0.284-1.273-0.379-0.361-0.788-0.671-1.199-0.987zM14.332 6.111c0.194 0.007 3.318 0.1-0.009-0-0.067-0-0.134-0.004-0.201 0-0.246 0.014-0.463 0.236-0.417 0.515 0.055 0.333 0.379 0.349 0.627 0.377 0.391 0.044 0.787 0.064 1.174 0.139 2.569 0.495 4.627 2.804 4.986 5.595 0.068 0.529 0.093 1.064 0.128 1.597 0.018 0.269 0.143 0.521 0.421 0.517 0.269-0.004 0.41-0.259 0.391-0.529-0.046-0.641-0.083-1.286-0.187-1.917-0.609-3.7-3.45-6.185-6.911-6.294zM27.991 20.403l-0.009 0.037c-0.691 3.019-3.805 6.26-6.664 6.934l-0.032 0.007c-2.312 0.477-4.642 0.715-6.97 0.715-0.685 0-1.371-0.023-2.056-0.064l-3.158 3.55c-0.782 0.88-2.157 0.281-2.157-0.939v-3.371c-2.753-0.85-5.635-3.941-6.297-6.832l-0.008-0.037c-0.854-4.217-0.854-8.493 0-12.71l0.008-0.037c0.692-3.019 3.806-6.259 6.665-6.934l0.033-0.007c4.624-0.954 9.315-0.954 13.94 0l0.032 0.007c2.86 0.674 5.974 3.914 6.664 6.934l0.009 0.037c0.854 4.217 0.854 8.493 0 12.71zM25.492 8.305c-0.461-1.97-2.825-4.419-4.704-4.871-4.294-0.883-8.649-0.883-12.945 0-1.879 0.453-4.242 2.902-4.704 4.871-0.769 3.812-0.769 7.675 0 11.487 0.462 1.97 2.826 4.419 4.704 4.871 0.001 0 0.001 0 0.001 0 0.084 0.018 0.145 0.096 0.145 0.188v5.584c0 0.279 0.315 0.416 0.494 0.215l2.453-2.722c0 0 1.955-2.169 2.306-2.559 0.034-0.038 0.082-0.059 0.131-0.057 2.476 0.074 4.955-0.142 7.415-0.648 1.879-0.452 4.243-2.901 4.704-4.871 0.769-3.812 0.769-7.675 0-11.487zM18.772 13.432c0 0.121 0.006 0.249 0.042 0.362 0.121 0.38 0.649 0.332 0.741-0.044 0.025-0.104 0.028-0.213 0.034-0.26-0.014-0.257-0.022-0.452-0.036-0.647-0.006-0.079-0.023-0.157-0.034-0.235-0.24-1.735-1.061-3.034-2.498-3.857-0.707-0.405-1.475-0.591-2.27-0.639-0.242-0.015-0.404 0.158-0.415 0.398-0.011 0.256 0.117 0.422 0.357 0.458 0.198 0.030 0.398 0.051 0.595 0.087 0.452 0.081 0.898 0.216 1.31 0.435 0.681 0.361 1.263 0.957 1.643 1.667 0.37 0.69 0.53 1.483 0.531 2.277z"></path>
</symbol>
<symbol id="icon-vk" viewBox="0 0 60 32">
<path fill="#007aeb" style="fill: var(--color12, #007aeb)" d="M60.085 29.998c-3.105-3.562-6.4-6.623-9.531-10.166-1.631-1.846-1.068-2.047-0.165-3.364 2.784-4.059 5.637-8.429 8.278-12.452 1.185-1.806 0.797-2.518-1.069-2.518-2.759 0-5.517 0-8.276 0-2.189 0-2.429-0.329-3.909 2.349-2.683 4.855-5.899 11.115-10.283 11.484 0.026-4.434 0.054-8.55 0.080-12.984 0.007-1.191-0.216-2.347-2.422-2.347-2.871 0-5.741 0-8.612 0-2.499 0-3.859 1.169-3.783 1.887 0.15 1.395 2.833-0.343 2.833 3.531 0 3.304 0 6.609 0 9.913-3.245 0.475-7.489-6.96-10.541-12.008-0.845-1.398-0.794-1.826-3.57-1.826-2.485 0-4.969 0-7.454 0-1.333 0-2.223 0.405-1.252 2.234 4.932 9.295 16.089 28.252 25.97 28.252 2.317 0 4.634 0 6.951 0 1.697 0 2.168-0.77 2.168-1.836 0-1.876 0-3.593 0-5.615 3.73 0.357 6.199 3.027 8.854 5.711 1.7 1.719 2.24 1.756 3.648 1.756 3.523 0 7.045-0.005 10.567-0.008 1.981-0.002 2.22-1.189 1.518-1.994z"></path>
</symbol>
<symbol id="icon-wallet" viewBox="0 0 38 32">
<path fill="#e91d25" style="fill: var(--color5, #e91d25)" d="M36.076 0h-34.332c-0.962 0-1.744 0.782-1.744 1.744v28.433c0 0.962 0.782 1.744 1.744 1.744h34.332c0.962 0 1.744-0.783 1.744-1.744v-28.433c0-0.962-0.782-1.744-1.744-1.744zM26.070 20.39c-0.39 0-0.662-0.237-0.662-0.449v-7.96c0-0.212 0.272-0.449 0.662-0.449h10.414v8.859h-10.414zM36.076 30.585h-34.332c-0.221 0-0.408-0.187-0.408-0.408v-28.433c0-0.221 0.187-0.408 0.408-0.408h34.332c0.221 0 0.408 0.187 0.408 0.408v8.451h-10.414c-1.102 0-1.999 0.801-1.999 1.786v7.96c0 0.985 0.897 1.785 1.999 1.785h10.414v8.451c0 0.221-0.187 0.408-0.408 0.408z"></path>
<path fill="#fff" style="fill: var(--color1, #fff)" d="M30.945 13.062c-1.599 0-2.899 1.301-2.899 2.899s1.301 2.899 2.899 2.899c1.599 0 2.899-1.301 2.899-2.899s-1.301-2.899-2.899-2.899zM30.945 17.524c-0.862 0-1.563-0.701-1.563-1.563s0.701-1.563 1.563-1.563c0.862 0 1.563 0.701 1.563 1.563s-0.701 1.563-1.563 1.563z"></path>
</symbol>
<symbol id="icon-wallet-2" viewBox="0 0 36 32">
<path fill="#eb0000" style="fill: var(--color2, #eb0000)" d="M32.934 4.521l-0.194-0.054-0.016-0.198c-0.188-2.394-2.246-4.27-4.684-4.27h-23.34c-2.592 0-4.7 2.077-4.7 4.63v22.739c0 2.553 2.108 4.63 4.7 4.63h26.964c2.592 0 4.7-2.077 4.7-4.63v-18.391c0-2.065-1.41-3.898-3.43-4.457zM1.753 4.63c0-1.601 1.322-2.903 2.947-2.903h23.34c1.37 0 2.58 0.957 2.877 2.275l0.078 0.346h-26.294c-0.887 0-1.753 0.247-2.504 0.715l-0.443 0.276v-0.708zM34.61 21.495h-7.719c-1.818 0-3.298-1.458-3.298-3.249s1.479-3.249 3.298-3.249h7.719v6.498zM34.61 13.269h-7.719c-2.785 0-5.051 2.232-5.051 4.976s2.266 4.976 5.051 4.976h7.719v4.148c0 1.601-1.322 2.903-2.947 2.903h-26.964c-1.625 0-2.947-1.302-2.947-2.903v-18.391c0-1.601 1.322-2.903 2.947-2.903h26.964c1.625 0 2.947 1.302 2.947 2.903v4.291z"></path>
<path fill="#000" style="fill: var(--color3, #000)" d="M27.324 17.422c0.51 0 0.924 0.409 0.924 0.911s-0.415 0.911-0.924 0.911c-0.51 0-0.925-0.409-0.925-0.911s0.415-0.911 0.925-0.911z"></path>
<path fill="#000" style="fill: var(--color3, #000)" d="M30.28 23.223h6.083v-9.957h-1.753v0.005h-7.719c-2.785 0-5.051 2.232-5.051 4.976s2.266 4.977 5.051 4.977l3.389-0.001zM23.594 18.248c0-1.792 1.479-3.249 3.298-3.249h7.719v6.498h-7.719c-1.818 0-3.298-1.458-3.298-3.249z"></path>
</symbol>
<symbol id="icon-whatsapp" viewBox="0 0 32 32">
<path fill="#00c34e" style="fill: var(--color13, #00c34e)" d="M24.421 21.030c-0.607 0.949-1.568 2.107-2.772 2.396-2.121 0.51-5.379 0.012-9.447-3.754-3.521-3.26-4.453-5.975-4.233-8.129 0.125-1.222 1.151-2.324 2.016-3.050 0.59-0.495 1.492-0.291 1.805 0.41l1.304 2.925c0.171 0.385 0.117 0.831-0.143 1.164l-0.662 0.849c-0.279 0.358-0.316 0.849-0.089 1.241 0.788 1.36 3.872 4.080 5.338 4.669 0.423 0.17 0.908 0.066 1.228-0.257l0.758-0.766c0.297-0.3 0.735-0.415 1.143-0.299l3.099 0.883c0.742 0.212 1.069 1.071 0.655 1.718zM31.992 16.378c-0.271 8.634-7.532 15.493-16.241 15.361-2.468-0.038-4.799-0.63-6.875-1.656l-8.080 1.899c-0.443 0.104-0.845-0.283-0.754-0.726l1.699-8.179c-1.106-2.149-1.734-4.581-1.741-7.158-0.026-8.461 6.698-15.499 15.218-15.901 9.364-0.442 17.065 7.104 16.774 16.36zM28.528 15.87c0-3.319-1.303-6.44-3.669-8.787s-5.512-3.64-8.858-3.64c-3.317 0-6.514 1.313-8.859 3.64-2.366 2.347-3.669 5.468-3.669 8.787 0 1.988 0.458 3.886 1.362 5.641l0.554 1.077-1.043 5.021 4.954-1.164 1.125 0.556c1.74 0.86 3.617 1.296 5.576 1.296 3.346 0 6.492-1.292 8.859-3.64 2.345-2.326 3.669-5.498 3.669-8.787z"></path>
</symbol>
<symbol id="icon-wrenches" viewBox="0 0 32 32">
<path fill="#fff" style="fill: var(--color1, #fff)" d="M10.939 24.888c0.501 1.91-0.040 3.964-1.41 5.362-1.23 1.253-2.93 1.814-4.619 1.569-0.34-0.050-0.624-0.291-0.733-0.623s-0.024-0.699 0.219-0.947l1.283-1.308c0.709-0.723 0.71-1.893 0-2.616-0.686-0.699-1.881-0.699-2.567 0l-1.283 1.309c-0.244 0.247-0.605 0.334-0.929 0.223-0.326-0.111-0.563-0.4-0.611-0.747-0.239-1.722 0.337-3.482 1.54-4.709 1.366-1.392 3.392-1.943 5.26-1.438l0.001 0.001 13.417-13.675c-0.501-1.91 0.040-3.964 1.41-5.362 1.212-1.233 2.925-1.813 4.619-1.569 0.34 0.050 0.624 0.291 0.733 0.623s0.024 0.699-0.219 0.947l-1.283 1.308c-0.709 0.723-0.71 1.892 0 2.616 0.686 0.699 1.881 0.699 2.567 0l1.283-1.309c0.244-0.247 0.604-0.335 0.929-0.223 0.326 0.111 0.563 0.4 0.611 0.747 0.239 1.722-0.337 3.482-1.54 4.709-1.366 1.392-3.383 1.945-5.26 1.438l-0.001-0.001-13.417 13.675zM31.21 26.326c0 3.060-2.442 5.55-5.445 5.55s-5.445-2.489-5.445-5.55c0-0.438 0.065-0.889 0.202-1.419l-3.517-3.585 3.851-3.924 3.517 3.584c0.519-0.14 0.962-0.206 1.391-0.206 3.002 0 5.445 2.489 5.445 5.549zM28.508 25.247l-1.474-1.502c-0.23-0.234-0.565-0.328-0.876-0.239l-2.013 0.55c-0.313 0.086-0.557 0.335-0.642 0.654l-0.54 2.052c-0.084 0.319 0.005 0.659 0.235 0.893l1.474 1.502c0.239 0.244 0.581 0.323 0.876 0.239l2.013-0.55c0.313-0.086 0.557-0.335 0.642-0.654l0.54-2.052c0.084-0.319-0.005-0.659-0.235-0.893zM1.827 9.725c-2.122-2.163-2.122-5.684 0-7.848 2.055-2.095 5.643-2.095 7.7 0 1.37 1.396 1.911 3.451 1.41 5.362l3.502 3.62-3.85 3.924-3.502-3.62c-1.877 0.512-3.897-0.047-5.261-1.437zM3.019 7.037l1.474 1.502c0.239 0.244 0.581 0.322 0.876 0.239l2.013-0.55c0.313-0.086 0.557-0.335 0.642-0.654l0.54-2.052c0.084-0.319-0.005-0.659-0.235-0.893l-1.474-1.502c-0.23-0.234-0.564-0.326-0.876-0.239l-2.013 0.55c-0.313 0.086-0.557 0.335-0.642 0.654l-0.54 2.052c-0.084 0.319 0.005 0.659 0.235 0.893z"></path>
</symbol>
<symbol id="icon-youtube" viewBox="0 0 48 32">
<path fill="#eb0000" style="fill: var(--color2, #eb0000)" d="M38.031 0h-28.062c-5.506 0-9.969 4.205-9.969 9.392v13.216c0 5.187 4.463 9.392 9.969 9.392h28.062c5.506 0 9.969-4.205 9.969-9.392v-13.216c0-5.187-4.463-9.392-9.969-9.392zM31.289 16.643l-13.126 5.897c-0.35 0.158-0.754-0.083-0.754-0.448v-12.164c0-0.37 0.414-0.61 0.765-0.443l13.126 6.266c0.39 0.186 0.383 0.714-0.011 0.891z"></path>
</symbol>
</defs>
</svg>
