<svg width="86" height="14" viewBox="0 0 86 14" fill="none" xmlns="http://www.w3.org/2000/svg">
<path d="M30.9414 5.62144L27.7249 8.79769L28.4842 13.2827L24.5084 11.1652L20.5326 13.2827L21.2919 8.79769L18.0754 5.62144L22.5205 4.96711L24.5084 0.886589L26.4963 4.96711L30.9414 5.62144ZM8.42095 4.96711L6.43303 0.886589L4.44511 4.96711L0 5.62144L3.21651 8.79769L2.45719 13.2827L6.43303 11.1652L10.4089 13.2827L9.64954 8.79769L12.8661 5.62144L8.42095 4.96711ZM82.3672 8.93473L83.2247 14L78.7345 11.6085L74.2443 14L75.1018 8.93473L71.4691 5.34741L76.4894 4.60849L78.7345 0L80.9797 4.60849L86 5.34741L82.3672 8.93473ZM82.1959 12.5653L81.5349 8.6606L84.3352 5.89541L80.4653 5.32584L78.7345 1.77318L77.0038 5.32584L73.1339 5.89541L75.9342 8.6606L75.2732 12.5653L78.7345 10.7218L82.1959 12.5653ZM62.6471 4.96711L60.6592 0.886589L58.6713 4.96711L54.2261 5.62144L57.4427 8.79769L56.6833 13.2827L60.6592 11.1652L64.635 13.2827L63.8757 8.79769L67.0922 5.62144L62.6471 4.96711ZM44.5717 4.96711L42.5838 0.886589L40.5959 4.96711L36.1508 5.62144L39.3673 8.79769L38.608 13.2827L42.5838 11.1652L46.5596 13.2827L45.8003 8.79769L49.0168 5.62144L44.5717 4.96711Z" fill="#FFD15B"/>
</svg>
