<svg width="15" height="14" viewBox="0 0 15 14" fill="none" xmlns="http://www.w3.org/2000/svg">
<path d="M11.3672 8.93473L12.2246 14L7.73446 11.6085L3.24422 14L4.1017 8.93473L0.468994 5.34741L5.48928 4.60849L7.73446 0L9.97963 4.60849L14.9999 5.34741L11.3672 8.93473ZM11.1958 12.5653L10.5348 8.6606L13.3351 5.89541L9.46523 5.32584L7.73446 1.77318L6.00368 5.32584L2.1338 5.89541L4.93413 8.6606L4.27308 12.5653L7.73446 10.7218L11.1958 12.5653Z" fill="#FFD15B"/>
<path d="M11.1958 12.5653L10.5348 8.6606L13.3351 5.89541L9.46523 5.32584L7.73446 1.77318L6.00368 5.32584L2.1338 5.89541L4.93413 8.6606L4.27308 12.5653L7.73446 10.7218L11.1958 12.5653Z" fill="none"/>
</svg>
