<svg width="65" height="66" viewBox="0 0 65 66" fill="none" xmlns="http://www.w3.org/2000/svg">
<path d="M22.5622 51.3324C23.5948 55.2724 22.4798 59.5088 19.6541 62.3907C17.1169 64.9743 13.6114 66.1319 10.1277 65.6266C9.42581 65.5242 8.84099 65.0268 8.61612 64.3412C8.39128 63.6556 8.56672 62.8993 9.06758 62.3888L11.7142 59.6913C13.1773 58.2 13.1781 55.788 11.7142 54.2962C10.2995 52.8543 7.83379 52.8543 6.41907 54.2962L3.77241 56.9956C3.2697 57.5061 2.52402 57.6849 1.85684 57.4558C1.18431 57.2267 0.696285 56.6305 0.595712 55.9152C0.102242 52.3645 1.29023 48.7336 3.77241 46.2037C6.58901 43.333 10.7692 42.1966 14.6203 43.238L14.6221 43.2399L42.2952 15.0357C41.2625 11.0957 42.3775 6.85929 45.2032 3.97735C47.7019 1.43446 51.2368 0.238499 54.7297 0.741478C55.4315 0.84386 56.0164 1.34125 56.2412 2.02685C56.4661 2.71246 56.2906 3.46878 55.7898 3.97927L53.1431 6.6768C51.68 8.16781 51.6793 10.5798 53.1431 12.0719C54.5579 13.5138 57.0236 13.5138 58.4383 12.0719L61.0849 9.37243C61.5877 8.86194 62.3316 8.68135 63.0005 8.9123C63.6731 9.14135 64.1611 9.73755 64.2616 10.4529C64.7551 14.0037 63.5671 17.6344 61.0849 20.1644C58.2684 23.0351 54.1083 24.1752 50.2371 23.1301L50.2352 23.1282L22.5622 51.3324ZM64.3716 54.2968C64.3716 60.6085 59.3342 65.7427 53.1416 65.7427C46.9491 65.7427 41.9117 60.6085 41.9117 54.2968C41.9117 53.3934 42.0451 52.4637 42.3285 51.3703L35.0753 43.9771L43.0177 35.8828L50.272 43.2757C51.3431 42.9869 52.2552 42.851 53.1416 42.851C59.3342 42.851 64.3716 47.9852 64.3716 54.2968ZM58.7987 52.0725L55.7591 48.9745C55.2839 48.492 54.5931 48.2982 53.9514 48.4808L49.7987 49.6153C49.1536 49.7923 48.6492 50.3064 48.4755 50.9641L47.3624 55.1966C47.1888 55.8542 47.3733 56.5565 47.8467 57.039L50.8863 60.137C51.379 60.6394 52.0839 60.8022 52.6939 60.6307L56.8466 59.4962C57.4917 59.3193 57.9962 58.8051 58.1699 58.1475L59.283 53.9149C59.4566 53.2573 59.2721 52.555 58.7987 52.0725ZM3.76905 20.0569C-0.608498 15.5952 -0.608498 8.33352 3.76905 3.86989C8.00759 -0.452073 15.4084 -0.452073 19.6506 3.86989C22.4763 6.75005 23.5914 10.9882 22.5587 14.9282L29.7819 22.3943L21.8409 30.4871L14.6188 23.0209C10.7476 24.0771 6.58202 22.924 3.76905 20.0569ZM6.22753 14.5147L9.2671 17.6127C9.75983 18.115 10.4647 18.2778 11.0747 18.1064L15.2274 16.9719C15.8725 16.7949 16.377 16.2808 16.5507 15.6231L17.6638 11.3906C17.8374 10.733 17.6528 10.0307 17.1794 9.54818L14.1399 6.45017C13.6665 5.96766 12.9775 5.77766 12.3322 5.95647L8.17954 7.09102C7.53444 7.26791 7.02995 7.78209 6.85628 8.43972L5.74314 12.6723C5.56958 13.3299 5.75413 14.0322 6.22753 14.5147Z" fill="white"/>
</svg>
